<?xml version="1.0" encoding="UTF-8"?>
<svg width="104px" height="152px" viewBox="0 0 104 152" version="1.1" xmlns="http://www.w3.org/2000/svg" xmlns:xlink="http://www.w3.org/1999/xlink">
    <!-- Generator: Sketch 63.1 (92452) - https://sketch.com -->
    <title>Group 10</title>
    <desc>Created with Sketch.</desc>
    <g id="Landing_1" stroke="none" stroke-width="1" fill="none" fill-rule="evenodd">
        <g id="Desktop-Copy-13" transform="translate(-920.000000, -2090.000000)">
            <g id="Group-10" transform="translate(920.000000, 2090.000000)">
                <path d="M26,34.2586624 L42.4937268,144.796841 C72.5403681,158.918309 103.341209,147.921991 103.341209,147.921991 L122,33 L30.3357985,33.6859257 L26,34.2586624 Z" id="Fill-3" fill="#FFFFFF"></path>
                <g id="Group-9" fill="#FFFFFF">
                    <polygon id="Fill-12" points="40 22 42 22 42 0 40 0"></polygon>
                    <polygon id="Fill-13" points="31 12 50 12 50 10 31 10"></polygon>
                    <polygon id="Fill-14" points="4 50 6 50 6 38 4 38"></polygon>
                    <polygon id="Fill-15" points="0 45 10 45 10 43 0 43"></polygon>
                </g>
                <path d="M107.468905,83.1019426 C106.850076,82.7652995 106.28648,81.8381142 105.895344,81.1251563 C104.480718,78.5521603 100.930062,77.8392023 98.1650591,78.7935912 C95.6221131,79.6720369 93.4466319,81.6703594 90.7672956,81.9049894 C88.0169463,82.1452868 85.5202152,80.4768066 83.0223569,79.2934551 C78.1945921,77.0026953 72.5856829,76.4155534 67.3915805,77.6544453 C66.1708312,77.9457493 64.9579722,78.3367994 63.7034071,78.3889394 C61.4715662,78.4818846 59.354699,77.5025592 57.2637572,76.7091243 C54.3420746,75.6017159 51.2344052,74.8196158 48.1188456,75.0361102 C45.0032859,75.2526046 41.8674367,76.5719735 39.9455738,79.0463568 C39.1328681,80.0936909 38.8149998,83.7128875 39.1058155,84.2932284 L48.7061128,138.329545 C70.1103685,146.588069 95.9940866,138.329545 95.9940866,138.329545 C95.9940866,138.329545 108.14522,83.2073561 107.998685,83.2232248 C107.998685,83.2232248 107.890475,82.8922491 107.468905,83.1019426 Z" id="Fill-5" fill="#FF5958"></path>
                <path d="M74.857515,133 C68.4867738,132.879899 62.1597445,132.253332 56.0557585,131.138429 C55.6063096,131.05685 55.2510097,130.707876 55.1568608,130.254664 C54.8654476,128.831576 54.1548476,125.898156 53.3332865,122.503592 C51.6206735,115.423276 49.4888737,106.610554 49.157111,103.448262 C48.9419135,101.413337 48.5608347,99.3183607 48.1909641,97.2924996 L48.0183578,96.3350877 C47.9073966,95.7187183 48.3108918,95.1295418 48.9194971,95.0173716 C49.52474,94.9097336 50.1120497,95.3130929 50.2230109,95.9283292 L50.396738,96.8834751 C50.7722127,98.9501253 51.1622581,101.087023 51.3853013,103.209192 C51.7013725,106.220791 53.9026631,115.32017 55.5110399,121.965402 C56.2137941,124.870496 56.8347284,127.437946 57.1911492,129.041187 C62.9488019,130.051851 68.9037189,130.620633 74.9001062,130.733936 C75.5187989,130.745267 76.0108389,131.261929 75.9996307,131.888496 C75.9873017,132.505998 75.4885367,133 74.8788106,133 L74.857515,133 Z" id="Fill-7" fill="#FFFFFF"></path>
            </g>
        </g>
    </g>
</svg>