<?xml version="1.0" encoding="UTF-8"?>
<svg width="164px" height="80px" viewBox="0 0 164 80" version="1.1" xmlns="http://www.w3.org/2000/svg" xmlns:xlink="http://www.w3.org/1999/xlink">
    <!-- Generator: Sketch 63.1 (92452) - https://sketch.com -->
    <title>Group 18</title>
    <desc>Created with Sketch.</desc>
    <defs>
        <polygon id="path-1" points="0.8165 0.2822 55.5345 0.2822 55.5345 55 0.8165 55"></polygon>
        <polygon id="path-3" points="0.504 0.2822 55.222 0.2822 55.222 55 0.504 55"></polygon>
        <polygon id="path-5" points="0 79.1506 181.518 79.1506 181.518 -0.0004 0 -0.0004"></polygon>
    </defs>
    <g id="Landing_1" stroke="none" stroke-width="1" fill="none" fill-rule="evenodd">
        <g id="Desktop-Copy-11" transform="translate(-853.000000, -2129.000000)">
            <g id="Group-18" transform="translate(835.000000, 2129.000000)">
                <path d="M126.7305,76.5911 L179.0945,49.0921 C179.0945,49.0921 187.0445,34.9831 174.1425,28.6751 L115.1745,24.4331" id="Fill-1" fill="#FF4750"></path>
                <path d="M57.418,76.5911 L109.783,49.0921 C109.783,49.0921 117.732,34.9831 104.831,28.6751 L45.863,24.4331" id="Fill-3" fill="#FF4750"></path>
                <g id="Group-7" transform="translate(87.000000, 24.150600)">
                    <mask id="mask-2" fill="white">
                        <use xlink:href="#path-1"></use>
                    </mask>
                    <g id="Clip-6"></g>
                    <path d="M0.8165,27.6412 C0.8165,42.7512 13.0655,55.0002 28.1745,55.0002 C43.2855,55.0002 55.5345,42.7512 55.5345,27.6412 C55.5345,12.5312 43.2855,0.2822 28.1745,0.2822 C13.0655,0.2822 0.8165,12.5312 0.8165,27.6412" id="Fill-5" fill="#FFFFFF" mask="url(#mask-2)"></path>
                </g>
                <g id="Group-10" transform="translate(18.000000, 24.150600)">
                    <mask id="mask-4" fill="white">
                        <use xlink:href="#path-3"></use>
                    </mask>
                    <g id="Clip-9"></g>
                    <path d="M0.504,27.6412 C0.504,42.7512 12.753,55.0002 27.863,55.0002 C42.973,55.0002 55.222,42.7512 55.222,27.6412 C55.222,12.5312 42.973,0.2822 27.863,0.2822 C12.753,0.2822 0.504,12.5312 0.504,27.6412" id="Fill-8" fill="#FFFFFF" mask="url(#mask-4)"></path>
                </g>
                <mask id="mask-6" fill="white">
                    <use xlink:href="#path-5"></use>
                </mask>
                <g id="Clip-12"></g>
                <polygon id="Fill-11" fill="#FFFFFF" mask="url(#mask-6)" points="71.251 53.8796 90.129 53.8796 90.129 44.0686 71.251 44.0686"></polygon>
                <g id="Group-8" mask="url(#mask-6)" fill="#FFFFFF">
                    <g transform="translate(35.500400, 6.999900) rotate(20.000000) translate(-35.500400, -6.999900) translate(20.000400, -6.000100)">
                        <path d="M30.0827,17.329 C30.5897,11.596 30.7747,5.766 30.6357,-1.38555833e-13 L28.6357,0.049 C28.7737,5.74 28.5907,11.495 28.0907,17.153 L30.0827,17.329 Z" id="Fill-13"></path>
                        <polygon id="Fill-14" points="20.4342 18.0238 22.1612 17.0148 13.8202 2.7418 12.0932 3.7508"></polygon>
                        <path d="M13.61,25.9227 L14.85,24.3537 C13.971,23.6587 13.043,23.0247 12.089,22.3817 L1.117,14.9987 L-7.27418126e-13,16.6577 L10.971,24.0407 C11.892,24.6607 12.787,25.2717 13.61,25.9227" id="Fill-15"></path>
                    </g>
                </g>
                <path d="M126.2256,47.5393 C126.6626,45.8973 126.9206,44.0363 126.0296,42.5893 C124.8236,40.6343 121.8966,40.3503 119.8946,41.4773 C117.8936,42.6053 116.6776,44.7413 115.8486,46.8833 C115.7176,45.3523 115.5006,43.6493 114.3136,42.6733 C112.9866,41.5823 110.8406,41.9463 109.6606,43.1943 C108.4786,44.4423 108.1646,46.3253 108.4696,48.0163 C108.7746,49.7073 109.6206,51.2473 110.5176,52.7123 C112.6826,56.2463 115.6906,62.8603 120.0896,58.9663 C123.1646,56.2453 125.1946,51.4103 126.2256,47.5393" id="Fill-16" fill="#FF5958" mask="url(#mask-6)"></path>
                <path d="M53.4385,45.0471 C53.4825,44.4681 53.4995,43.8671 53.2855,43.3271 C53.0855,42.8221 52.7005,42.4121 52.2765,42.0741 C50.7995,40.9011 48.7335,40.5111 46.9315,41.0671 C45.1285,41.6231 43.6405,43.1091 43.0825,44.9101 C43.3435,43.0561 41.7115,41.2841 39.8615,41.0011 C39.1135,40.8861 38.2755,40.9971 37.7415,41.5321 C37.3775,41.8971 37.2045,42.4071 37.0885,42.9081 C36.0645,47.3441 38.7275,51.7091 41.2695,55.4861 C42.2645,56.9641 43.4035,59.9051 45.3775,59.8001 C46.8635,59.7221 48.7815,56.7521 49.5515,55.6681 C51.7585,52.5671 53.1585,48.8511 53.4385,45.0471" id="Fill-17" fill="#FF5958" mask="url(#mask-6)"></path>
            </g>
        </g>
    </g>
</svg>