<?xml version="1.0" encoding="UTF-8"?>
<svg width="1024px" height="245px" viewBox="0 0 1024 245" version="1.1" xmlns="http://www.w3.org/2000/svg" xmlns:xlink="http://www.w3.org/1999/xlink">
    <!-- Generator: Sketch 63.1 (92452) - https://sketch.com -->
    <title>Group 9</title>
    <desc>Created with Sketch.</desc>
    <g id="Landing_1" stroke="none" stroke-width="1" fill="none" fill-rule="evenodd">
        <g id="Desktop-Copy-11" transform="translate(0.000000, -2529.000000)">
            <g id="Group-9" transform="translate(-47.000000, 2529.000000)">
                <rect id="Rectangle-Copy-2" fill="#19038C" x="180" y="33" width="122" height="37" rx="18.5"></rect>
                <rect id="Rectangle-Copy-12" fill="#19038C" x="811" y="0" width="39" height="39" rx="19.5"></rect>
                <rect id="Rectangle-Copy-11" fill="#19038C" x="89" y="33" width="39" height="39" rx="19.5"></rect>
                <rect id="Rectangle-Copy-15" fill="#19038C" x="288" y="202" width="39" height="39" rx="19.5"></rect>
                <rect id="Rectangle-Copy-5" fill="#19038C" x="845" y="89" width="122" height="37" rx="18.5"></rect>
                <rect id="Rectangle-Copy-13" fill="#19038C" x="967" y="208" width="122" height="37" rx="18.5"></rect>
                <rect id="Rectangle-Copy-8" fill="#19038C" x="741" y="178" width="122" height="37" rx="18.5"></rect>
                <rect id="Rectangle-Copy-6" fill="#716DBB" x="906" y="89" width="122" height="37" rx="18.5"></rect>
                <rect id="Rectangle-Copy-14" fill="#746BC1" x="967" y="208" width="61" height="37" rx="18.5"></rect>
                <rect id="Rectangle-Copy-9" fill="#746BC1" x="740" y="178" width="39" height="39" rx="19.5"></rect>
                <rect id="Rectangle-Copy-3" fill="#19038C" x="0" y="143" width="243" height="37" rx="18.5"></rect>
                <rect id="Rectangle-Copy-3" fill="#746BC1" x="33" y="143" width="112" height="37" rx="18.5"></rect>
                <circle id="Oval" fill="#746BC1" cx="283" cy="52" r="19"></circle>
            </g>
        </g>
    </g>
</svg>