<?xml version="1.0" encoding="UTF-8"?>
<svg width="29px" height="29px" viewBox="0 0 29 29" version="1.1" xmlns="http://www.w3.org/2000/svg" xmlns:xlink="http://www.w3.org/1999/xlink">
    <!-- Generator: Sketch 63.1 (92452) - https://sketch.com -->
    <title>Combined Shape</title>
    <desc>Created with Sketch.</desc>
    <g id="Landing_1" stroke="none" stroke-width="1" fill="none" fill-rule="evenodd">
        <g id="Desktop-Copy-11" transform="translate(-776.000000, -3797.000000)" fill="#FFFFFF">
            <path d="M790.5,3797 C798.508129,3797 805,3803.49187 805,3811.5 C805,3819.50813 798.508129,3826 790.5,3826 C782.491871,3826 776,3819.50813 776,3811.5 C776,3803.49187 782.491871,3797 790.5,3797 Z M793.21875,3805.15625 L791.303634,3805.15625 C789.245382,3805.15625 788.316864,3806.05242 788.316864,3807.76878 L788.316864,3807.76878 L788.316864,3809.59818 L786.875,3809.59818 L786.875,3811.92422 L788.316864,3811.92422 L788.316864,3818.75 L791.083308,3818.75 L791.083308,3811.89494 L793.013037,3811.89494 L793.21875,3809.59818 L791.083308,3809.59818 L791.083308,3808.29173 C791.083308,3807.75099 791.193471,3807.53677 791.721805,3807.53677 L791.721805,3807.53677 L793.21875,3807.53677 L793.21875,3805.15625 Z" id="Combined-Shape"></path>
        </g>
    </g>
</svg>