<?xml version="1.0" encoding="UTF-8"?>
<svg width="106px" height="106px" viewBox="0 0 106 106" version="1.1" xmlns="http://www.w3.org/2000/svg" xmlns:xlink="http://www.w3.org/1999/xlink">
    <!-- Generator: Sketch 63.1 (92452) - https://sketch.com -->
    <title>fish</title>
    <desc>Created with Sketch.</desc>
    <defs>
        <circle id="path-1" cx="53" cy="53" r="53"></circle>
        <polygon id="path-3" points="0.000193722588 0.439695876 125.271958 0.439695876 125.271958 62 0.000193722588 62"></polygon>
        <polygon id="path-5" points="0.68323 0.218454545 16.52723 0.218454545 16.52723 8.19589091 0.68323 8.19589091"></polygon>
    </defs>
    <g id="Landing_1" stroke="none" stroke-width="1" fill="none" fill-rule="evenodd">
        <g id="Desktop-Copy-8" transform="translate(-878.000000, -125.000000)">
            <g id="fish" transform="translate(878.000000, 125.000000)">
                <mask id="mask-2" fill="white">
                    <use xlink:href="#path-1"></use>
                </mask>
                <use id="Oval-Copy-5" fill="#180060" fill-rule="evenodd" xlink:href="#path-1"></use>
                <g id="Group-77" stroke-width="1" fill-rule="evenodd" mask="url(#mask-2)">
                    <g transform="translate(19.000000, 18.000000)">
                        <g id="Group-3" stroke="none" stroke-width="1" fill="none" fill-rule="evenodd" transform="translate(0.000000, 7.000000)">
                            <mask id="mask-4" fill="white">
                                <use xlink:href="#path-3"></use>
                            </mask>
                            <g id="Clip-2"></g>
                            <path d="M1.196412,29.1958 C2.004492,27.7774438 3.230052,26.6580466 4.448052,25.5785671 C13.322652,17.709663 22.975932,10.5558822 33.829572,5.86426575 C44.683212,1.17264932 56.853972,-0.947241096 68.426652,1.40621096 C71.387652,2.00837534 94.095372,4.76525205 112.982772,17.9050055 C116.161332,20.1157726 119.391132,22.265389 122.364732,24.7530329 C123.490332,25.6957726 124.630212,26.7531699 125.071212,28.1630329 C126.014532,31.1789507 123.454212,34.0606767 121.124892,36.1737726 C111.212052,45.162074 100.921212,54.3788411 88.296012,58.659389 C80.550372,61.2863205 72.282252,61.9148137 64.112412,61.9921014 C57.231132,62.0566493 50.345652,61.7441014 43.497132,61.0578548 C40.382412,60.7453068 28.474572,57.3446493 25.733652,55.9322384 C19.728492,52.8381836 14.129052,49.1453616 8.830332,44.9488959 C4.119612,41.2178548 -2.802828,36.2128411 1.196412,29.1958" id="Fill-1" fill="#FF5958" mask="url(#mask-4)"></path>
                        </g>
                        <path d="M78.0443132,45.3885435 C77.6488293,42.4943901 79.9512923,39.5038473 82.9233621,39.0532063 C83.500463,38.9650553 84.1140571,38.9675268 84.6444807,39.2072646 C85.1350165,39.4297016 85.5109808,39.8342076 85.8496033,40.2444804 C87.1277121,41.7900061 88.1325467,43.6889595 87.9857254,45.665354 C87.5206499,51.9224263 78.8157613,51.0310303 78.0443132,45.3885435" id="Fill-4" stroke="none" fill="#FFFFFF" fill-rule="evenodd"></path>
                        <path d="M66.0221877,34.9038791 C65.8242566,33.588748 66.9760189,32.2293578 68.4618461,32.0238686 C68.7502345,31.9843514 69.0574309,31.9851418 69.3225332,32.0942091 C69.5679321,32.1953731 69.7551158,32.379523 69.9252829,32.566044 C70.5638572,33.2678687 71.0662979,34.1317138 70.9928574,35.0295436 C70.7608928,37.8739887 66.4081983,37.4685426 66.0221877,34.9038791" id="Fill-6" stroke="none" fill="#FFFFFF" fill-rule="evenodd"></path>
                        <path d="M98.6764727,51.9984389 C97.3020384,52.0209751 95.6066379,51.8125149 95.102149,50.5174857 C94.6135495,49.261895 95.9665331,47.7769175 97.2750264,48.0280356 C98.5835197,48.2799586 99.3478005,49.9420066 98.8433116,51.1911584" id="Fill-8" stroke="none" fill="#FFFFFF" fill-rule="evenodd"></path>
                        <path d="M89.0040551,31.5105535 C88.9878364,30.6447745 88.9955189,29.702883 89.5196381,29.018736 C90.2102121,28.1183604 91.4931944,28.02149 92.6174044,28.0007321 C96.7241429,27.9254845 100.08909,33.6693791 96.4407429,36.78134 C92.2657153,40.3421914 89.0740514,35.3395282 89.0040551,31.5105535" id="Fill-10" stroke="none" fill="#FFFFFF" fill-rule="evenodd"></path>
                        <path d="M66.0031452,52.8083648 C65.9905046,52.1150652 65.9968249,51.3624811 66.4044825,50.8149227 C66.9409158,50.094451 67.9387289,50.0170518 68.8140868,50.0005839 C72.0081951,49.940476 74.6247883,54.5358499 71.7869855,57.0249765 C68.539945,59.8739272 66.0576575,55.8713985 66.0031452,52.8083648" id="Fill-12" stroke="none" fill="#FFFFFF" fill-rule="evenodd"></path>
                        <path d="M42.8823692,43.5162644 C41.7961182,46.3141658 39.8828351,48.683106 38,51 C40.093502,50.8253935 41.8257432,49.3412382 43.4032759,47.9267576 C44.6022666,46.8514166 45.8391116,45.7248688 46.4637059,44.2264428 C46.9426439,43.0797482 47.0224668,41.8020986 46.9953106,40.5555089 C46.8949146,35.9855194 45.556028,31.1469045 43.7052866,27 C43.2979425,29.5947534 44.0221098,32.5983211 44.0690161,35.2358867 C44.1192141,38.0405037 43.9036097,40.8854145 42.8823692,43.5162644" id="Fill-14" stroke="none" fill="#FFFFFF" fill-rule="evenodd"></path>
                        <path d="M17,14 C15.3327688,12.6669809 13.6663844,11.3330191 12,10" id="Stroke-16" stroke="#FFFFFF" stroke-width="1" fill="none" stroke-linecap="round" stroke-linejoin="round"></path>
                        <path d="M20,11 C19.6664491,9.33305551 19.3335509,7.66694449 19,6" id="Stroke-18" stroke="#FFFFFF" stroke-width="1" fill="none" stroke-linecap="round" stroke-linejoin="round"></path>
                        <path d="M24,10 C24.5,6.99956083 24.5,6.99956083 25,4" id="Stroke-20" stroke="#FFFFFF" stroke-width="1" fill="none" stroke-linecap="round" stroke-linejoin="round"></path>
                        <path d="M2.0817961,41.6999142 C2.01529521,41.1153501 1.98934364,40.5255744 2.00394139,39.9375359 C2.00880731,39.7646856 2.01772817,39.5857551 2.09071695,39.4311453 C2.21804184,39.1601438 2.51648488,39.024643 2.80033016,39.0037968 C4.47015141,38.8839307 5.44414622,41.6321638 4.79941193,43.0088861 C3.77189201,45.2055617 2.26183511,43.2903108 2.0817961,41.6999142" id="Fill-22" stroke="none" fill="#180A86" fill-rule="evenodd"></path>
                        <path d="M34,33.5 C34,36.5380476 31.5374005,39 28.4995832,39 C25.4625995,39 23,36.5380476 23,33.5 C23,30.4619524 25.4625995,28 28.4995832,28 C31.5374005,28 34,30.4619524 34,33.5" id="Fill-24" stroke="none" fill="#F9FEFB" fill-rule="evenodd"></path>
                        <path d="M32,35 C32,36.1043354 31.1043354,37 30,37 C28.8956646,37 28,36.1043354 28,35 C28,33.8956646 28.8956646,33 30,33 C31.1043354,33 32,33.8956646 32,35" id="Fill-26" stroke="none" fill="#180A86" fill-rule="evenodd"></path>
                        <path d="M58,0 C56.0711344,0.26347359 54.1911893,0.725962399 52.4501435,1.53169203 C50.4007238,2.47923008 45.894796,6.51190689 44,9 C46.1455135,8.49077887 48.3154873,8.0782453 50.4994384,7.77126231 C50.8838138,6.68111012 51.662174,5.77708147 52.3898665,5.0003581 C54.0959691,3.18102059 55.9837764,1.51880036 58,0" id="Fill-28" stroke="none" fill="#F9FEFB" fill-rule="evenodd"></path>
                        <path d="M85.719245,4 C82.0629204,5.31285988 78.7303103,7.42162508 76,10.1616549 C78.2581905,10.6274259 80.8739423,11.2279804 83.7370362,12 C86.1054459,9.68394114 88.9277501,7.84986138 92,6.59671572 C89.9509655,5.63190446 87.8541983,4.76434208 85.719245,4" id="Fill-30" stroke="none" fill="#F9FEFB" fill-rule="evenodd"></path>
                        <path d="M84,3.63431989 C82.0284766,2.99824688 80.0270943,2.45209859 78.0049765,2 C74.4144318,3.36124575 71.2269837,5.80406311 69,8.91595339 C69.0588886,8.92750335 69.1177772,8.93657832 69.1766657,8.94812829 C69.9488526,9.1024028 72.0887476,9.40517686 75.1526127,10 C77.6267625,7.28658348 80.6541333,5.11931525 84,3.63431989" id="Fill-32" stroke="none" fill="#F9FEFB" fill-rule="evenodd"></path>
                        <path d="M100,10.5320636 C98.6771186,9.53302797 97.2635593,8.64030858 95.8508475,7.86065574 C95.3161017,7.56448891 94.7745763,7.280135 94.2313559,7 C91.1923729,8.04797493 88.3737288,9.70769045 86,11.8821119 C88.0957627,12.4887898 90.3033898,13.1899711 92.5830508,14 C92.8389831,13.7536162 93.1076271,13.5781099 93.2745763,13.4709499 C95.3398305,12.1495902 97.6211864,11.1632112 100,10.5320636" id="Fill-34" stroke="none" fill="#F9FEFB" fill-rule="evenodd"></path>
                        <path d="M106,21 C105.883156,19.951608 105.645745,18.9537519 105.320516,18 C104.514513,18.2425727 103.73679,18.6165391 103,19.0851455 C104.000248,19.6915773 105.00124,20.3274119 106,21" id="Fill-36" stroke="none" fill="#F9FEFB" fill-rule="evenodd"></path>
                        <path d="M75,0.545611015 C73.8787551,0.334767642 72.7533045,0.15232358 71.6236482,0 C71.5664504,0.0292598967 71.5134583,0.0645438898 71.4486902,0.0791738382 C67.2202596,1.04905336 63.4208123,3.74182444 61,7.40877797 C62.9464071,7.48881239 64.8886085,7.6858864 66.8165105,8 C68.8436674,4.85111876 71.710286,2.26419966 75,0.545611015" id="Fill-38" stroke="none" fill="#F9FEFB" fill-rule="evenodd"></path>
                        <path d="M101.346367,12 C98.750158,12.5519443 96.2451817,13.5513639 94,14.9556007 C96.3694313,15.8496808 98.7970774,16.8586767 101.244708,18 C102.403791,17.2661056 103.674092,16.7098085 105,16.34852 C104.068562,14.7440511 102.801738,13.295415 101.346367,12" id="Fill-40" stroke="none" fill="#F9FEFB" fill-rule="evenodd"></path>
                        <g id="Group-44" stroke="none" stroke-width="1" fill="none" fill-rule="evenodd" transform="translate(51.000000, 0.000000)">
                            <mask id="mask-6" fill="white">
                                <use xlink:href="#path-5"></use>
                            </mask>
                            <g id="Clip-43"></g>
                            <path d="M16.52723,0.409254545 C14.78813,0.283254545 13.04393,0.213709091 11.29973,0.218618182 C10.57553,0.220254545 9.84708,0.239890909 9.11863,0.273436364 C6.46748,2.11925455 4.02968,4.23834545 1.88768,6.62334545 C1.46013,7.09952727 1.01218,7.62643636 0.68323,8.19589091 C3.03178,7.9218 5.39138,7.78189091 7.74843,7.79334545 C9.77908,4.52634545 12.90368,1.92207273 16.52723,0.409254545" id="Fill-42" fill="#F9FEFB" mask="url(#mask-6)"></path>
                        </g>
                        <path d="M60,0 C59.0287889,0.0457097033 58.0600596,0.127506014 57.102912,0.265437049 C55.1935804,1.77626303 53.405857,3.43063352 51.7902052,5.24137931 C51.101092,6.01443464 50.3648246,6.91499599 50,8 C50.595632,7.91178829 51.1929186,7.83480353 51.7902052,7.76423416 C52.1095301,7.20689655 52.5463269,6.68965517 52.9624421,6.22293504 C55.0471542,3.8861267 57.4189279,1.80834002 60,0" id="Fill-45" stroke="none" fill="#BDBDEF" fill-rule="evenodd"></path>
                        <path d="M70.8315676,0.488643881 C70.89392,0.473649394 70.9449356,0.43660419 71,0.406615215 C69.7918213,0.232855568 68.578784,0.0996692393 67.3633174,0 C63.9120723,1.630871 60.9345435,4.43925028 59,7.96030871 C59.591133,7.96383682 60.182266,7.97442117 60.7725892,8 C63.1031109,4.24167585 66.7608476,1.48269019 70.8315676,0.488643881" id="Fill-47" stroke="none" fill="#BDBDEF" fill-rule="evenodd"></path>
                        <path d="M78,1.56579093 C77.10617,1.3565015 76.2072177,1.17115619 75.3057043,1 C71.9668607,2.77009201 69.0574311,5.43675867 67,8.68163175 C67.5779589,8.77740827 68.155064,8.88205299 68.7313155,9 C71.022662,5.65491631 74.3034536,3.02904334 78,1.56579093" id="Fill-49" stroke="none" fill="#BDBDEF" fill-rule="evenodd"></path>
                        <path d="M86,3.8 C85.2629375,3.52017167 84.5217619,3.25236052 83.774828,3 C80.4572241,4.54506438 77.4546814,6.8 75,9.6223176 C75.5643135,9.73733906 76.1615316,9.86351931 76.7875411,10 C79.3754861,7.24291845 82.5343255,5.12103004 86,3.8" id="Fill-51" stroke="none" fill="#BDBDEF" fill-rule="evenodd"></path>
                        <path d="M92.0706959,6 C89.069933,7.27333141 86.3133,9.13695464 84,11.4903207 C84.5798084,11.6532794 85.1672459,11.8223057 85.7665508,12 C88.1400356,9.76625253 90.9602441,8.06125397 94,6.98468651 C93.3617021,6.64576712 92.7183182,6.31724935 92.0706959,6" id="Fill-53" stroke="none" fill="#BDBDEF" fill-rule="evenodd"></path>
                        <path d="M99.4506243,11 C97.0610102,11.6121113 94.7692963,12.5687398 92.6946652,13.8502455 C92.526958,13.9541735 92.2570942,14.1243863 92,14.3633388 C92.5959137,14.5679214 93.1977866,14.7806874 93.8030647,15 C96.0019864,13.6808511 98.4562997,12.7405892 101,12.2217676 C100.502838,11.797054 99.985244,11.3895254 99.4506243,11" id="Fill-55" stroke="none" fill="#BDBDEF" fill-rule="evenodd"></path>
                        <path d="M101,18.3182766 C101.5289,18.5399583 102.058573,18.7665045 102.58902,19 C103.354533,18.6455872 104.162575,18.3627519 105,18.1792912 C104.810555,17.7748436 104.589407,17.3822099 104.341968,17 C103.161995,17.2890896 102.03151,17.7324531 101,18.3182766" id="Fill-57" stroke="none" fill="#BDBDEF" fill-rule="evenodd"></path>
                        <path d="M149,22.8987838 C148.978868,22.5748088 148.961962,22.2508339 148.93914,21.926859 C148.849539,20.6651519 148.717675,19.3188182 147.887605,18.3323616 C146.403285,16.568878 143.508185,16.81421 141.280015,17.5920917 C136.775492,19.1640966 133.005523,22.1491109 129.071567,24.7639903 C125.881463,26.8847865 122.690513,28.4260181 119,29.3312673 C120.17241,30.1903565 121.33045,31.0682516 122.447071,32 C125.019272,31.0810738 128.517906,29.9595564 132.177144,28.7867501 C138.22431,26.8488843 145.48277,24.5220776 149,22.8987838" id="Fill-59" stroke="none" fill="#F9FEFB" fill-rule="evenodd"></path>
                        <path d="M122,42.6502587 C130.38043,48.1044744 139.20119,52.9170178 148.291642,57 C148.558837,55.8224628 148.687024,54.5860487 148.74862,53.4272839 C148.860992,51.3102768 148.939236,49.1924164 149,47.0737027 C140.668681,44.4174177 132.112618,42.3806197 123.493295,41 C123.032155,41.581089 122.521904,42.1340195 122,42.6502587" id="Fill-61" stroke="none" fill="#F9FEFB" fill-rule="evenodd"></path>
                        <path d="M149,32.240819 C148.927877,29.8261293 148.81845,27.4122522 148.671718,25 C145.011705,26.5485863 138.726266,28.500975 132.592532,30.4062398 C129.42743,31.3893403 126.382531,32.3350666 124,33.1369841 C124.516464,33.6878453 124.946712,34.2980175 125.192924,35 C128.707862,34.5385115 132.475644,34.1387715 136.14975,33.7495938 C140.482077,33.2913552 144.928806,32.8176796 149,32.240819" id="Fill-63" stroke="none" fill="#F9FEFB" fill-rule="evenodd"></path>
                        <path d="M119,45.685907 C120.823366,47.2900381 122.647563,48.8941691 124.470929,50.4983001 C128.546052,54.0824013 132.666093,57.6987173 137.49901,60.3320694 C139.746608,61.5578832 142.491639,62.5730619 144.889797,61.629747 C146.431173,61.0226222 147.392766,59.8091987 148,58.3545773 C138.621977,54.2856023 129.52844,49.4690791 120.899894,44 C120.267705,44.5616937 119.636348,45.1242134 119,45.685907" id="Fill-65" stroke="none" fill="#F9FEFB" fill-rule="evenodd"></path>
                        <path d="M149.939047,34 C145.79358,34.5991752 141.299897,35.0904988 136.919173,35.567271 C133.158442,35.9764221 129.302589,36.3975566 125.716815,36.8828885 C125.647172,37.6549685 125.384736,38.4082173 125,39.1332192 C133.425124,40.5010505 141.78655,42.4689129 149.942444,45 C150.02058,41.333904 150.018882,37.666096 149.939047,34" id="Fill-67" stroke="none" fill="#F9FEFB" fill-rule="evenodd"></path>
                        <path d="M121.596569,42.7372491 C121.399398,42.9160532 121.198856,43.0948573 121,43.2728139 C129.740415,48.8835337 138.951851,53.8247974 148.45146,58 C148.681493,57.4449447 148.860126,56.8559928 149,56.2509401 C139.798676,52.1960701 130.869515,47.4158148 122.386097,42 C122.123202,42.2542238 121.858622,42.5008209 121.596569,42.7372491" id="Fill-69" stroke="none" fill="#BDBDEF" fill-rule="evenodd"></path>
                        <path d="M125.132128,39 C124.823905,39.600154 124.435239,40.1800682 124,40.7353426 C132.769126,42.1591684 141.472203,44.2605874 149.9475,47 C149.965283,46.3435266 149.987298,45.6879331 150,45.0314597 C141.869337,42.4284457 133.532063,40.4062259 125.132128,39" id="Fill-71" stroke="none" fill="#BDBDEF" fill-rule="evenodd"></path>
                        <path d="M150,33.9569931 C149.986656,33.3046621 149.968308,32.652331 149.94996,32 C145.854189,32.641489 141.380616,33.1673292 137.022136,33.6778099 C133.326685,34.1096856 129.536157,34.5542103 126,35.068305 C126.010842,35.1035417 126.025854,35.1351644 126.036696,35.1704012 C126.216006,35.7874955 126.265212,36.3982653 126.214338,37 C129.735483,36.4877123 133.52184,36.0431876 137.21479,35.6113119 C141.516558,35.1080593 145.929249,34.5894471 150,33.9569931" id="Fill-73" stroke="none" fill="#BDBDEF" fill-rule="evenodd"></path>
                        <path d="M150,24.8583855 C149.961499,24.2389237 149.919577,23.6186489 149.875943,23 C146.315926,24.542964 138.969168,26.7566052 132.848438,28.5995448 C129.144686,29.7140883 125.603492,30.7806682 123,31.6553939 C123.016256,31.667588 123.032512,31.6789692 123.048767,31.6911633 C123.56553,32.0976343 124.080582,32.5284936 124.536599,33 C126.9955,32.1968133 130.138,31.2513617 133.405412,30.2677018 C139.735756,28.3613527 146.222669,26.4070401 150,24.8583855" id="Fill-75" stroke="none" fill="#BDBDEF" fill-rule="evenodd"></path>
                    </g>
                </g>
            </g>
        </g>
    </g>
</svg>