<?xml version="1.0" encoding="UTF-8"?>
<svg width="106px" height="106px" viewBox="0 0 106 106" version="1.1" xmlns="http://www.w3.org/2000/svg" xmlns:xlink="http://www.w3.org/1999/xlink">
    <!-- Generator: Sketch 63.1 (92452) - https://sketch.com -->
    <title>wolf copy</title>
    <desc>Created with Sketch.</desc>
    <defs>
        <circle id="path-1" cx="53" cy="53" r="53"></circle>
        <polygon id="path-3" points="0 0.404263527 45.4132 0.404263527 45.4132 37.928 0 37.928"></polygon>
        <polygon id="path-5" points="0.76543373 0.044 45.1397853 0.044 45.1397853 43.8182 0.76543373 43.8182"></polygon>
    </defs>
    <g id="Landing_1" stroke="none" stroke-width="1" fill="none" fill-rule="evenodd">
        <g id="Desktop-Copy-10" transform="translate(-881.000000, -345.000000)">
            <g id="Gorilla" transform="translate(881.000000, 345.000000)">
                <g id="Group-9" stroke-width="1" fill-rule="evenodd"></g>
                <mask id="mask-2" fill="white">
                    <use xlink:href="#path-1"></use>
                </mask>
                <use id="Oval-Copy-7" fill="#180060" fill-rule="evenodd" xlink:href="#path-1"></use>
                <g id="Group-65" stroke-width="1" fill-rule="evenodd" mask="url(#mask-2)">
                    <g transform="translate(-105.000000, -38.000000)">
                        <path d="M288.0579,86.8484 C279.0879,69.8774 251.2809,25.2874 246.1159,23.0754 C240.9509,20.8624 231.5269,26.5074 228.0189,30.8974 C225.5619,33.9714 213.5899,41.6614 215.9969,44.7744 C224.8899,56.2674 268.1869,98.8174 254.8359,117.5654 C244.2249,132.4674 200.1319,122.9124 194.7809,114.4004 C192.2129,109.6664 193.4959,99.8704 193.8549,92.5924 C194.8969,71.4584 186.8249,66.9514 179.2599,62.6604 C171.0009,57.9734 161.2869,56.1644 151.9659,57.9784 C148.0529,58.7404 141.2779,59.6284 135.1959,70.2714 C127.7829,83.2444 125.0389,108.4244 117.4379,115.9774 C107.3009,123.8324 86.0109,127.2474 73.8429,113.0524 C50.2059,85.4764 43.2849,38.3604 43.2849,38.3604 C43.2849,38.3604 35.5359,41.0894 31.6619,42.4544 C31.1719,41.0154 29.1279,40.6774 27.8059,41.4264 C26.4839,42.1744 25.7269,43.6064 25.0389,44.9614 C23.0739,41.8554 17.3429,42.7964 16.4739,46.3684 C15.7769,45.5224 15.0799,44.6754 14.3829,43.8284 C11.7579,43.8824 10.0289,46.8464 10.1269,49.4694 C10.2259,52.0934 10.1229,56.7004 10.1229,56.7004 C10.1229,56.7004 20.5859,112.9284 42.3129,145.2794 C60.4129,172.2294 92.3779,181.5234 104.8069,180.1104 C105.2369,194.7554 121.5789,238.7954 122.1789,243.6054 C124.1209,259.1834 94.8519,263.7664 91.9249,279.1894 C90.9879,284.1314 89.1189,299.2094 86.3889,303.4354 C83.6609,307.6604 69.0559,302.0664 69.2239,309.0964 C78.6669,315.0564 87.7089,317.5274 98.4899,314.6124 C108.3159,315.1804 96.3369,291.2244 118.3329,282.0784 C141.4429,276.0014 190.1799,274.5274 209.3849,281.6584 C211.7209,290.4294 214.0579,299.2004 216.3949,307.9714 C216.9309,309.9864 217.4909,312.0504 218.7039,313.7464 C221.3419,317.4294 226.5549,318.4824 230.9689,317.4624 C235.3829,316.4424 242.8879,315.2424 242.8869,311.1254 C242.9509,305.5514 234.8669,307.1634 230.5069,306.2324 C231.0169,293.0374 230.6119,279.8084 229.2949,266.6694 C229.0019,263.7464 228.6449,260.7594 227.3399,258.1274 C222.5289,248.4224 208.9799,248.7494 198.5689,245.7574 C196.3879,245.1314 194.1329,244.2014 192.8509,242.3294 C191.4949,240.3474 205.2169,188.1174 205.2169,188.1174 C205.2169,188.1174 256.5809,168.8634 269.4789,160.1264 C288.9499,146.9374 295.3539,137.2554 297.2779,120.9444 C298.6789,109.0654 293.6469,97.4234 288.0579,86.8484" id="Fill-1" stroke="none" fill="#FF5958" fill-rule="evenodd"></path>
                        <g id="Group-5" stroke="none" stroke-width="1" fill="none" fill-rule="evenodd" transform="translate(0.000000, 23.956000)">
                            <mask id="mask-4" fill="white">
                                <use xlink:href="#path-3"></use>
                            </mask>
                            <g id="Clip-4"></g>
                            <path d="M12.5012,37.928 C10.8882,36.648 4.0812,26.443 2.2912,23.17 C1.2252,21.22 0.1752,19.173 0.0312,16.955 C-0.1118,14.737 0.1332,12.385 2.9242,11.409 C4.7702,10.813 5.8392,18.392 8.2302,17.046 C10.8662,15.672 7.3992,11.591 7.6582,9.99 C7.9172,8.388 9.0952,6.65 10.7092,6.805 C12.0492,6.934 12.8852,8.255 13.6692,9.348 C14.4542,10.44 16.3992,12.746 17.6262,12.191 C19.4182,11.23 15.9122,7.47 16.3012,5.725 C16.6892,3.98 18.3962,2.394 20.1332,2.812 C21.4662,3.134 22.2892,4.429 22.9942,5.605 C23.2192,5.978 24.5832,8.602 24.9972,8.735 C25.9392,9.037 26.8112,8.163 26.6862,7.182 C26.5622,6.2 24.7882,2.556 25.1242,1.625 C25.5862,0.343 27.4332,0.082 28.5992,0.789 C29.7662,1.495 30.4032,2.801 30.9802,4.037 C32.1282,6.496 33.2752,8.955 34.4242,11.415 C35.3842,13.473 37.4412,16.434 38.7132,14.285 C39.5402,11.823 37.0862,9.683 36.0372,6.714 C35.7112,5.792 35.3802,4.824 35.5252,3.857 C35.6702,2.891 36.4622,1.945 37.4382,1.987 C38.2712,2.023 38.9062,2.716 39.4182,3.372 C42.9222,7.867 45.4132,24.043 45.4132,24.043 L12.5012,37.928 Z" id="Fill-3" fill="#FFFFFF" mask="url(#mask-4)"></path>
                        </g>
                        <g id="Group-8" stroke="none" stroke-width="1" fill="none" fill-rule="evenodd" transform="translate(201.000000, 0.956000)">
                            <mask id="mask-6" fill="white">
                                <use xlink:href="#path-5"></use>
                            </mask>
                            <g id="Clip-7"></g>
                            <path d="M45.1155,22.1192 C45.6165,19.6902 38.2225,9.3382 36.1805,6.2152 C34.9645,4.3552 33.6545,2.4652 31.7665,1.2922 C29.8785,0.1192 27.6885,-0.7728 25.5115,1.2272 C24.1155,2.5732 30.2945,7.0912 27.9805,8.5642 C25.5255,10.2412 23.5605,5.2602 22.0275,4.7332 C20.4935,4.2062 18.4045,4.4242 17.7805,5.9212 C17.2615,7.1632 18.0325,8.5232 18.6265,9.7312 C19.2195,10.9382 20.3355,13.7412 19.2675,14.5602 C17.5755,15.6872 15.9135,10.8222 14.1905,10.3422 C12.4695,9.8622 10.2645,10.6182 9.8145,12.3482 C9.4695,13.6752 10.2235,15.0122 10.9275,16.1892 C11.1515,16.5622 12.8225,19.0032 12.7445,19.4312 C12.5655,20.4042 11.3855,20.7602 10.5775,20.1872 C9.7705,19.6152 7.3935,16.3322 6.4155,16.1892 C5.0655,15.9932 3.9655,17.4982 4.0385,18.8592 C4.1105,20.2212 4.9625,21.4002 5.7795,22.4912 C7.4065,24.6632 9.0345,26.8352 10.6615,29.0072 C12.0235,30.8252 13.6645,34.0352 11.1705,34.1422 C8.6085,33.7112 7.8795,30.5382 5.7565,28.2132 C5.0965,27.4912 4.3985,26.7432 3.4775,26.4142 C2.5565,26.0862 1.3495,26.3392 0.9265,27.2202 C0.5655,27.9702 0.8775,28.8572 1.2145,29.6182 C3.5255,34.8272 9.9555,41.1612 14.9975,43.8182 L45.1155,22.1192 Z" id="Fill-6" fill="#FFFFFF" mask="url(#mask-6)"></path>
                        </g>
                        <path d="M169.3567,115.1365 C168.7607,119.1945 167.0087,123.2395 163.7877,125.7785 C160.1667,128.6305 155.2717,129.2005 150.6627,129.204542 C148.9397,129.2065 147.1827,129.1385 145.5647,128.5485 C142.4417,127.4115 140.3077,124.5215 138.7447,121.5885 C136.1967,116.8045 134.7857,111.3395 135.3787,105.9525 C136.2747,97.8345 142.9297,96.6675 143.3707,93.8695 C143.6087,91.8295 141.2997,90.4765 141.4057,85.0345 C141.4637,82.0445 142.5347,78.8645 145.1037,77.3335 C147.9467,75.6385 151.5917,76.2895 154.6967,77.4385 C157.7997,78.5865 160.8367,80.2005 164.1447,80.3105 C167.0987,80.4085 170.0607,79.2865 172.9667,79.8265 C176.3017,80.4455 178.9987,83.3435 179.7077,86.6605 C180.4167,89.9775 179.2647,93.5555 177.0077,96.0885 C174.8377,98.5245 170.3247,100.1675 169.1567,103.2165 C168.0347,106.1435 169.8477,111.7945 169.3567,115.1365" id="Fill-9" stroke="none" fill="#FFFFFF" fill-rule="evenodd"></path>
                        <path d="M102.4641,311.6389 C96.9161,311.0289 92.0771,307.1409 86.9931,304.8369 C86.5401,304.6319 86.0791,304.4239 85.5881,304.3479 C85.0191,304.2589 84.4401,304.3499 83.8701,304.4319 C78.1401,305.2569 72.2771,305.1619 66.5771,304.1539 C66.1801,305.0609 66.6951,306.2529 67.6281,306.5849 C67.1451,306.4369 66.5571,306.3109 66.1851,306.6529 C65.8131,306.9959 66.2901,307.8279 66.6701,307.4939 C66.0091,307.7119 65.1911,308.3429 65.5891,308.9129 C65.6981,309.0699 65.8781,309.1589 66.0501,309.2419 C74.5801,313.3189 83.9311,315.6719 93.3741,316.1189 C95.1891,316.2049 97.0631,316.2119 98.7501,315.5399 C100.4391,314.8679 102.3411,313.4509 102.4641,311.6389" id="Fill-11" stroke="none" fill="#FFFFFF" fill-rule="evenodd"></path>
                        <path d="M228.6331,307.7354 C229.2391,307.3974 229.8541,307.0554 230.5241,306.8724 C231.1141,306.7104 231.7331,306.6764 232.3451,306.6434 C236.9151,306.3964 241.4861,306.1504 246.0571,305.9034 C246.6321,305.8724 247.4721,306.3634 247.0561,306.7614 C247.5711,306.7164 248.0871,306.6714 248.6031,306.6264 C248.7521,307.3334 248.4811,308.1124 247.9261,308.5744 C248.5201,308.3634 249.1041,309.0924 249.0021,309.7144 C248.9001,310.3374 248.3821,310.7984 247.8771,311.1754 C244.8621,313.4334 241.2081,314.6374 237.6141,315.7664 C234.8351,316.6394 232.0291,317.4944 229.1341,317.8244 C226.9651,318.0714 224.7221,318.0134 222.6661,317.2784 C220.6861,316.5714 216.6931,314.1694 219.5511,312.3184 C222.3111,310.5314 225.7311,309.3514 228.6331,307.7354" id="Fill-13" stroke="none" fill="#FFFFFF" fill-rule="evenodd"></path>
                        <path d="M147.9573,94.8623 C149.0183,94.7213 150.1153,94.5823 151.1413,94.8843 C152.1673,95.1853 153.1083,96.0513 153.1433,97.1203 C155.3463,96.0133 158.3193,96.8053 159.6803,98.8613" id="Stroke-17" stroke="#BDBDEF" stroke-width="1" fill="none" stroke-linecap="round" stroke-linejoin="round"></path>
                        <path d="M148.8655,102.6953 C148.8465,102.7973 148.8225,102.9043 148.7545,102.9823 C148.6845,103.0603 148.5815,103.0973 148.4795,103.1223 C147.3405,103.4043 146.2065,102.4793 145.7345,101.4033 C145.2455,100.2893 145.3285,96.0103 147.2535,96.9053 C148.8685,97.6563 149.1325,101.2693 148.8655,102.6953" id="Fill-19" stroke="none" fill="#180A86" fill-rule="evenodd"></path>
                        <path d="M153.8186,104.8218 C153.7876,104.9208 153.7566,105.0258 153.7806,105.1268 C153.8036,105.2288 153.8786,105.3108 153.9556,105.3808 C154.8256,106.1698 156.2616,105.8948 157.1876,105.1718 C158.1476,104.4238 160.1066,100.6188 157.9876,100.4918 C156.2096,100.3858 154.2606,103.4398 153.8186,104.8218" id="Fill-21" stroke="none" fill="#180A86" fill-rule="evenodd"></path>
                        <path d="M132.0862,160.2573 C132.0862,161.5813 131.0132,162.6543 129.6892,162.6543 C128.3642,162.6543 127.2912,161.5813 127.2912,160.2573 C127.2912,158.9333 128.3642,157.8603 129.6892,157.8603 C131.0132,157.8603 132.0862,158.9333 132.0862,160.2573" id="Fill-23" stroke="none" fill="#BDBDEF" fill-rule="evenodd"></path>
                        <path d="M184.4788,160.2573 C184.4788,161.5813 183.4048,162.6543 182.0808,162.6543 C180.7568,162.6543 179.6828,161.5813 179.6828,160.2573 C179.6828,158.9333 180.7568,157.8603 182.0808,157.8603 C183.4048,157.8603 184.4788,158.9333 184.4788,160.2573" id="Fill-25" stroke="none" fill="#BDBDEF" fill-rule="evenodd"></path>
                        <path d="M155.8577,215.1152 C155.3157,215.2422 154.7427,214.9172 154.4357,214.4512 C154.1297,213.9862 154.0457,213.4102 154.0307,212.8532 C154.0077,212.0042 154.2487,210.9942 155.0447,210.6972 C155.6347,210.4772 156.3287,210.7752 156.7177,211.2712 C157.1077,211.7682 157.2447,212.4182 157.2827,213.0482 C157.3147,213.5742 157.2787,214.1312 156.9997,214.5782 C156.7197,215.0242 156.1357,215.3162 155.6477,215.1172" id="Fill-27" stroke="none" fill="#BDBDEF" fill-rule="evenodd"></path>
                        <path d="M162.929,109.9412 C161.097,112.9282 157.338,114.1102 153.849,114.4232 C147.696,114.9752 141.377,113.5102 136.095,110.3042" id="Stroke-29" stroke="#180A86" stroke-width="1" fill="none" stroke-linecap="round" stroke-linejoin="round"></path>
                        <path d="M158.5305,55.5684 C158.0665,56.2314 157.6145,56.8604 157.1815,57.4374 C156.9185,57.7904 156.6405,58.1844 156.6745,58.6234 C156.6975,58.9504 156.8915,59.2374 157.0885,59.4994 C159.1165,62.2194 162.0245,64.1694 165.2215,65.3534 C163.2325,63.6594 159.6215,60.0684 158.5305,55.5684" id="Fill-31" stroke="none" fill="#BDBDEF" fill-rule="evenodd"></path>
                        <path d="M180.3723,55.3171 C180.3533,53.7901 180.3213,52.1921 180.2683,50.5751 C177.7063,49.5701 175.3303,47.7901 173.3713,45.3791 C171.9213,43.5931 170.7033,41.4591 169.6513,38.9401 C168.9703,39.8821 168.2693,40.8861 167.5603,41.9321 C169.1553,44.5581 170.8413,47.1841 172.8583,49.5021 C175.1983,52.1901 177.7223,54.1361 180.3723,55.3171" id="Fill-33" stroke="none" fill="#BDBDEF" fill-rule="evenodd"></path>
                        <path d="M180.2141,49.0813 C180.1421,47.2953 180.0421,45.5153 179.9081,43.8153 C178.0991,42.9383 176.4101,41.5793 174.8931,39.7073 C173.8621,38.4353 172.9961,37.0433 172.2041,35.6483 C171.6891,36.2553 171.1541,36.9273 170.6041,37.6543 C171.6721,40.3923 172.9211,42.6603 174.4311,44.5193 C176.0981,46.5713 178.0801,48.1293 180.2141,49.0813" id="Fill-35" stroke="none" fill="#BDBDEF" fill-rule="evenodd"></path>
                        <path d="M178.6995,35.5586 C178.2535,33.9176 177.6955,32.7946 176.9945,32.4766 C176.7505,32.3656 176.4755,32.3496 176.1785,32.4076 C176.7575,33.6386 177.6225,34.7266 178.6995,35.5586" id="Fill-37" stroke="none" fill="#BDBDEF" fill-rule="evenodd"></path>
                        <path d="M166.3196,60.3914 C164.2876,57.9834 162.5756,55.1144 161.1286,51.7244 C160.6186,52.4974 160.1176,53.2514 159.6286,53.9734 C160.1976,58.9944 164.8226,63.5164 167.3426,65.2954 C167.7836,65.6064 168.4466,66.0084 169.1716,66.4094 C170.8236,66.7154 173.1156,67.0334 175.3256,67.0614 C172.0066,65.7224 168.8956,63.4434 166.3196,60.3914" id="Fill-39" stroke="none" fill="#BDBDEF" fill-rule="evenodd"></path>
                        <path d="M179.7688,42.2283 C179.6018,40.4943 179.3938,38.8793 179.1338,37.4813 C179.0738,37.4513 179.0058,37.4263 178.9498,37.3943 C177.2058,36.3953 175.7778,34.8253 174.9198,33.0033 C174.3788,33.3803 173.7898,33.9143 173.1618,34.5773 C173.9828,36.0523 174.8848,37.5293 175.9538,38.8473 C177.1338,40.3053 178.4128,41.4373 179.7688,42.2283" id="Fill-41" stroke="none" fill="#BDBDEF" fill-rule="evenodd"></path>
                        <path d="M164.0462,47.2493 C163.3662,48.2943 162.6922,49.3343 162.0262,50.3533 C163.4932,53.9923 165.2532,57.0123 167.3622,59.5123 C170.5922,63.3383 174.6922,65.8773 178.9482,66.7303 C179.4422,66.6073 179.9022,66.4543 180.2922,66.2483 C180.2922,66.2483 180.3172,65.3873 180.3442,63.9583 C178.9742,63.8883 177.7082,63.2063 176.6252,62.4933 C170.9992,58.7913 166.6082,53.4463 164.0462,47.2493" id="Fill-43" stroke="none" fill="#BDBDEF" fill-rule="evenodd"></path>
                        <path d="M171.8294,50.3972 C169.8824,48.1602 168.2504,45.6752 166.7214,43.1792 C166.1424,44.0462 165.5584,44.9312 164.9754,45.8232 C167.3714,52.1482 171.7094,57.6242 177.3754,61.3542 C178.2824,61.9512 179.3214,62.5332 180.3654,62.6042 C180.3864,61.0192 180.3994,59.0212 180.3854,56.8032 C177.3424,55.5722 174.4664,53.4272 171.8294,50.3972" id="Fill-45" stroke="none" fill="#BDBDEF" fill-rule="evenodd"></path>
                        <path d="M159.6282,53.9734 C159.2552,54.5254 158.8892,55.0564 158.5302,55.5684 C159.6212,60.0684 163.2322,63.6594 165.2222,65.3534 C166.3032,65.7534 167.4162,66.0674 168.5402,66.2924 C168.7282,66.3294 168.9592,66.3694 169.1712,66.4094 C168.4462,66.0084 167.7832,65.6064 167.3432,65.2954 C164.8222,63.5164 160.1972,58.9944 159.6282,53.9734" id="Fill-47" stroke="none" fill="#FFFFFF" fill-rule="evenodd"></path>
                        <path d="M167.3626,59.512 C165.2536,57.012 163.4936,53.992 162.0266,50.353 C161.7246,50.815 161.4256,51.273 161.1286,51.724 C162.5756,55.115 164.2876,57.983 166.3196,60.391 C168.8956,63.444 172.0066,65.723 175.3256,67.062 C176.6306,67.078 177.8886,66.994 178.9486,66.73 C174.6916,65.878 170.5916,63.339 167.3626,59.512" id="Fill-49" stroke="none" fill="#FFFFFF" fill-rule="evenodd"></path>
                        <path d="M164.9758,45.8228 C164.6658,46.2978 164.3558,46.7738 164.0458,47.2498 C166.6078,53.4458 170.9988,58.7918 176.6248,62.4928 C177.7078,63.2068 178.9738,63.8888 180.3438,63.9578 C180.3518,63.5518 180.3588,63.0978 180.3658,62.6038 C179.3218,62.5328 178.2828,61.9518 177.3748,61.3538 C171.7088,57.6248 167.3718,52.1478 164.9758,45.8228" id="Fill-51" stroke="none" fill="#FFFFFF" fill-rule="evenodd"></path>
                        <path d="M172.8587,49.502 C170.8407,47.184 169.1557,44.558 167.5607,41.932 C167.2817,42.343 167.0027,42.758 166.7207,43.179 C168.2507,45.675 169.8817,48.16 171.8297,50.397 C174.4657,53.427 177.3417,55.572 180.3847,56.803 C180.3827,56.317 180.3787,55.822 180.3727,55.317 C177.7217,54.136 175.1987,52.19 172.8587,49.502" id="Fill-53" stroke="none" fill="#FFFFFF" fill-rule="evenodd"></path>
                        <path d="M180.2688,50.5747 C180.2528,50.0777 180.2348,49.5797 180.2138,49.0817 C178.0808,48.1297 176.0978,46.5707 174.4308,44.5187 C172.9208,42.6597 171.6718,40.3927 170.6038,37.6537 C170.2908,38.0667 169.9728,38.4967 169.6518,38.9397 C170.7038,41.4587 171.9208,43.5927 173.3718,45.3797 C175.3308,47.7897 177.7058,49.5697 180.2688,50.5747" id="Fill-55" stroke="none" fill="#FFFFFF" fill-rule="evenodd"></path>
                        <path d="M179.9085,43.8154 C179.8655,43.2764 179.8185,42.7484 179.7685,42.2284 C178.4125,41.4374 177.1345,40.3054 175.9535,38.8474 C174.8855,37.5294 173.9825,36.0524 173.1615,34.5764 C172.8515,34.9034 172.5315,35.2644 172.2045,35.6484 C172.9965,37.0434 173.8625,38.4354 174.8925,39.7074 C176.4105,41.5794 178.0985,42.9384 179.9085,43.8154" id="Fill-57" stroke="none" fill="#FFFFFF" fill-rule="evenodd"></path>
                        <path d="M178.9495,37.394 C179.0065,37.426 179.0735,37.451 179.1345,37.482 C179.0035,36.78 178.8575,36.14 178.6995,35.559 C177.6225,34.727 176.7575,33.638 176.1785,32.407 C175.7985,32.481 175.3765,32.686 174.9205,33.003 C175.7775,34.825 177.2055,36.395 178.9495,37.394" id="Fill-59" stroke="none" fill="#FFFFFF" fill-rule="evenodd"></path>
                        <path d="M161.4026,89.249 C161.2996,90.001 161.1976,90.774 161.3676,91.514 C161.5376,92.254 162.0406,92.967 162.7736,93.164 C163.6766,93.406 164.6316,92.781 165.0796,91.959 C165.5266,91.138 165.5876,90.168 165.6376,89.234" id="Stroke-61" stroke="#180A86" stroke-width="1" fill="none" stroke-linecap="round" stroke-linejoin="round"></path>
                        <path d="M146.9016,86.1108 C146.7986,86.8628 146.6966,87.6348 146.8666,88.3758 C147.0366,89.1158 147.5396,89.8288 148.2726,90.0258 C149.1756,90.2678 150.1306,89.6428 150.5786,88.8208 C151.0256,87.9998 151.0866,87.0298 151.1356,86.0958" id="Stroke-63" stroke="#180A86" stroke-width="1" fill="none" stroke-linecap="round" stroke-linejoin="round"></path>
                    </g>
                </g>
            </g>
        </g>
    </g>
</svg>