<svg xmlns="http://www.w3.org/2000/svg" xmlns:xlink="http://www.w3.org/1999/xlink" width="71" height="27" viewBox="0 0 71 27">
    <defs>
        <path id="prefix__a" d="M0 0.052L9.986 0.052 9.986 17.861 0 17.861z"/>
        <path id="prefix__c" d="M0 0.052L9.986 0.052 9.986 16.86 0 16.86z"/>
    </defs>
    <g fill="none" fill-rule="evenodd">
        <g transform="translate(0 9)">
            <mask id="prefix__b" fill="#fff">
                <use xlink:href="#prefix__a"/>
            </mask>
            <path fill="#FFF" d="M4.993 17.861C2.247 17.861 0 15.624 0 12.889V5.024C0 2.289 2.247.052 4.993.052c2.746 0 4.993 2.237 4.993 4.972v7.865c0 2.735-2.247 4.972-4.993 4.972" mask="url(#prefix__b)" opacity=".4"/>
        </g>
        <mask id="prefix__d" fill="#fff">
            <use xlink:href="#prefix__c"/>
        </mask>
        <path fill="#FFF" d="M4.993 16.86C2.247 16.86 0 14.63 0 11.901v-6.89C0 2.285 2.247.053 4.993.053c2.746 0 4.993 2.232 4.993 4.96V11.9c0 2.728-2.247 4.96-4.993 4.96" mask="url(#prefix__d)"/>
        <path fill="#FFF" d="M45 26c-2.75 0-5-2.203-5-4.896V4.896C40 2.203 42.25 0 45 0s5 2.203 5 4.896v16.208C50 23.797 47.75 26 45 26M18 26c-2.75 0-5-2.203-5-4.896V4.896C13 2.203 15.25 0 18 0s5 2.203 5 4.896v16.208C23 23.797 20.75 26 18 26M31 26c-2.75 0-5-2.203-5-4.896V4.896C26 2.203 28.25 0 31 0s5 2.203 5 4.896v16.208C36 23.797 33.75 26 31 26" opacity=".4"/>
        <path fill="#FFF" fill-rule="nonzero" d="M13.002 4.76c.074-2.702 2.324-4.832 5.026-4.758l.1.003c.16.007.358.02.59.043.424.041.883.105 1.37.198 1.395.264 2.796.711 4.148 1.406C28.366 3.773 31 7.688 31 13.106 31 15.81 28.809 18 26.106 18c-2.676 0-4.85-2.147-4.893-4.813v-.08c0-1.572-.446-2.234-1.45-2.749-.443-.228-.967-.395-1.497-.496-.16-.03-.305-.051-.43-.065l-.101-.01-.034-.003-.103-.005c-2.624-.157-4.669-2.371-4.596-5.02zM44.794 0C52.088 0 58 6.044 58 13.5S52.088 27 44.794 27C42.147 27 40 24.806 40 22.099c0-2.68 2.104-4.858 4.715-4.901h.08c1.997 0 3.616-1.656 3.616-3.698 0-2.02-1.585-3.662-3.554-3.697h-.063C42.147 9.803 40 7.608 40 4.9 40 2.194 42.147 0 44.794 0z"/>
        <path fill="#FFF" d="M61 21.975v-7.95C61 11.261 63.25 9 66 9s5 2.261 5 5.025v7.95C71 24.739 68.75 27 66 27s-5-2.261-5-5.025z" opacity=".4"/>
        <path fill="#FFF" d="M66 17c-2.75 0-5-2.257-5-5.016V5.016C61 2.257 63.25 0 66 0s5 2.257 5 5.016v6.968C71 14.743 68.75 17 66 17"/>
    </g>
</svg>
