<svg xmlns="http://www.w3.org/2000/svg" xmlns:xlink="http://www.w3.org/1999/xlink" width="89" height="233" viewBox="0 0 89 233">
    <defs>
        <path id="prefix__a" d="M0 0.371L225.783 0.371 225.783 232 0 232z"/>
    </defs>
    <g fill="none" fill-rule="evenodd">
        <g transform="translate(0 1)">
            <mask id="prefix__b" fill="#fff">
                <use xlink:href="#prefix__a"/>
            </mask>
            <path fill="#FF5958" d="M225.67 195.544c-1.532.156-9.869-5.802-17.824-13.092-7.955-7.29-4.566-26.581-13.73-49.297-7.137-17.697-17.922-30.496-29.288-30.862-.206-.237-35.923-2.473-57.24-3.787-4.938-15.94-12.099-63.505-14.458-64.793-2.359-1.287-10.228 4.203-15.342 6.305-.71.292-1.447.588-2.212.569-.735-.02-1.426-.327-2.096-.63-4.177-1.888-8.357-3.775-12.532-5.663.244-4.688 1.02-12.454-.782-14.033-1.8-1.578-9.519 8.285-14.279 12.428-8.498-1.683-16.359-6.734-22.936-12.392-6.576-5.659-12.245-12.284-18.239-18.56C3.93.92 2.83.037 1.798.5.899.9.69 2.065.616 3.052c-.642 8.586-.276 17.25 1.088 25.75-2.302.887-1.904 4.27-.943 6.549 2.892 6.862 7.017 13.116 11.117 19.328l15.76 23.872c.868 1.314 1.928 24.308 3.07 54.024l-.189.107c1.514 41.075 3.158 90.544 4.547 95.735 1.505.759 5.186 2.099 6.29.823 1.107-1.275 1.578-2.97 1.959-4.617 2.177-9.43 5.462-57.443 10.884-57.19 5.42.251 6.976 15.059 7.095 19.807.209 8.365-.267 19.471-1.422 27.759-.437 3.136-.969 7.71-.297 10.803.674 3.094 6.29 6.57 10.062 5.266 3.77-1.303 2.325-37.115 6.706-53.797.493-1.877 1.112-3.76 2.26-5.322 1.553-2.114 54.068-3.086 58.424.701 6.282 5.464 6.417 37.936 6.617 45.468.074 2.802.185 8.321 1.497 10.795s8.218 1.995 9.678.826c1.457-1.168-.935-34.067 1.379-50.923.45-3.273 1.995-7.43 5.28-7.23 3.414.209 4.327 4.818 4.108 8.245-1.136 17.894 1.566 28.27 1.333 47.668-.025 2.088 2.095 3.918 4.119 4.401 2.223.532 4.5-1.132 5.462-3.213.963-2.082.93-4.47.878-6.765-.32-14.377-.638-23.31-.959-37.687-.07-3.207-.14-6.414-.212-9.622l-.147-6.588c-.287-12.883-.572-25.767-1.203-38.635-.17-3.471 5.684 3.846 7.22 27.658 1.539 23.812 5.445 37.02 18.183 43.987 12.737 6.969 26.94-5.646 25.41-5.49" mask="url(#prefix__b)"/>
        </g>
        <path fill="#180A86" d="M80.738 45.016c-.472-.345-.95-.913-.638-1.38l8.597-3.635c.137-.06.346 3.77.295 4.142-.136 1.024-.392 3.162-1.503 3.727-1.495.76-5.627-2.03-6.751-2.854M49.192 32.716c-.095-.07-.197-.161-.192-.278.004-.103.09-.182.166-.248 2.166-1.848 4.428-3.581 6.771-5.19.23 1.183-.208 2.39-.745 3.463-.403.8-1.06 3.11-1.82 3.431-1.03.436-3.357-.577-4.18-1.178M3.96 38.967c-1.559-1.784-3.9-8.053.926-5.261 3.543 2.051 2.219 8.863-.927 5.26"/>
        <path fill="#FFF" d="M40.77 137c-.479 0-.92-.267-1.144-.696l-5.478-10.503c-.332-.636-.087-1.422.545-1.755.632-.334 1.413-.089 1.744.547l4.225 8.1 6.49-14.993c.182-.421.57-.715 1.023-.77.459-.062.902.13 1.184.493 2.136 2.775 4.125 5.697 5.934 8.713l9.36-24.294c.145-.38.46-.669.85-.78.389-.112.809-.034 1.132.211 1.778 1.347 3.414 2.875 4.883 4.557 3-6.707 4.039-14.285 2.92-21.557-.076-.49.132-.98.537-1.263.402-.285.933-.314 1.365-.074 1.136.629 2.188 1.385 3.14 2.257 2.298-5.616 3.275-11.73 2.83-17.797-.052-.717.483-1.34 1.194-1.393.69-.05 1.33.485 1.384 1.201.525 7.143-.799 14.344-3.826 20.825-.187.398-.56.675-.994.735-.442.06-.87-.105-1.154-.437-.488-.568-1.017-1.093-1.584-1.573.61 7.573-.911 15.309-4.378 22.065-.203.394-.592.658-1.03.698-.437.04-.87-.148-1.14-.499-1.29-1.68-2.75-3.216-4.355-4.585l-9.693 25.16c-.181.47-.616.792-1.114.829-.505.036-.974-.223-1.218-.66-1.733-3.099-3.667-6.113-5.764-8.983l-6.682 15.44c-.198.459-.641.761-1.139.78l-.046.001M38.5 111c-.83 0-1.5-.533-1.5-1.19v-5.62c0-.657.67-1.19 1.5-1.19s1.5.533 1.5 1.19v5.62c0 .657-.67 1.19-1.5 1.19"/>
        <path fill="#FFF" d="M45.5 112c-.83 0-1.5-.572-1.5-1.277v-3.446c0-.705.67-1.277 1.5-1.277s1.5.572 1.5 1.277v3.446c0 .705-.67 1.277-1.5 1.277M53.49 105c-.304 0-.61-.081-.877-.252-.665-.426-.813-1.247-.326-1.832.565-.684.826-1.59.695-2.424-.113-.718.458-1.38 1.274-1.479.816-.102 1.568.403 1.682 1.12.238 1.514-.215 3.09-1.24 4.328-.293.353-.746.539-1.207.539M49.302 97c-.082 0-.167-.008-.25-.024-.706-.134-1.166-.8-1.027-1.487.34-1.687.447-3.414.324-5.133-.052-.698.488-1.303 1.203-1.352.735-.052 1.34.476 1.391 1.172.142 1.942.018 3.894-.366 5.8-.12.605-.664 1.024-1.275 1.024M42.5 93c-.83 0-1.5-.607-1.5-1.355v-3.29c0-.748.67-1.355 1.5-1.355s1.5.607 1.5 1.355v3.29c0 .748-.67 1.355-1.5 1.355M60.4 91c-.218 0-.438-.04-.645-.128-.686-.288-.953-.973-.598-1.529.803-1.25 1.16-2.71 1.01-4.11-.067-.624.502-1.174 1.272-1.228.769-.057 1.45.407 1.517 1.03.197 1.825-.27 3.725-1.312 5.354-.25.388-.74.611-1.245.611M56.66 83c-.308 0-.619-.073-.896-.227-.772-.429-.996-1.316-.501-1.983.285-.385.433-.85.417-1.31-.03-.792.689-1.455 1.605-1.48.868-.024 1.685.596 1.712 1.389.04 1.035-.296 2.08-.938 2.95-.317.427-.854.661-1.4.661M34.5 89c-.83 0-1.5-.53-1.5-1.184v-4.632c0-.655.67-1.184 1.5-1.184s1.5.53 1.5 1.184v4.632C36 88.47 35.33 89 34.5 89M69.478 82c-.212 0-.426-.038-.63-.119-.738-.292-1.055-1.028-.706-1.646.831-1.476 1.1-3.172.751-4.778-.143-.672.39-1.315 1.194-1.437.796-.12 1.574.325 1.718.997.456 2.108.106 4.336-.989 6.274-.253.447-.784.709-1.338.709M46.617 83c-.098 0-.199-.008-.299-.022-.877-.135-1.455-.823-1.29-1.54l.769-3.362c.168-.716 1.006-1.188 1.886-1.053.875.134 1.455.823 1.289 1.539l-.77 3.362c-.144.634-.823 1.076-1.585 1.076"/>
        <path fill="#180A86" d="M52.276 55c-.14 0-.284-.007-.43-.022-1.44-.152-2.876-1.064-3.657-2.325-1.276-2.063-1.216-4.666-1.17-6.565.013-.615.53-1.106 1.092-1.087.59.014 1.057.525 1.041 1.141-.048 2.087-.018 3.926.83 5.3.435.701 1.27 1.23 2.076 1.314.367.04.878 0 1.254-.403.624-.67.57-1.812.508-3.133-.04-.857-.083-1.743.06-2.623.097-.607.65-1.016 1.23-.915.58.103.972.679.875 1.286-.103.64-.069 1.369-.032 2.141.076 1.611.163 3.436-1.113 4.802-.663.71-1.561 1.089-2.564 1.089"/>
        <path fill="#FFF" d="M.416 2.08C.567 1.23.925.248 1.764.039c.669-.167 1.334.249 1.873.677 1.03.821 1.957 1.77 2.752 2.82.282.372.557.78.604 1.245.065.637-.328 1.256-.858 1.612-.532.355-1.182.487-1.819.545-.945.087-3.473.22-4.084-.666-.547-.792.025-3.292.184-4.19"/>
    </g>
</svg>
