<?xml version="1.0" encoding="UTF-8"?>
<svg width="333px" height="260px" viewBox="0 0 333 260" version="1.1" xmlns="http://www.w3.org/2000/svg" xmlns:xlink="http://www.w3.org/1999/xlink">
    <!-- Generator: Sketch 63.1 (92452) - https://sketch.com -->
    <title>Group 5</title>
    <desc>Created with Sketch.</desc>
    <defs>
        <filter x="-15.2%" y="-21.4%" width="130.4%" height="142.8%" filterUnits="objectBoundingBox" id="filter-1">
            <feOffset dx="2" dy="2" in="SourceAlpha" result="shadowOffsetOuter1"></feOffset>
            <feGaussianBlur stdDeviation="10" in="shadowOffsetOuter1" result="shadowBlurOuter1"></feGaussianBlur>
            <feColorMatrix values="0 0 0 0 0   0 0 0 0 0   0 0 0 0 0  0 0 0 0.5 0" type="matrix" in="shadowBlurOuter1" result="shadowMatrixOuter1"></feColorMatrix>
            <feMerge>
                <feMergeNode in="shadowMatrixOuter1"></feMergeNode>
                <feMergeNode in="SourceGraphic"></feMergeNode>
            </feMerge>
        </filter>
        <polygon id="path-2" points="0 200.523697 282.656221 200.523697 282.656221 0.0261966825 0 0.0261966825"></polygon>
    </defs>
    <g id="Landing_1" stroke="none" stroke-width="1" fill="none" fill-rule="evenodd">
        <g id="Desktop-Copy-9" transform="translate(-483.000000, -2091.000000)">
            <g id="Group-5" transform="translate(501.000000, 2092.000000)">
                <rect id="Rectangle-Copy-16" stroke="#FFFFFF" fill="#19038C" x="31" y="0" width="283" height="201"></rect>
                <rect id="Rectangle-Copy-17" stroke="#FFFFFF" fill="#19038C" x="16" y="17" width="283" height="201"></rect>
                <g id="Group-140" filter="url(#filter-1)" transform="translate(0.000000, 37.000000)">
                    <polygon id="Fill-1" fill="#FFFFFF" points="0 199.97449 283 199.97449 283 0 0 0"></polygon>
                    <polygon id="Fill-2" fill="#CDCBF7" points="6.15217391 193.821429 275.822464 193.821429 275.822464 7.17857143 6.15217391 7.17857143"></polygon>
                    <g id="Group-83" transform="translate(129.195652, 30.765306)">
                        <path d="M4.41497929,30.8388665 C0.27887277,26.0691862 -1.23319096,19.2780201 1.38563128,13.6880611 C3.59250395,8.97680249 8.44999681,5.67003944 13.6819461,3.79009573 C28.3227666,-1.46928193 56.2200101,-1.37571222 74.6329217,10.0663909 C86.6572929,17.5381935 88.4574366,38.3329928 61.0447558,40.9182717 C52.9600083,41.6810785 30.8936546,39.1518465 28.2292711,41.230329 C25.5648876,43.3083365 25.0243225,43.7301127 23.4220854,44.980242 C22.0979618,41.2417284 21.8018138,41.2469531 17.7895769,39.5460742 C13.5832301,37.7620751 7.67118432,34.5935292 4.41497929,30.8388665" id="Fill-3" fill="#FFFFFF"></path>
                        <path d="M19.5355216,14.8655671 C19.4135504,14.8655671 19.3276485,14.8342188 19.2773413,14.7715224 C19.2270341,14.7088259 19.2014059,14.6304554 19.2014059,14.5364107 L19.2014059,14.5259613 L19.2014059,14.5202616 C19.2014059,14.4855885 19.2061518,14.4266919 19.2146946,14.3426216 C19.2232373,14.2595013 19.2407974,14.1668816 19.2669001,14.0657123 C19.2925283,13.965018 19.3342928,13.8681235 19.391719,13.7759787 C19.4491451,13.6838339 19.5255551,13.6073632 19.6214236,13.5460917 C19.7168174,13.4852951 19.8397379,13.4544218 19.9892357,13.4544218 L19.9892357,13.9773673 C19.8497044,13.9773673 19.7438694,13.999216 19.6707816,14.0424386 C19.5981683,14.0861361 19.5440644,14.1374332 19.5089442,14.1968049 L19.5250805,14.1968049 C19.6532215,14.1968049 19.7438694,14.229578 19.796075,14.2960743 C19.8482806,14.3620955 19.8743834,14.4404661 19.8743834,14.531186 C19.8743834,14.6252307 19.8482806,14.7045512 19.796075,14.7686725 C19.7438694,14.8332689 19.6570183,14.8655671 19.5355216,14.8655671 M18.6124319,14.8655671 C18.4871385,14.8655671 18.3988636,14.8342188 18.349031,14.7715224 C18.2987238,14.7088259 18.2730956,14.6304554 18.2730956,14.5364107 L18.2730956,14.5259613 L18.2730956,14.5202616 C18.2730956,14.4855885 18.2778415,14.4266919 18.2863842,14.3426216 C18.294927,14.2595013 18.3134362,14.1668816 18.3409628,14.0657123 C18.368964,13.965018 18.4107285,13.8681235 18.4662562,13.7759787 C18.521784,13.6838339 18.5972448,13.6073632 18.6931133,13.5460917 C18.7885071,13.4852951 18.9114275,13.4544218 19.0609254,13.4544218 L19.0609254,13.9773673 C18.9251908,13.9773673 18.8198305,13.999216 18.7453188,14.0424386 C18.6703326,14.0861361 18.6157541,14.1374332 18.5806339,14.1968049 L18.5962956,14.1968049 C18.7253858,14.1968049 18.8155591,14.229578 18.8677647,14.2960743 C18.9199703,14.3620955 18.9460731,14.4404661 18.9460731,14.531186 C18.9460731,14.6252307 18.9204449,14.7045512 18.8706123,14.7686725 C18.8198305,14.8332689 18.7339285,14.8655671 18.6124319,14.8655671" id="Fill-5" fill="#180A86"></path>
                        <path d="M22.3515861,16.4486526 C22.0734727,16.4486526 21.821462,16.3921308 21.5955542,16.2786122 C21.3696464,16.1655686 21.1907236,15.9974281 21.0583112,15.7746657 C20.9258989,15.5514283 20.8618284,15.2745189 20.8651506,14.9439376 C20.8651506,14.6166811 20.931594,14.3378719 21.0635318,14.1075099 C21.1954696,13.8780979 21.3743924,13.7028328 21.6007748,13.5826646 C21.8266826,13.4624964 22.08249,13.4026498 22.3672478,13.4026498 C22.649158,13.4026498 22.8888291,13.4529969 23.0872103,13.5541662 C23.2855916,13.6548605 23.4407845,13.7907028 23.5537384,13.9616932 C23.6666924,14.1322085 23.7407294,14.3202979 23.7753749,14.5259613 L23.1237542,14.5259613 C23.102872,14.3796695 23.0506664,14.2690008 22.9671375,14.193955 C22.8836085,14.1193843 22.7872655,14.0676122 22.6776337,14.0400637 C22.568002,14.0120403 22.46454,13.9982661 22.3672478,13.9982661 C22.0786932,13.9982661 21.8599043,14.0766367 21.7099319,14.2333778 C21.5609087,14.3901189 21.4859225,14.6109815 21.4859225,14.8964403 C21.4859225,15.203273 21.5580611,15.4402846 21.7023384,15.6074751 C21.8470902,15.7746657 22.0663537,15.8582609 22.3620272,15.8582609 C22.4626416,15.8582609 22.5689512,15.8425868 22.6800067,15.8112386 C22.7915368,15.7798904 22.8897783,15.7233686 22.974731,15.6411982 C23.0601583,15.5595028 23.1128385,15.4455093 23.1337207,15.2992176 L23.7910366,15.2992176 C23.7525943,15.5115305 23.6766589,15.7038947 23.5618066,15.8763099 C23.4469543,16.0487252 23.2889137,16.1874173 23.0872103,16.2919114 C22.8855069,16.3964055 22.6401406,16.4486526 22.3515861,16.4486526" id="Fill-7" fill="#180A86"></path>
                        <polygon id="Fill-9" fill="#180A86" points="25.3400714 15.8895142 26.935664 15.8895142 26.935664 16.3963105 24.72452 16.3963105 24.72452 13.4548018 26.883933 13.4548018 26.883933 13.9929464 25.3400714 13.9929464 25.3400714 14.6512592 26.5085274 14.6512592 26.5085274 15.1632802 25.3400714 15.1632802"></polygon>
                        <path d="M28.5524237,14.7556583 L29.0009172,14.7556583 C29.1641783,14.7556583 29.2989636,14.7504336 29.4052732,14.7399842 C29.5115828,14.7295348 29.5903657,14.6991365 29.6425713,14.6483144 C29.6943023,14.5979672 29.7208797,14.5100972 29.7208797,14.3847043 C29.7208797,14.2417373 29.6895564,14.141993 29.6269097,14.0845212 C29.564263,14.0270495 29.4712421,13.9928514 29.347847,13.982402 C29.224452,13.9719526 29.074005,13.9667279 28.8969806,13.9667279 L28.5524237,13.9667279 L28.5524237,14.7556583 Z M27.9212107,16.3962155 L27.9212107,13.4547068 L29.0578687,13.4547068 C29.4408679,13.4547068 29.7408128,13.5197782 29.9581779,13.6508707 C30.1750684,13.7810134 30.2837509,14.0085255 30.2837509,14.3324572 C30.2837509,14.583243 30.2253756,14.7817818 30.1090995,14.9280735 C29.9923488,15.0743653 29.8319352,15.1475111 29.6269097,15.1475111 C29.7341684,15.1475111 29.8162736,15.1726847 29.8718013,15.2230319 C29.9273291,15.273854 29.966246,15.3356005 29.9890266,15.4087464 C30.0118072,15.4818922 30.0288927,15.557413 30.0417068,15.6362585 C30.0535717,15.7146291 30.0701826,15.7839751 30.0910648,15.8452467 C30.111947,15.9060432 30.1470672,15.9478409 30.197849,15.9706396 C30.2481562,15.9929633 30.323617,15.9834639 30.424706,15.9416662 L30.424706,16.2917214 C30.3444992,16.3615425 30.2524275,16.4076149 30.1480164,16.4299386 C30.0440798,16.4527373 29.9434654,16.4470377 29.8461731,16.4118896 C29.7488809,16.3772166 29.6677249,16.3083455 29.6031798,16.2057513 C29.5391093,16.1026821 29.5068368,15.9611401 29.5068368,15.7797004 C29.5068368,15.6614321 29.4987687,15.5621627 29.4835816,15.4818922 C29.4679199,15.4016218 29.4304268,15.3394003 29.3715769,15.2938029 C29.3122523,15.2486804 29.2178077,15.2192321 29.0896667,15.2049829 C28.9605765,15.1912087 28.7816537,15.1912087 28.5524237,15.2049829 L28.5524237,16.3962155 L27.9212107,16.3962155 Z" id="Fill-11" fill="#180A86"></path>
                        <polygon id="Fill-13" fill="#180A86" points="31.1705815 13.9928514 31.1705815 13.4547068 33.4652545 13.4547068 33.4652545 13.9928514 32.6304396 13.9928514 32.6304396 16.3962155 31.9997012 16.3962155 31.9997012 13.9928514"></polygon>
                        <path d="M35.661164,15.8582134 C35.8519517,15.8582134 36.0118906,15.8173658 36.1409808,15.7351954 C36.2691218,15.6535 36.3649902,15.5428313 36.427637,15.4036641 C36.4902837,15.264497 36.5211324,15.1077559 36.5211324,14.9334407 C36.5211324,14.7596006 36.4902837,14.6009595 36.427637,14.4579926 C36.3649902,14.3150257 36.2691218,14.2019821 36.1409808,14.1183868 C36.0118906,14.0347915 35.8519517,13.9929939 35.661164,13.9929939 C35.3792538,13.9929939 35.1656855,14.0808639 35.0190352,14.256604 C34.8733342,14.432819 34.8007209,14.6584313 34.8007209,14.9334407 C34.8007209,15.1039561 34.8315697,15.2587973 34.8942164,15.3984394 C34.9568631,15.5376066 35.0517824,15.6492253 35.1784996,15.7328205 C35.3052168,15.8164158 35.4661049,15.8582134 35.661164,15.8582134 M35.6663845,16.4695039 C35.1865677,16.4695039 34.8197048,16.3308117 34.5653212,16.0539024 C34.3118868,15.776993 34.1851696,15.4036641 34.1851696,14.9334407 C34.1851696,14.6232833 34.2397481,14.3544485 34.3493799,14.1264614 C34.4590116,13.8979993 34.6227473,13.7203593 34.8420108,13.5930665 C35.0612743,13.4662487 35.3355909,13.4026023 35.6663845,13.4026023 C36.1490489,13.4026023 36.5163865,13.5408195 36.7664987,13.8177288 C37.0166109,14.0946382 37.1419043,14.4665421 37.1419043,14.9334407 C37.1419043,15.2364736 37.0863766,15.5038835 36.9753211,15.7351954 C36.8637909,15.9669823 36.699106,16.1469971 36.4798425,16.2761898 C36.2610537,16.4049075 35.98911,16.4695039 35.6663845,16.4695039" id="Fill-15" fill="#180A86"></path>
                        <path d="M41.0170304,16.4486526 C40.738917,16.4486526 40.4869063,16.3921308 40.2609985,16.2786122 C40.0350907,16.1655686 39.8561679,15.9974281 39.7237555,15.7746657 C39.5913432,15.5514283 39.5272727,15.2745189 39.5305949,14.9439376 C39.5305949,14.6166811 39.5970383,14.3378719 39.7289761,14.1075099 C39.8609139,13.8780979 40.0398367,13.7028328 40.2662191,13.5826646 C40.4921269,13.4624964 40.7479343,13.4026498 41.0326921,13.4026498 C41.3146022,13.4026498 41.5542734,13.4529969 41.7526546,13.5541662 C41.9510358,13.6548605 42.1062288,13.7907028 42.2191827,13.9616932 C42.3321367,14.1322085 42.4061737,14.3202979 42.4408192,14.5259613 L41.7891985,14.5259613 C41.7683163,14.3796695 41.7161107,14.2690008 41.6325817,14.193955 C41.5490528,14.1193843 41.4527098,14.0676122 41.343078,14.0400637 C41.2334463,14.0120403 41.1299843,13.9982661 41.0326921,13.9982661 C40.7441375,13.9982661 40.5253486,14.0766367 40.3753762,14.2333778 C40.226353,14.3901189 40.1513668,14.6109815 40.1513668,14.8964403 C40.1513668,15.203273 40.2235054,15.4402846 40.3677827,15.6074751 C40.5125345,15.7746657 40.731798,15.8582609 41.0274715,15.8582609 C41.1280859,15.8582609 41.2343955,15.8425868 41.345451,15.8112386 C41.4569811,15.7798904 41.5552226,15.7233686 41.6401753,15.6411982 C41.7256026,15.5595028 41.7782828,15.4455093 41.799165,15.2992176 L42.4564809,15.2992176 C42.4180386,15.5115305 42.3421032,15.7038947 42.2272509,15.8763099 C42.1123986,16.0487252 41.954358,16.1874173 41.7526546,16.2919114 C41.5509512,16.3964055 41.3055849,16.4486526 41.0170304,16.4486526" id="Fill-17" fill="#180A86"></path>
                        <polygon id="Fill-19" fill="#180A86" points="44.0314761 16.396263 43.4007376 16.396263 43.4007376 13.4547543 44.0314761 13.4547543 44.0314761 14.6668858 45.2934276 14.6668858 45.2934276 13.4547543 45.9198946 13.4547543 45.9198946 16.396263 45.2934276 16.396263 45.2934276 15.1475586 44.0314761 15.1475586"></polygon>
                        <polygon id="Fill-21" fill="#180A86" points="47.6141084 15.8895142 49.2097011 15.8895142 49.2097011 16.3963105 46.998557 16.3963105 46.998557 13.4548018 49.1579701 13.4548018 49.1579701 13.9929464 47.6141084 13.9929464 47.6141084 14.6512592 48.7825644 14.6512592 48.7825644 15.1632802 47.6141084 15.1632802"></polygon>
                        <path d="M52.9287799,13.9666804 L52.4385219,13.9666804 L52.4385219,14.9489249 L52.9287799,14.9489249 C53.0958378,14.9489249 53.2339453,14.9080772 53.3431024,14.8263818 C53.4527341,14.7446864 53.5077873,14.6216684 53.5077873,14.4578026 C53.5077873,14.2906121 53.4532087,14.1671191 53.34595,14.0868486 C53.237742,14.0070531 53.0986853,13.9666804 52.9287799,13.9666804 L52.9287799,13.9666804 Z M52.4385219,16.396168 L51.8073089,16.396168 L51.8073089,13.4546593 L53.0175294,13.4546593 C53.3478484,13.4546593 53.6069779,13.5392046 53.7944435,13.708295 C53.9823836,13.8773854 54.0758791,14.1286462 54.0758791,14.4630273 C54.0758791,14.7556108 53.979536,14.9850228 53.7868499,15.1503135 C53.5932146,15.3156041 53.3369327,15.3982495 53.0175294,15.3982495 L52.4385219,15.3982495 L52.4385219,16.396168 Z" id="Fill-23" fill="#180A86"></path>
                        <polygon id="Fill-25" fill="#180A86" points="55.5622197 15.8895142 57.1578123 15.8895142 57.1578123 16.3963105 54.9466683 16.3963105 54.9466683 13.4548018 57.1060813 13.4548018 57.1060813 13.9929464 55.5622197 13.9929464 55.5622197 14.6512592 56.7306757 14.6512592 56.7306757 15.1632802 55.5622197 15.1632802"></polygon>
                        <path d="M58.7749991,14.7556583 L59.2234926,14.7556583 C59.3867537,14.7556583 59.5215391,14.7504336 59.6278486,14.7399842 C59.7341582,14.7295348 59.8129412,14.6991365 59.8651468,14.6483144 C59.9168778,14.5979672 59.9434552,14.5100972 59.9434552,14.3847043 C59.9434552,14.2417373 59.9121318,14.141993 59.8494851,14.0845212 C59.7868384,14.0270495 59.6938175,13.9928514 59.5704225,13.982402 C59.4470275,13.9719526 59.2965804,13.9667279 59.119556,13.9667279 L58.7749991,13.9667279 L58.7749991,14.7556583 Z M58.1437861,16.3962155 L58.1437861,13.4547068 L59.2804442,13.4547068 C59.6634434,13.4547068 59.9633882,13.5197782 60.1807533,13.6508707 C60.3976438,13.7810134 60.5063263,14.0085255 60.5063263,14.3324572 C60.5063263,14.583243 60.447951,14.7817818 60.3316749,14.9280735 C60.2149242,15.0743653 60.0545107,15.1475111 59.8494851,15.1475111 C59.9567439,15.1475111 60.038849,15.1726847 60.0943768,15.2230319 C60.1499045,15.273854 60.1888214,15.3356005 60.2116021,15.4087464 C60.2343827,15.4818922 60.2514681,15.557413 60.2642822,15.6362585 C60.2761471,15.7146291 60.292758,15.7839751 60.3136403,15.8452467 C60.3345225,15.9060432 60.3696426,15.9478409 60.4204244,15.9706396 C60.4707316,15.9929633 60.5461924,15.9834639 60.6472814,15.9416662 L60.6472814,16.2917214 C60.5670747,16.3615425 60.475003,16.4076149 60.3705918,16.4299386 C60.2666552,16.4527373 60.1660408,16.4470377 60.0687486,16.4118896 C59.9714563,16.3772166 59.8903004,16.3083455 59.8257553,16.2057513 C59.7616848,16.1026821 59.7294122,15.9611401 59.7294122,15.7797004 C59.7294122,15.6614321 59.7213441,15.5621627 59.706157,15.4818922 C59.6904953,15.4016218 59.6530022,15.3394003 59.5941523,15.2938029 C59.5348278,15.2486804 59.4403831,15.2192321 59.3122421,15.2049829 C59.1831519,15.1912087 59.0042291,15.1912087 58.7749991,15.2049829 L58.7749991,16.3962155 L58.1437861,16.3962155 Z" id="Fill-27" fill="#180A86"></path>
                        <polygon id="Fill-29" fill="#180A86" points="13.3060184 22.5391382 14.9016111 22.5391382 14.9016111 23.0459346 12.690467 23.0459346 12.690467 20.1044259 14.8498801 20.1044259 14.8498801 20.6425705 13.3060184 20.6425705 13.3060184 21.3008832 14.4744744 21.3008832 14.4744744 21.8129043 13.3060184 21.8129043"></polygon>
                        <path d="M17.0666244,23.1034063 C16.9028887,23.1034063 16.7429497,23.0839324 16.5863329,23.0459346 C16.4301908,23.0074618 16.2873373,22.9466652 16.1591963,22.8630699 C16.0301061,22.7794747 15.9285425,22.6716557 15.8535563,22.5391382 C15.7790447,22.4066207 15.7415516,22.2465548 15.7415516,22.0584654 L16.3727646,22.0584654 C16.3727646,22.0760394 16.3798836,22.1097625 16.3936469,22.1605846 C16.4074101,22.2109318 16.4387335,22.2646038 16.4871423,22.3220755 C16.5360257,22.3800222 16.6110119,22.4284695 16.7116264,22.4683672 C16.8127154,22.50874 16.9465515,22.5286888 17.1136094,22.5286888 C17.2664294,22.5286888 17.392672,22.5035153 17.4918626,22.4526931 C17.5905787,22.402346 17.641835,22.3282502 17.6456318,22.2308807 C17.6456318,22.1472854 17.6109863,22.0812641 17.5435936,22.0323419 C17.4757264,21.9838946 17.3865023,21.942572 17.2749721,21.9093238 C17.163442,21.8765507 17.0409962,21.8461524 16.90716,21.818129 C16.7733239,21.7901056 16.6413861,21.7554325 16.5108721,21.7136349 C16.3808328,21.6718373 16.2617091,21.6162654 16.1535011,21.5464444 C16.0462424,21.4766233 15.9617642,21.3873284 15.9010159,21.2771346 C15.839793,21.1674158 15.8146394,21.0272987 15.8250805,20.8567834 C15.8426406,20.6059975 15.9627134,20.4093586 16.1852991,20.2663917 C16.4074101,20.1238998 16.709728,20.0521788 17.0927272,20.0521788 C17.3043971,20.0521788 17.5027783,20.0897017 17.6873963,20.1647475 C17.871065,20.2393183 18.0210375,20.3533118 18.1354152,20.5067281 C18.2502675,20.6596695 18.3076936,20.8534585 18.3076936,21.0866704 L17.6973628,21.0866704 C17.6973628,20.9612774 17.6589205,20.8672328 17.5829851,20.8045363 C17.5061005,20.7418398 17.414978,20.6990923 17.3091431,20.6767685 C17.2028335,20.6539698 17.1083888,20.6425705 17.0243853,20.6425705 C16.8715653,20.6425705 16.7453227,20.6658441 16.6466067,20.7128665 C16.547416,20.7598888 16.498058,20.8344596 16.498058,20.9351539 C16.498058,21.022074 16.5317544,21.0918951 16.5996216,21.1441421 C16.6674889,21.1963892 16.759086,21.2381868 16.8734637,21.269535 C16.988316,21.3008832 17.1126602,21.3298566 17.2464964,21.3555052 C17.3798579,21.3816287 17.5136941,21.4139269 17.6480048,21.4523997 C17.781841,21.4903975 17.902863,21.5435945 18.0101218,21.6115157 C18.1183297,21.6794368 18.203757,21.7682568 18.2659291,21.8779756 C18.3285759,21.9876944 18.3546787,22.1297114 18.3437629,22.3040265 C18.3266775,22.5548124 18.2018587,22.7505013 17.9683573,22.8920433 C17.7358051,23.0331103 17.4349111,23.1034063 17.0666244,23.1034063" id="Fill-31" fill="#180A86"></path>
                        <path d="M20.5551917,23.1034063 C20.391456,23.1034063 20.2315171,23.0839324 20.0749003,23.0459346 C19.9187581,23.0074618 19.7759047,22.9466652 19.6477637,22.8630699 C19.5186735,22.7794747 19.4171099,22.6716557 19.3421237,22.5391382 C19.267612,22.4066207 19.2301189,22.2465548 19.2301189,22.0584654 L19.861332,22.0584654 C19.861332,22.0760394 19.8684509,22.1097625 19.8822142,22.1605846 C19.8959775,22.2109318 19.9273009,22.2646038 19.9757097,22.3220755 C20.0245931,22.3800222 20.0995793,22.4284695 20.2001937,22.4683672 C20.3012827,22.50874 20.4351189,22.5286888 20.6021768,22.5286888 C20.7549968,22.5286888 20.8812394,22.5035153 20.98043,22.4526931 C21.079146,22.402346 21.1304024,22.3282502 21.1341992,22.2308807 C21.1341992,22.1472854 21.0995537,22.0812641 21.032161,22.0323419 C20.9642937,21.9838946 20.8750696,21.942572 20.7635395,21.9093238 C20.6520094,21.8765507 20.5295635,21.8461524 20.3957274,21.818129 C20.2618912,21.7901056 20.1299535,21.7554325 19.9994395,21.7136349 C19.8694001,21.6718373 19.7502765,21.6162654 19.6420685,21.5464444 C19.5348097,21.4766233 19.4503316,21.3873284 19.3895833,21.2771346 C19.3283604,21.1674158 19.3032068,21.0272987 19.3136479,20.8567834 C19.3312079,20.6059975 19.4512808,20.4093586 19.6738665,20.2663917 C19.8959775,20.1238998 20.1982953,20.0521788 20.5812945,20.0521788 C20.7929645,20.0521788 20.9913457,20.0897017 21.1759637,20.1647475 C21.3596324,20.2393183 21.5096048,20.3533118 21.6239825,20.5067281 C21.7388348,20.6596695 21.796261,20.8534585 21.796261,21.0866704 L21.1859302,21.0866704 C21.1859302,20.9612774 21.1474879,20.8672328 21.0715525,20.8045363 C20.9946679,20.7418398 20.9035454,20.6990923 20.7977104,20.6767685 C20.6914009,20.6539698 20.5969562,20.6425705 20.5129527,20.6425705 C20.3601327,20.6425705 20.2338901,20.6658441 20.135174,20.7128665 C20.0359834,20.7598888 19.9866254,20.8344596 19.9866254,20.9351539 C19.9866254,21.022074 20.0203217,21.0918951 20.088189,21.1441421 C20.1560563,21.1963892 20.2476533,21.2381868 20.362031,21.269535 C20.4768833,21.3008832 20.6012276,21.3298566 20.7350637,21.3555052 C20.8684253,21.3816287 21.0022614,21.4139269 21.1365722,21.4523997 C21.2704083,21.4903975 21.3914304,21.5435945 21.4986891,21.6115157 C21.6068971,21.6794368 21.6923244,21.7682568 21.7544965,21.8779756 C21.8171432,21.9876944 21.843246,22.1297114 21.8323303,22.3040265 C21.8152448,22.5548124 21.690426,22.7505013 21.4569247,22.8920433 C21.2243725,23.0331103 20.9234784,23.1034063 20.5551917,23.1034063" id="Fill-33" fill="#180A86"></path>
                        <polygon id="Fill-35" fill="#180A86" points="23.475525 22.5391382 25.0711177 22.5391382 25.0711177 23.0459346 22.8599736 23.0459346 22.8599736 20.1044259 25.0193867 20.1044259 25.0193867 20.6425705 23.475525 20.6425705 23.475525 21.3008832 24.643981 21.3008832 24.643981 21.8129043 23.475525 21.8129043"></polygon>
                        <path d="M26.6883045,21.4052823 L27.1367979,21.4052823 C27.300059,21.4052823 27.4348444,21.4000576 27.541154,21.3896082 C27.6474635,21.3791588 27.7262465,21.3487605 27.7784521,21.2979384 C27.8301831,21.2475913 27.8567605,21.1597212 27.8567605,21.0343283 C27.8567605,20.8913614 27.8254371,20.791617 27.7627904,20.7341453 C27.7001437,20.6766735 27.6071228,20.6424755 27.4837278,20.6320261 C27.3603328,20.6215766 27.2098858,20.6163519 27.0328613,20.6163519 L26.6883045,20.6163519 L26.6883045,21.4052823 Z M26.0570914,23.0458396 L26.0570914,20.1043309 L27.1937495,20.1043309 C27.5767487,20.1043309 27.8766935,20.1694022 28.0940586,20.3004948 C28.3109491,20.4306374 28.4196317,20.6581496 28.4196317,20.9820813 C28.4196317,21.2328671 28.3612563,21.4314059 28.2449802,21.5776976 C28.1282295,21.7239893 27.967816,21.7971352 27.7627904,21.7971352 C27.8700492,21.7971352 27.9521543,21.8223088 28.0076821,21.8726559 C28.0632099,21.923478 28.1021268,21.9852246 28.1249074,22.0583704 C28.147688,22.1315163 28.1647735,22.207037 28.1775876,22.2858826 C28.1894525,22.3642531 28.2060633,22.4335992 28.2269456,22.4948707 C28.2478278,22.5556673 28.2829479,22.5974649 28.3337297,22.6202637 C28.3840369,22.6425874 28.4594977,22.6330879 28.5605868,22.5912903 L28.5605868,22.9413455 C28.48038,23.0111666 28.3883083,23.0572389 28.2838971,23.0795627 C28.1799605,23.1023614 28.0793461,23.0966617 27.9820539,23.0615137 C27.8847617,23.0268407 27.8036057,22.9579696 27.7390606,22.8553754 C27.6749901,22.7523062 27.6427176,22.6107642 27.6427176,22.4293244 C27.6427176,22.3110561 27.6346494,22.2117867 27.6194623,22.1315163 C27.6038007,22.0512458 27.5663076,21.9890243 27.5074576,21.9434269 C27.4481331,21.8983045 27.3536884,21.8688561 27.2255474,21.8546069 C27.0964572,21.8408327 26.9175345,21.8408327 26.6883045,21.8546069 L26.6883045,23.0458396 L26.0570914,23.0458396 Z" id="Fill-37" fill="#180A86"></path>
                        <polygon id="Fill-39" fill="#180A86" points="30.1407076 22.5391382 31.7363003 22.5391382 31.7363003 23.0459346 29.5251562 23.0459346 29.5251562 20.1044259 31.6845693 20.1044259 31.6845693 20.6425705 30.1407076 20.6425705 30.1407076 21.3008832 31.3091636 21.3008832 31.3091636 21.8129043 30.1407076 21.8129043"></polygon>
                        <path d="M35.6430819,23.1191754 C35.2154706,23.1191754 34.8913214,23.003282 34.6701595,22.7719701 C34.4494722,22.5397082 34.3393659,22.2134017 34.3393659,21.7921005 L34.3393659,20.1040459 L35.0118688,20.1040459 L35.0118688,21.7868758 C35.0118688,21.9920642 35.0455651,22.1473804 35.113907,22.2518745 C35.1812997,22.3563686 35.2638794,22.4266646 35.3611717,22.4632375 C35.4584639,22.4998105 35.5529086,22.5178594 35.6430819,22.5178594 C35.747493,22.5178594 35.8481074,22.4998105 35.9453997,22.4632375 C36.0426919,22.4266646 36.1228987,22.3563686 36.1855454,22.2518745 C36.2477175,22.1473804 36.2795155,21.9920642 36.2795155,21.7868758 L36.2795155,20.1040459 L36.9520184,20.1040459 L36.9520184,21.7921005 C36.9520184,22.2200513 36.8433358,22.5487327 36.6259707,22.7767198 C36.4086056,23.0051819 36.0811342,23.1191754 35.6430819,23.1191754" id="Fill-41" fill="#180A86"></path>
                        <polygon id="Fill-43" fill="#180A86" points="40.0080862 20.1041884 40.665402 20.1041884 40.665402 23.0456971 39.4608767 23.0456971 38.683488 20.3810977 38.6730468 20.3810977 38.6730468 23.0456971 38.0209516 23.0456971 38.0209516 20.1041884 39.137202 20.1041884 39.9981196 22.7687878 40.0080862 22.7687878"></polygon>
                        <path d="M42.996524,20.3655661 L42.5997615,21.7762364 L43.3928119,21.7762364 L42.996524,20.3655661 Z M41.5727352,23.0458396 L42.4645016,20.1043309 L43.501969,20.1043309 L44.4203128,23.0458396 L43.7473353,23.0458396 L43.5280718,22.2621339 L42.4645016,22.2621339 L42.2504586,23.0458396 L41.5727352,23.0458396 Z" id="Fill-45" fill="#180A86"></path>
                        <path d="M47.5756661,22.5286888 L47.9667334,22.5286888 C48.171759,22.5286888 48.3502072,22.5035153 48.5011289,22.4526931 C48.6525251,22.402346 48.7692757,22.3083013 48.8509063,22.1705591 C48.9320623,22.0332918 48.9728775,21.8319032 48.9728775,21.5673432 C48.9728775,21.2609855 48.8827043,21.0310985 48.7018831,20.8776822 C48.5210619,20.7242658 48.2761702,20.6477952 47.9667334,20.6477952 L47.5756661,20.6477952 L47.5756661,22.5286888 Z M49.6411091,21.5725679 C49.6411091,21.959196 49.5642245,22.259854 49.4114045,22.4735919 C49.2585845,22.6878048 49.0421686,22.8369464 48.7621568,22.9205417 C48.482145,23.0041369 48.1546736,23.0459346 47.7792679,23.0459346 L46.9548942,23.0459346 L46.9548942,20.1044259 L47.7792679,20.1044259 C48.1546736,20.1044259 48.482145,20.1595228 48.7621568,20.2687666 C49.0421686,20.3789604 49.2585845,20.5414012 49.4114045,20.757514 C49.5642245,20.9736267 49.6411091,21.2453114 49.6411091,21.5725679 L49.6411091,21.5725679 Z" id="Fill-47" fill="#180A86"></path>
                        <path d="M51.9410976,22.5078375 C52.1318853,22.5078375 52.2918242,22.4669898 52.4209144,22.3848195 C52.5490554,22.3031241 52.6449238,22.1924553 52.7075705,22.0532882 C52.7702172,21.9141211 52.801066,21.7573799 52.801066,21.5830648 C52.801066,21.4092246 52.7702172,21.2505836 52.7075705,21.1076167 C52.6449238,20.9646498 52.5490554,20.8516061 52.4209144,20.7680109 C52.2918242,20.6844156 52.1318853,20.642618 51.9410976,20.642618 C51.6591874,20.642618 51.445619,20.730488 51.2989688,20.9062281 C51.1532677,21.0824431 51.0806545,21.3080553 51.0806545,21.5830648 C51.0806545,21.7535802 51.1115033,21.9084214 51.17415,22.0480635 C51.2367967,22.1872306 51.3317159,22.2988493 51.4584331,22.3824446 C51.5851504,22.4660399 51.7460385,22.5078375 51.9410976,22.5078375 M51.9463181,23.1191279 C51.4665013,23.1191279 51.0996384,22.9804358 50.8452548,22.7035264 C50.5918204,22.4266171 50.4651031,22.0532882 50.4651031,21.5830648 C50.4651031,21.2729073 50.5196817,21.0040725 50.6293135,20.7760854 C50.7389452,20.5476233 50.9026809,20.3699834 51.1219444,20.2426906 C51.3412079,20.1158727 51.6155245,20.0522263 51.9463181,20.0522263 C52.4289825,20.0522263 52.79632,20.1904435 53.0464323,20.4673529 C53.2965445,20.7442622 53.4218379,21.1161662 53.4218379,21.5830648 C53.4218379,21.8860977 53.3663102,22.1535075 53.2552546,22.3848195 C53.1437245,22.6166064 52.9790396,22.7966212 52.7597761,22.9258139 C52.5409872,23.0545316 52.2690436,23.1191279 51.9463181,23.1191279" id="Fill-49" fill="#180A86"></path>
                        <polygon id="Fill-51" fill="#180A86" points="56.3839357 20.1041884 57.0412515 20.1041884 57.0412515 23.0456971 55.8367261 23.0456971 55.0593375 20.3810977 55.0488963 20.3810977 55.0488963 23.0456971 54.3968011 23.0456971 54.3968011 20.1041884 55.5130515 20.1041884 56.3739691 22.7687878 56.3839357 22.7687878"></polygon>
                        <polygon id="Fill-53" fill="#180A86" points="60.1288325 20.1041884 60.7861483 20.1041884 60.7861483 23.0456971 59.581623 23.0456971 58.8042343 20.3810977 58.7937931 20.3810977 58.7937931 23.0456971 58.1416979 23.0456971 58.1416979 20.1041884 59.2579483 20.1041884 60.1188659 22.7687878 60.1288325 22.7687878"></polygon>
                        <path d="M63.1172703,20.3655661 L62.7205078,21.7762364 L63.5135582,21.7762364 L63.1172703,20.3655661 Z M61.6934815,23.0458396 L62.5852479,20.1043309 L63.6227153,20.1043309 L64.5410591,23.0458396 L63.8680816,23.0458396 L63.6488181,22.2621339 L62.5852479,22.2621339 L62.3712049,23.0458396 L61.6934815,23.0458396 Z" id="Fill-55" fill="#180A86"></path>
                        <path d="M65.4434565,23.6154749 L65.4434565,23.2183973 L65.583937,23.2183973 C65.677907,23.2183973 65.7438759,23.206998 65.7823182,23.1841993 C65.8207605,23.1614006 65.8397443,23.1153282 65.8397443,23.0459821 C65.6935687,23.0493069 65.5915305,23.0179587 65.5345789,22.9519374 C65.4771528,22.8859161 65.448677,22.8056457 65.448677,22.711601 C65.448677,22.6170813 65.473356,22.5382358 65.5241378,22.4736394 C65.574445,22.4095181 65.6641437,22.3772199 65.7927593,22.3772199 C65.8867294,22.3772199 65.9640886,22.4066682 66.0248369,22.4660399 C66.0860598,22.5254115 66.1159594,22.6470046 66.1159594,22.8317692 C66.1159594,22.9709363 66.0988739,23.099654 66.0642284,23.2183973 C66.0291083,23.3366656 65.9726313,23.4326102 65.8943229,23.5057561 C65.8160145,23.578902 65.7144509,23.6154749 65.5896321,23.6154749 L65.4434565,23.6154749 Z" id="Fill-57" fill="#180A86"></path>
                        <polygon id="Fill-59" fill="#180A86" points="21.689287 29.6955111 21.0585485 29.6955111 21.0585485 26.7540024 21.689287 26.7540024 21.689287 27.9661339 22.9512385 27.9661339 22.9512385 26.7540024 23.5777056 26.7540024 23.5777056 29.6955111 22.9512385 29.6955111 22.9512385 28.4468067 21.689287 28.4468067"></polygon>
                        <path d="M25.9036544,27.0151902 L25.506892,28.4258604 L26.2999423,28.4258604 L25.9036544,27.0151902 Z M24.4798656,29.6954637 L25.371632,26.753955 L26.4090995,26.753955 L27.3274433,29.6954637 L26.6544657,29.6954637 L26.4352023,28.911758 L25.371632,28.911758 L25.1575891,29.6954637 L24.4798656,29.6954637 Z" id="Fill-61" fill="#180A86"></path>
                        <polygon id="Fill-63" fill="#180A86" points="29.6424764 29.1574616 29.6424764 29.6956061 28.250011 29.6956061 28.250011 29.1574616 28.6358577 29.1574616 28.6358577 27.292242 28.250011 27.292242 28.250011 26.7536225 29.6424764 26.7536225 29.6424764 27.292242 29.2618502 27.292242 29.2618502 29.1574616"></polygon>
                        <polygon id="Fill-65" fill="#180A86" points="32.4539373 29.6955111 32.4539373 26.7540024 33.0846757 26.7540024 33.0846757 29.1573666 34.4410719 29.1573666 34.4410719 29.6955111"></polygon>
                        <polygon id="Fill-67" fill="#180A86" points="35.9999783 29.1887623 37.5955709 29.1887623 37.5955709 29.6955586 35.3844269 29.6955586 35.3844269 26.7540499 37.5438399 26.7540499 37.5438399 27.2921945 35.9999783 27.2921945 35.9999783 27.9505073 37.1684343 27.9505073 37.1684343 28.4625284 35.9999783 28.4625284"></polygon>
                        <path d="M41.3146022,27.2659285 L40.8243443,27.2659285 L40.8243443,28.248173 L41.3146022,28.248173 C41.4816601,28.248173 41.6197676,28.2073253 41.7289248,28.1256299 C41.8385565,28.0439345 41.8936097,27.9209165 41.8936097,27.7570507 C41.8936097,27.5898602 41.8390311,27.4663672 41.7317724,27.3860967 C41.6235644,27.3063012 41.4845077,27.2659285 41.3146022,27.2659285 L41.3146022,27.2659285 Z M40.8243443,29.6954162 L40.1931312,29.6954162 L40.1931312,26.7539075 L41.4033517,26.7539075 C41.7336708,26.7539075 41.9928003,26.8384527 42.1802658,27.0075431 C42.368206,27.1766336 42.4617014,27.4278944 42.4617014,27.7622754 C42.4617014,28.0548589 42.3653584,28.2842709 42.1726723,28.4495616 C41.979037,28.6148522 41.722755,28.6974976 41.4033517,28.6974976 L40.8243443,28.6974976 L40.8243443,29.6954162 Z" id="Fill-69" fill="#180A86"></path>
                        <path d="M44.4907903,27.0151902 L44.0940279,28.4258604 L44.8870782,28.4258604 L44.4907903,27.0151902 Z M43.0670015,29.6954637 L43.9587679,26.753955 L44.9962354,26.753955 L45.9145792,29.6954637 L45.2416016,29.6954637 L45.0223382,28.911758 L43.9587679,28.911758 L43.744725,29.6954637 L43.0670015,29.6954637 Z" id="Fill-71" fill="#180A86"></path>
                        <polygon id="Fill-73" fill="#180A86" points="46.8378113 29.6955111 46.8378113 26.7540024 47.4685497 26.7540024 47.4685497 29.1573666 48.8249459 29.1573666 48.8249459 29.6955111"></polygon>
                        <polygon id="Fill-75" fill="#180A86" points="49.8206963 29.6955111 49.8206963 26.7540024 50.4514348 26.7540024 50.4514348 29.1573666 51.8078309 29.1573666 51.8078309 29.6955111"></polygon>
                        <polygon id="Fill-77" fill="#180A86" points="53.3667373 29.1887623 54.96233 29.1887623 54.96233 29.6955586 52.7511859 29.6955586 52.7511859 26.7540499 54.910599 26.7540499 54.910599 27.2921945 53.3667373 27.2921945 53.3667373 27.9505073 54.5351933 27.9505073 54.5351933 28.4625284 53.3667373 28.4625284"></polygon>
                        <path d="M56.4682546,29.742581 C56.2747167,29.742581 56.1459009,29.706483 56.0818072,29.6352371 C56.0170851,29.5644661 55.9850382,29.4794459 55.9850382,29.3820764 C55.9850382,29.2847069 56.0170851,29.2011116 56.0818072,29.1312905 C56.1459009,29.0614695 56.2747167,29.0267965 56.4682546,29.0267965 C56.6479683,29.0267965 56.7711288,29.0614695 56.837736,29.1312905 C56.9043432,29.2011116 56.9382752,29.2847069 56.9382752,29.3820764 C56.9382752,29.4832456 56.9043432,29.5682658 56.837736,29.6380869 C56.7711288,29.707433 56.6479683,29.742581 56.4682546,29.742581 M56.0334227,27.9685563 C55.9831531,27.726795 55.9529914,27.514007 55.9435658,27.3311423 C55.9341403,27.1487526 55.9668155,27.0067357 56.0403348,26.9055664 C56.1144824,26.8043971 56.2520954,26.7540499 56.4550588,26.7540499 C56.6573939,26.7540499 56.7956352,26.805347 56.8691545,26.9084162 C56.9426738,27.0110104 56.9747206,27.1535024 56.9659234,27.336367 C56.9558695,27.5192317 56.9263361,27.7320197 56.8754382,27.973781 C56.8251686,28.2160173 56.7767841,28.4763026 56.7309131,28.7551118 C56.6341442,28.7375378 56.5417738,28.7289883 56.4550588,28.7289883 C56.3903367,28.7289883 56.2979664,28.7375378 56.1785761,28.7551118 C56.1327051,28.4729778 56.0843207,28.2107926 56.0334227,27.9685563" id="Fill-79" fill="#180A86"></path>
                        <path d="M58.6183824,28.1648152 L58.6183824,27.6418698 C58.7541169,27.6418698 58.8594773,27.620496 58.9339889,27.5767984 C59.0085005,27.5335759 59.0621299,27.4822788 59.0929786,27.4229071 L59.0830121,27.4229071 C58.9539219,27.4229071 58.8637486,27.390609 58.811543,27.3260126 C58.7593375,27.2618912 58.7332347,27.1825707 58.7332347,27.0880511 C58.7332347,26.9944814 58.7583883,26.9151608 58.8086955,26.8505645 C58.8594773,26.7864431 58.9449046,26.75367 59.0668758,26.75367 C59.1888471,26.75367 59.274749,26.7854932 59.3250562,26.8481896 C59.375838,26.9104111 59.400517,26.9887817 59.400517,27.0833013 L59.4062122,27.0833013 L59.400517,27.0937507 L59.4062122,27.0937507 C59.4062122,27.1008753 59.4043138,27.1023003 59.400517,27.0989754 C59.400517,27.1369733 59.3976694,27.1972949 59.3905505,27.2789903 C59.3834316,27.3611606 59.3658715,27.4523555 59.3383449,27.5535247 C59.3103437,27.654694 59.2685793,27.7511136 59.2130515,27.8432584 C59.1575237,27.9358781 59.0811137,28.0123488 58.9838215,28.0731454 C58.8860547,28.1344169 58.764558,28.1648152 58.6183824,28.1648152 M57.6900721,28.1648152 L57.6900721,27.6418698 C57.8258066,27.6418698 57.931167,27.620496 58.0056786,27.5767984 C58.0801902,27.5335759 58.1352434,27.4822788 58.1703635,27.4229071 L58.1542272,27.4229071 C58.0256116,27.4229071 57.9354383,27.390609 57.8832327,27.3260126 C57.8310271,27.2618912 57.8049244,27.1825707 57.8049244,27.0880511 C57.8049244,26.9944814 57.830078,26.9151608 57.8803852,26.8505645 C57.931167,26.7864431 58.0165943,26.75367 58.1385655,26.75367 C58.2605368,26.75367 58.3473879,26.7854932 58.3995935,26.8481896 C58.4513245,26.9104111 58.4779019,26.9887817 58.4779019,27.0833013 L58.4779019,27.0937507 L58.4779019,27.0989754 C58.4779019,27.1369733 58.4731559,27.1972949 58.4646132,27.2789903 C58.4560704,27.3611606 58.4375612,27.4523555 58.4100346,27.5535247 C58.3820334,27.654694 58.340269,27.7511136 58.2847412,27.8432584 C58.2292134,27.9358781 58.1528034,28.0123488 58.0550366,28.0731454 C57.9577444,28.1344169 57.8362477,28.1648152 57.6900721,28.1648152" id="Fill-81" fill="#180A86"></path>
                    </g>
                    <g id="Group-139">
                        <path d="M81.9792121,65.3637235 C78.5300309,65.3637235 75.7242473,68.1786761 75.7242473,71.6380671 L75.7242473,136.668712 C75.7242473,140.128103 78.5300309,142.942579 81.9792121,142.942579 L116.31338,142.942579 C119.762561,142.942579 122.568345,140.128103 122.568345,136.668712 L122.568345,71.6380671 C122.568345,68.1786761 119.762561,65.3637235 116.31338,65.3637235 L81.9792121,65.3637235 Z M116.31338,143.895186 L81.9792121,143.895186 C78.0067658,143.895186 74.7745829,140.653465 74.7745829,136.668712 L74.7745829,71.6380671 C74.7745829,67.6533135 78.0067658,64.4111168 81.9792121,64.4111168 L116.31338,64.4111168 C120.286301,64.4111168 123.518009,67.6533135 123.518009,71.6380671 L123.518009,136.668712 C123.518009,140.653465 120.286301,143.895186 116.31338,143.895186 L116.31338,143.895186 Z" id="Fill-84" fill="#FFFFFF"></path>
                        <mask id="mask-3" fill="white">
                            <use xlink:href="#path-2"></use>
                        </mask>
                        <g id="Clip-87"></g>
                        <path d="M110.027646,96.5338223 L118.780703,96.5338223 L118.780703,92.0970569 L110.027646,92.0970569 L110.027646,96.5338223 Z M109.077982,97.4864289 L119.730367,97.4864289 L119.730367,91.1444502 L109.077982,91.1444502 L109.077982,97.4864289 Z" id="Fill-86" fill="#FFFFFF" mask="url(#mask-3)"></path>
                        <path d="M110.027646,114.775763 L118.780703,114.775763 L118.780703,102.887709 L110.027646,102.887709 L110.027646,114.775763 Z M109.077982,115.72837 L119.730367,115.72837 L119.730367,101.935102 L109.077982,101.935102 L109.077982,115.72837 Z" id="Fill-88" fill="#FFFFFF" mask="url(#mask-3)"></path>
                        <polygon id="Fill-89" fill="#FFFFFF" mask="url(#mask-3)" points="104.127381 143.419216 105.077045 143.419216 105.077045 64.8877536 104.127381 64.8877536"></polygon>
                        <path d="M81.167344,114.775763 L98.888557,114.775763 L98.888557,83.1001635 L81.167344,83.1001635 L81.167344,114.775763 Z M80.2176795,115.72837 L99.8382215,115.72837 L99.8382215,82.1475569 L80.2176795,82.1475569 L80.2176795,115.72837 Z" id="Fill-90" fill="#FFFFFF" mask="url(#mask-3)"></path>
                        <polygon id="Fill-91" fill="#FFFFFF" mask="url(#mask-3)" points="80.6925117 102.887709 99.1463909 102.887709 99.1463909 101.935102 80.6925117 101.935102"></polygon>
                        <path d="M84.0153401,85.7782742 C84.0153401,86.1683666 83.7000515,86.484632 83.3111639,86.484632 C82.9222763,86.484632 82.6069878,86.1683666 82.6069878,85.7782742 C82.6069878,85.3881818 82.9222763,85.0719164 83.3111639,85.0719164 C83.7000515,85.0719164 84.0153401,85.3881818 84.0153401,85.7782742" id="Fill-92" fill="#FFFFFF" mask="url(#mask-3)"></path>
                        <polygon id="Fill-93" fill="#FFFFFF" mask="url(#mask-3)" points="85.4232651 86.2547204 88.944146 86.2547204 88.944146 85.3021137 85.4232651 85.3021137"></polygon>
                        <path d="M84.0153401,89.2259005 C84.0153401,89.6159929 83.7000515,89.9322583 83.3111639,89.9322583 C82.9222763,89.9322583 82.6069878,89.6159929 82.6069878,89.2259005 C82.6069878,88.8358081 82.9222763,88.5195427 83.3111639,88.5195427 C83.7000515,88.5195427 84.0153401,88.8358081 84.0153401,89.2259005" id="Fill-94" fill="#FFFFFF" mask="url(#mask-3)"></path>
                        <polygon id="Fill-95" fill="#FFFFFF" mask="url(#mask-3)" points="85.4232651 89.7022038 88.944146 89.7022038 88.944146 88.7495972 85.4232651 88.7495972"></polygon>
                        <path d="M84.0153401,92.6734791 C84.0153401,93.0635716 83.7000515,93.379837 83.3111639,93.379837 C82.9222763,93.379837 82.6069878,93.0635716 82.6069878,92.6734791 C82.6069878,92.2833867 82.9222763,91.9671213 83.3111639,91.9671213 C83.7000515,91.9671213 84.0153401,92.2833867 84.0153401,92.6734791" id="Fill-96" fill="#FFFFFF" mask="url(#mask-3)"></path>
                        <polygon id="Fill-97" fill="#FFFFFF" mask="url(#mask-3)" points="85.4232651 93.1496872 88.944146 93.1496872 88.944146 92.1970806 85.4232651 92.1970806"></polygon>
                        <path d="M84.0153401,96.1211055 C84.0153401,96.5111979 83.7000515,96.8274633 83.3111639,96.8274633 C82.9222763,96.8274633 82.6069878,96.5111979 82.6069878,96.1211055 C82.6069878,95.731013 82.9222763,95.4147476 83.3111639,95.4147476 C83.7000515,95.4147476 84.0153401,95.731013 84.0153401,96.1211055" id="Fill-98" fill="#FFFFFF" mask="url(#mask-3)"></path>
                        <polygon id="Fill-99" fill="#FFFFFF" mask="url(#mask-3)" points="85.4232651 96.5976469 88.944146 96.5976469 88.944146 95.6450403 85.4232651 95.6450403"></polygon>
                        <path d="M84.0153401,99.5687318 C84.0153401,99.9588242 83.7000515,100.27509 83.3111639,100.27509 C82.9222763,100.27509 82.6069878,99.9588242 82.6069878,99.5687318 C82.6069878,99.1786393 82.9222763,98.8623739 83.3111639,98.8623739 C83.7000515,98.8623739 84.0153401,99.1786393 84.0153401,99.5687318" id="Fill-100" fill="#FFFFFF" mask="url(#mask-3)"></path>
                        <polygon id="Fill-101" fill="#FFFFFF" mask="url(#mask-3)" points="85.4232651 100.04513 88.944146 100.04513 88.944146 99.0925237 85.4232651 99.0925237"></polygon>
                        <path d="M92.2303173,85.7782742 C92.2303173,86.1683666 91.9150287,86.484632 91.5261411,86.484632 C91.1372535,86.484632 90.8219649,86.1683666 90.8219649,85.7782742 C90.8219649,85.3881818 91.1372535,85.0719164 91.5261411,85.0719164 C91.9150287,85.0719164 92.2303173,85.3881818 92.2303173,85.7782742" id="Fill-102" fill="#FFFFFF" mask="url(#mask-3)"></path>
                        <polygon id="Fill-103" fill="#FFFFFF" mask="url(#mask-3)" points="93.6383372 86.2547204 97.1592181 86.2547204 97.1592181 85.3021137 93.6383372 85.3021137"></polygon>
                        <path d="M92.2303173,89.2259005 C92.2303173,89.6159929 91.9150287,89.9322583 91.5261411,89.9322583 C91.1372535,89.9322583 90.8219649,89.6159929 90.8219649,89.2259005 C90.8219649,88.8358081 91.1372535,88.5195427 91.5261411,88.5195427 C91.9150287,88.5195427 92.2303173,88.8358081 92.2303173,89.2259005" id="Fill-104" fill="#FFFFFF" mask="url(#mask-3)"></path>
                        <polygon id="Fill-105" fill="#FFFFFF" mask="url(#mask-3)" points="93.6383372 89.7022038 97.1592181 89.7022038 97.1592181 88.7495972 93.6383372 88.7495972"></polygon>
                        <path d="M92.2303173,92.6734791 C92.2303173,93.0635716 91.9150287,93.379837 91.5261411,93.379837 C91.1372535,93.379837 90.8219649,93.0635716 90.8219649,92.6734791 C90.8219649,92.2833867 91.1372535,91.9671213 91.5261411,91.9671213 C91.9150287,91.9671213 92.2303173,92.2833867 92.2303173,92.6734791" id="Fill-106" fill="#FFFFFF" mask="url(#mask-3)"></path>
                        <polygon id="Fill-107" fill="#FFFFFF" mask="url(#mask-3)" points="93.6383372 93.1496872 97.1592181 93.1496872 97.1592181 92.1970806 93.6383372 92.1970806"></polygon>
                        <path d="M92.2303173,96.1211055 C92.2303173,96.5111979 91.9150287,96.8274633 91.5261411,96.8274633 C91.1372535,96.8274633 90.8219649,96.5111979 90.8219649,96.1211055 C90.8219649,95.731013 91.1372535,95.4147476 91.5261411,95.4147476 C91.9150287,95.4147476 92.2303173,95.731013 92.2303173,96.1211055" id="Fill-108" fill="#FFFFFF" mask="url(#mask-3)"></path>
                        <polygon id="Fill-109" fill="#FFFFFF" mask="url(#mask-3)" points="93.6383372 96.5976469 97.1592181 96.5976469 97.1592181 95.6450403 93.6383372 95.6450403"></polygon>
                        <path d="M92.2303173,99.5687318 C92.2303173,99.9588242 91.9150287,100.27509 91.5261411,100.27509 C91.1372535,100.27509 90.8219649,99.9588242 90.8219649,99.5687318 C90.8219649,99.1786393 91.1372535,98.8623739 91.5261411,98.8623739 C91.9150287,98.8623739 92.2303173,99.1786393 92.2303173,99.5687318" id="Fill-110" fill="#FFFFFF" mask="url(#mask-3)"></path>
                        <polygon id="Fill-111" fill="#FFFFFF" mask="url(#mask-3)" points="93.6383372 100.04513 97.1592181 100.04513 97.1592181 99.0925237 93.6383372 99.0925237"></polygon>
                        <path d="M199.253462,95.3841213 C199.049285,95.3841213 198.860776,95.2507564 198.798573,95.0445171 C198.72355,94.7925526 198.865999,94.5272517 199.117186,94.4515194 C200.809013,93.9418749 202.474724,93.2955313 204.068261,92.5296355 C204.304728,92.4157991 204.588202,92.5158227 204.701687,92.7534981 C204.815172,92.9906972 204.714983,93.2750502 204.478516,93.3888867 C202.841295,94.1757398 201.12905,94.8401829 199.390214,95.3641166 C199.34463,95.3774531 199.298571,95.3841213 199.253462,95.3841213" id="Fill-112" fill="#FFFFFF" mask="url(#mask-3)"></path>
                        <path d="M197.609878,92.4948654 C197.50589,92.4948654 197.400952,92.4605716 197.313108,92.390555 C197.108455,92.2262303 197.075692,91.9261592 197.239509,91.7208725 L198.35584,90.3219697 C198.520132,90.1166829 198.818326,90.083818 199.023454,90.2476664 C199.228106,90.411991 199.261345,90.7120621 199.097053,90.9173488 L197.980722,92.3162517 C197.886705,92.4338986 197.749004,92.4948654 197.609878,92.4948654" id="Fill-113" fill="#FFFFFF" mask="url(#mask-3)"></path>
                        <path d="M195.049298,91.0510948 C195.010837,91.0510948 194.9719,91.0463318 194.932964,91.0368057 C194.678454,90.9725047 194.524608,90.713872 194.588236,90.4585735 C195.011786,88.7705545 195.38358,87.0463365 195.692221,85.3345024 C195.739229,85.0758697 195.984243,84.9034479 196.243976,84.9506019 C196.502285,84.9972796 196.673224,85.2454336 196.626691,85.5040664 C196.314251,87.2368578 195.938184,88.9820332 195.50941,90.6910095 C195.454805,90.9072512 195.261548,91.0510948 195.049298,91.0510948" id="Fill-114" fill="#FFFFFF" mask="url(#mask-3)"></path>
                        <path d="M151.725512,150.758526 C152.416393,143.559201 151.740232,107.04436 151.682777,103.15963 C151.655711,101.288234 151.626272,99.4015969 151.226938,97.5735448 C150.063124,92.244187 145.380804,87.7702699 139.968191,87.2387154 C134.555579,86.7071609 128.926918,90.4418552 127.641547,95.7426348 C127.050381,98.1813078 127.32246,100.733341 127.329582,103.242983 C127.348576,109.800251 125.487708,116.352756 122.026656,121.915502 C120.690953,124.062201 119.127805,126.057912 117.744619,128.173651 C113.36999,134.864284 110.85243,142.763298 110.545213,150.758526 L151.725512,150.758526 Z" id="Fill-115" fill="#FFFFFF" mask="url(#mask-3)"></path>
                        <path d="M144.04567,88.3904645 C145.74367,89.1239716 147.274055,90.2208981 149.006717,90.8662891 C150.739855,91.5121564 152.841462,91.6274218 154.299672,90.487628 C154.526167,91.9189194 154.345256,93.4526161 153.574129,94.6781445 C152.803001,95.9031967 151.386577,96.7581611 149.946885,96.6424194 C148.012894,96.4866682 146.614988,94.7815024 144.899894,93.8731919 C143.767419,93.2735261 142.467803,93.0139408 141.393258,92.3156801 C140.353375,91.6407583 138.620712,89.5302583 139.157273,88.1332607 C139.777879,86.5166872 142.888504,87.890346 144.04567,88.3904645" id="Fill-116" fill="#FFFFFF" mask="url(#mask-3)"></path>
                        <path d="M144.411529,104.155723 C145.317983,104.159057 146.224438,104.162868 147.130893,104.166202 C146.951406,104.863986 146.599081,105.668939 145.888257,105.775155 C145.462332,105.838979 145.034983,105.607972 144.750559,105.284086 C144.46566,104.9602 144.296619,104.552484 144.132802,104.153342" id="Fill-117" fill="#180A86" mask="url(#mask-3)"></path>
                        <path d="M143.385131,101.832125 C143.320079,101.832125 143.254078,101.823552 143.187126,101.805928 C142.88086,101.723528 142.64012,101.450606 142.557974,101.092902 C142.494346,100.814265 142.531383,100.542772 142.564146,100.303191 C142.585514,100.146011 142.730338,100.038367 142.884658,100.058372 C143.040878,100.079805 143.149615,100.224125 143.128722,100.380353 C143.101182,100.580876 143.073167,100.788545 143.113527,100.965253 C143.146291,101.10862 143.236984,101.227696 143.334799,101.253893 C143.470126,101.291521 143.634418,101.164824 143.708967,101.027649 C143.815804,100.830459 143.830049,100.571827 143.843344,100.321767 C143.851417,100.164587 143.993391,100.047417 144.142964,100.051703 C144.300133,100.060277 144.42074,100.195071 144.412193,100.352727 C144.396999,100.636604 144.378006,100.990021 144.208965,101.301047 C144.05417,101.586353 143.737457,101.832125 143.385131,101.832125" id="Fill-118" fill="#180A86" mask="url(#mask-3)"></path>
                        <path d="M147.525763,101.832125 C147.460711,101.832125 147.39471,101.823552 147.327758,101.805928 C147.021491,101.723528 146.780752,101.450606 146.698606,101.092902 C146.634978,100.814265 146.672015,100.542772 146.704778,100.303191 C146.725671,100.146011 146.872869,100.038367 147.02529,100.058372 C147.18151,100.079805 147.290246,100.224125 147.269354,100.380353 C147.241814,100.580876 147.213798,100.788545 147.254159,100.965253 C147.286923,101.10862 147.377616,101.227696 147.475431,101.253893 C147.610283,101.291521 147.77505,101.164824 147.849599,101.027649 C147.956436,100.830459 147.970681,100.571827 147.983976,100.321767 C147.992523,100.164587 148.130699,100.047417 148.283595,100.051703 C148.440765,100.060277 148.561372,100.195071 148.552825,100.352727 C148.537631,100.636604 148.518637,100.990021 148.349597,101.301047 C148.194802,101.586353 147.878089,101.832125 147.525763,101.832125" id="Fill-119" fill="#180A86" mask="url(#mask-3)"></path>
                        <path d="M171.693963,150.758526 C171.079056,144.352246 171.681143,111.861692 171.73195,108.405635 C171.756166,106.740002 171.782282,105.061509 172.137457,103.434933 C173.173066,98.6928576 177.339243,94.7119145 182.155467,94.238469 C186.97169,93.7659761 191.98022,97.088668 193.123616,101.8055 C193.64973,103.975538 193.407566,106.246076 193.401393,108.479462 C193.384774,114.314177 195.040039,120.14413 198.119801,125.093874 C199.308306,127.004327 200.699089,128.779509 201.930329,130.662813 C205.822529,136.616128 208.062787,143.643983 208.335816,150.758526 L171.693963,150.758526 Z" id="Fill-120" fill="#FFFFFF" mask="url(#mask-3)"></path>
                        <path d="M167.866103,104.722238 C166.015682,104.394065 164.250256,102.75844 164.475801,100.88752 C164.680929,99.184736 166.369907,98.0492289 168.01805,97.5934066 C169.666667,97.1375844 171.433993,97.1137692 173.007112,96.4426578 C175.020875,95.5834066 176.466739,93.7744066 178.321909,92.6088924 C179.820004,91.6677171 181.560739,91.166646 183.31382,90.9356389 C186.923969,90.4598118 190.895466,91.2290417 193.44389,93.837755 C195.736855,96.185454 196.544545,99.6724706 196.375979,102.954677 C196.28956,104.633646 195.975696,106.317855 196.186521,107.986345 C196.397347,109.653883 197.278635,111.376196 198.843207,111.980148 C200.02364,112.435494 201.633796,112.34452 202.194573,113.481456 C202.349368,113.794388 202.384981,114.151615 202.405399,114.500269 C202.49989,116.145897 202.266273,117.877736 201.329904,119.232343 C199.627155,121.695783 195.965249,122.173516 193.251108,120.918456 C190.537442,119.663873 188.659006,117.081357 187.354167,114.384527 C186.049803,111.687222 185.197479,108.784629 183.833761,106.117331 C182.5218,103.551009 180.170905,100.961824 177.317639,101.317622 C175.422108,101.553869 174.722681,102.995163 173.2526,103.859177 C171.847571,104.68461 169.44492,105.002305 167.866103,104.722238" id="Fill-121" fill="#FFFFFF" mask="url(#mask-3)"></path>
                        <path d="M177.239861,106.482084 C177.174809,106.482084 177.108807,106.47351 177.041856,106.455887 C176.735589,106.37301 176.494374,106.100089 176.412703,105.742385 C176.349076,105.464224 176.386113,105.192731 176.418876,104.95315 C176.439769,104.796446 176.586492,104.689755 176.739388,104.70833 C176.895608,104.729764 177.004344,104.874084 176.983452,105.030311 C176.955911,105.230835 176.927896,105.438503 176.968257,105.614736 C177.00102,105.758579 177.092188,105.877179 177.190004,105.903852 C177.324856,105.940051 177.488673,105.814783 177.563697,105.677608 C177.671009,105.479942 177.684779,105.221785 177.698074,104.971726 C177.706621,104.814546 177.843373,104.700709 177.998168,104.701656 C178.155338,104.710236 178.275945,104.845029 178.267398,105.002686 C178.251729,105.286563 178.232735,105.639503 178.063695,105.951006 C177.9089,106.236311 177.592187,106.482084 177.239861,106.482084" id="Fill-122" fill="#180A86" mask="url(#mask-3)"></path>
                        <path d="M181.380493,106.482084 C181.315441,106.482084 181.249439,106.47351 181.182488,106.455887 C180.876221,106.37301 180.635006,106.100089 180.553335,105.742385 C180.489708,105.464224 180.526745,105.192731 180.559508,104.95315 C180.580876,104.796446 180.726174,104.689755 180.88002,104.70833 C181.03624,104.729764 181.144976,104.874084 181.124084,105.030311 C181.096543,105.230835 181.068528,105.438503 181.108889,105.614736 C181.141652,105.758579 181.23282,105.877179 181.330636,105.903852 C181.466912,105.940051 181.629305,105.814783 181.704329,105.677608 C181.811641,105.479942 181.825411,105.221785 181.838706,104.971726 C181.847253,104.814546 181.988278,104.700709 182.1388,104.701656 C182.295969,104.710236 182.416577,104.845029 182.40803,105.002686 C182.39236,105.286563 182.373367,105.639503 182.204327,105.951006 C182.049532,106.236311 181.732818,106.482084 181.380493,106.482084" id="Fill-123" fill="#180A86" mask="url(#mask-3)"></path>
                        <path d="M181.135669,109.934378 L177.746792,109.934378 C177.589148,109.934378 177.461893,109.806252 177.461893,109.648596 C177.461893,109.490463 177.589148,109.362814 177.746792,109.362814 L181.135669,109.362814 C181.293314,109.362814 181.420569,109.490463 181.420569,109.648596 C181.420569,109.806252 181.293314,109.934378 181.135669,109.934378" id="Fill-124" fill="#180A86" mask="url(#mask-3)"></path>
                        <path d="M145.332893,120.3407 C145.137262,120.324982 144.950653,120.182091 144.839542,119.998715 C144.729381,119.813909 144.676675,119.598144 144.677625,119.382855 C144.670977,118.92989 144.915041,118.550276 145.121118,118.248776 C145.343339,117.943942 145.562712,117.691978 145.697564,117.408101 C145.825769,117.11708 145.925959,116.796051 145.773537,116.437395 C146.135834,116.635537 146.224628,117.156613 146.131086,117.546705 C146.047516,117.970139 145.792056,118.299741 145.595001,118.589333 C145.3837,118.879402 145.198516,119.137558 145.128715,119.427627 C145.067462,119.722935 145.052742,120.068731 145.332893,120.3407" id="Fill-125" fill="#180A86" mask="url(#mask-3)"></path>
                        <path d="M146.970922,120.517218 C146.740628,120.376709 146.545472,120.192856 146.427714,119.916124 C146.29571,119.64082 146.359338,119.256444 146.492291,119.017816 C146.626194,118.76728 146.790486,118.581998 146.939108,118.412434 C147.084882,118.235726 147.219259,118.105218 147.255821,117.827057 C147.473294,118.01996 147.439581,118.40529 147.334168,118.639631 C147.240627,118.895882 147.098177,119.097835 147.010808,119.284545 C146.908719,119.473638 146.866459,119.603669 146.867408,119.805145 C146.873106,120.006145 146.940533,120.245726 146.970922,120.517218" id="Fill-126" fill="#180A86" mask="url(#mask-3)"></path>
                        <polygon id="Fill-127" fill="#180A86" mask="url(#mask-3)" points="142.182049 122.021718 150.429885 122.021718 148.716215 130.217945 144.175395 130.217945"></polygon>
                        <polygon id="Fill-128" fill="#FFFFFF" mask="url(#mask-3)" points="142.181859 126.298493 151.740706 126.298493 151.740706 125.941265 142.181859 125.941265"></polygon>
                        <polygon id="Fill-129" fill="#FFFFFF" mask="url(#mask-3)" points="142.181859 127.842668 151.740706 127.842668 151.740706 127.485441 142.181859 127.485441"></polygon>
                        <polygon id="Fill-130" fill="#FFFFFF" mask="url(#mask-3)" points="142.181859 129.386844 151.740706 129.386844 151.740706 129.029616 142.181859 129.029616"></polygon>
                        <path d="M144.886361,127.329213 C144.886361,128.827664 143.675539,130.041761 142.182191,130.041761 C140.688844,130.041761 139.478022,128.827664 139.478022,127.329213 C139.478022,125.831239 140.688844,124.616666 142.182191,124.616666 C143.675539,124.616666 144.886361,125.831239 144.886361,127.329213" id="Fill-131" fill="#FFFFFF" mask="url(#mask-3)"></path>
                        <path d="M173.03337,120.3407 C172.837739,120.324982 172.65113,120.182091 172.540019,119.998715 C172.429858,119.813909 172.377152,119.598144 172.377627,119.382855 C172.370979,118.92989 172.615518,118.550276 172.821595,118.248776 C173.043816,117.943942 173.263189,117.691978 173.397566,117.408101 C173.525771,117.11708 173.626435,116.796051 173.474014,116.437395 C173.836311,116.635537 173.925105,117.156613 173.831563,117.546705 C173.747518,117.970139 173.492058,118.299741 173.295477,118.589333 C173.084177,118.879402 172.898992,119.137558 172.829192,119.427627 C172.767939,119.722935 172.753219,120.068731 173.03337,120.3407" id="Fill-132" fill="#FF5958" mask="url(#mask-3)"></path>
                        <path d="M174.671399,120.517218 C174.441105,120.376709 174.245949,120.192856 174.128191,119.916124 C173.996187,119.64082 174.059815,119.256444 174.192293,119.017816 C174.32667,118.76728 174.490962,118.581998 174.639585,118.412434 C174.785358,118.235726 174.919736,118.105218 174.955823,117.827057 C175.173771,118.01996 175.140058,118.40529 175.034645,118.639631 C174.940629,118.895882 174.798654,119.097835 174.711285,119.284545 C174.609196,119.473638 174.566936,119.603669 174.567885,119.805145 C174.573583,120.006145 174.640535,120.245726 174.671399,120.517218" id="Fill-133" fill="#FF5958" mask="url(#mask-3)"></path>
                        <polygon id="Fill-134" fill="#FF5958" mask="url(#mask-3)" points="169.882526 122.021718 178.130361 122.021718 176.416217 130.217945 171.875871 130.217945"></polygon>
                        <polygon id="Fill-135" fill="#FFFFFF" mask="url(#mask-3)" points="169.882621 126.298493 179.441468 126.298493 179.441468 125.941265 169.882621 125.941265"></polygon>
                        <polygon id="Fill-136" fill="#FFFFFF" mask="url(#mask-3)" points="169.882621 127.842668 179.441468 127.842668 179.441468 127.485441 169.882621 127.485441"></polygon>
                        <polygon id="Fill-137" fill="#FFFFFF" mask="url(#mask-3)" points="169.882621 129.386844 179.441468 129.386844 179.441468 129.029616 169.882621 129.029616"></polygon>
                        <path d="M173.354499,127.329213 C173.354499,128.827664 172.143677,130.041761 170.65033,130.041761 C169.156982,130.041761 167.94616,128.827664 167.94616,127.329213 C167.94616,125.831239 169.156982,124.616666 170.65033,124.616666 C172.143677,124.616666 173.354499,125.831239 173.354499,127.329213" id="Fill-138" fill="#FFFFFF" mask="url(#mask-3)"></path>
                    </g>
                </g>
            </g>
        </g>
    </g>
</svg>