<?xml version="1.0" encoding="UTF-8"?>
<svg width="324px" height="251px" viewBox="0 0 324 251" version="1.1" xmlns="http://www.w3.org/2000/svg" xmlns:xlink="http://www.w3.org/1999/xlink">
    <!-- Generator: Sketch 63.1 (92452) - https://sketch.com -->
    <title>Group 13</title>
    <desc>Created with Sketch.</desc>
    <defs>
        <circle id="path-1" cx="40" cy="40" r="40"></circle>
        <polygon id="path-3" points="0.54508775 0.554026221 122.189616 0.554026221 122.189616 124.528108 0.54508775 124.528108"></polygon>
        <circle id="path-5" cx="40" cy="40" r="40"></circle>
        <polygon id="path-7" points="0 0.305104549 34.2741132 0.305104549 34.2741132 28.6249057 0 28.6249057"></polygon>
        <polygon id="path-9" points="0.577685834 0.0332075472 34.0677625 0.0332075472 34.0677625 33.0703396 0.577685834 33.0703396"></polygon>
        <circle id="path-11" cx="40" cy="40" r="40"></circle>
        <polygon id="path-13" points="0.000146205726 0.331845944 94.544874 0.331845944 94.544874 46.7924528 0.000146205726 46.7924528"></polygon>
        <polygon id="path-15" points="0.515645283 0.164871355 12.4733811 0.164871355 12.4733811 6.18557804 0.515645283 6.18557804"></polygon>
    </defs>
    <g id="Landing_1" stroke="none" stroke-width="1" fill="none" fill-rule="evenodd">
        <g id="Mobile_iPhone-8" transform="translate(-33.000000, -344.000000)">
            <g id="Group-13" transform="translate(33.497738, 344.000000)">
                <circle id="Oval" fill="#180060" cx="23.8914027" cy="39.745751" r="23.8914027"></circle>
                <circle id="Oval-Copy-6" fill="#180060" cx="23.8914027" cy="126.352086" r="23.8914027"></circle>
                <circle id="Oval-Copy-10" fill="#180060" cx="23.8914027" cy="210.96747" r="23.8914027"></circle>
                <circle id="Oval-Copy-3" fill="#180060" cx="111.493213" cy="39.745751" r="23.8914027"></circle>
                <circle id="Oval-Copy-11" fill="#180060" cx="111.493213" cy="210.96747" r="23.8914027"></circle>
                <circle id="Oval-Copy-4" fill="#180060" cx="196.108597" cy="39.745751" r="23.8914027"></circle>
                <circle id="Oval-Copy-12" fill="#180060" cx="196.108597" cy="210.96747" r="23.8914027"></circle>
                <circle id="Oval-Copy-9" fill="#180060" cx="283.710407" cy="126.352086" r="23.8914027"></circle>
                <g id="wolf" transform="translate(73.502262, 85.000000)">
                    <g id="Group-9">
                        <mask id="mask-2" fill="white">
                            <use xlink:href="#path-1"></use>
                        </mask>
                        <use id="Oval-Copy-7" fill="#180060" xlink:href="#path-1"></use>
                        <g id="Group-58" mask="url(#mask-2)">
                            <g transform="translate(17.358491, 11.320755)">
                                <g id="Group-3" stroke="none" stroke-width="1" fill="none" fill-rule="evenodd">
                                    <mask id="mask-4" fill="white">
                                        <use xlink:href="#path-3"></use>
                                    </mask>
                                    <g id="Clip-2"></g>
                                    <path d="M122.128353,105.016282 C121.302579,105.099083 116.811497,101.91155 112.525713,98.0087938 C108.23993,94.1066897 110.065392,83.7812724 105.128405,71.6237894 C101.282642,62.1518147 95.4714987,55.3021061 89.3491377,55.1052079 C89.2379885,54.9787237 69.994788,53.7816872 58.5098037,53.0788521 C55.8494142,44.5463815 51.9912283,19.0891455 50.7202042,18.39935 C49.4498339,17.7108584 45.2098178,20.6493352 42.4552784,21.7740018 C42.0727943,21.9304771 41.6759261,22.0889084 41.2627125,22.0784767 C40.8671521,22.068045 40.495129,21.9030939 40.1335671,21.7414027 C37.8824684,20.7314847 35.6320234,19.7209147 33.3815784,18.7109967 C33.5136499,16.2015233 33.9307864,12.0444947 32.960519,11.1995278 C31.9902516,10.3552129 27.8319629,15.6343001 25.2676848,17.8516863 C20.6889904,16.950649 16.4542048,14.2475373 12.9105059,11.2190872 C9.3674608,8.19063716 6.3134723,4.64451447 3.08426032,1.28551022 C2.66320089,0.848031216 2.06953325,0.375345253 1.51313329,0.621793935 C1.02930723,0.837599526 0.916850368,1.46089302 0.87696741,1.98899733 C0.531750984,6.58480885 0.728550499,11.2210432 1.46344304,15.771216 C0.223148421,16.2458579 0.43694723,18.0564082 0.95477187,19.276264 C2.51413016,22.9488709 4.73515326,26.2967915 6.94506145,29.6205888 C9.77479003,33.8799783 12.6051724,38.1387158 15.4355548,42.3981053 C15.9030354,43.1015924 16.4738194,55.4083789 17.0890631,71.3134466 L16.9877211,71.3708209 C17.8036872,93.354956 18.6889581,119.83189 19.4382347,122.610631 C20.2483164,123.016163 22.2320032,123.733994 22.8269785,123.050718 C23.4226076,122.368746 23.6762894,121.460537 23.8815885,120.579712 C25.0551936,115.532729 26.823774,89.8349126 29.7456911,89.9698726 C32.6669543,90.1048326 33.5044964,98.0303092 33.5685707,100.57173 C33.6810275,105.048881 33.4240767,110.992988 32.8022948,115.428413 C32.5675738,117.107263 32.2805473,119.554798 32.642763,121.210829 C33.0049787,122.86686 36.030853,124.727612 38.0629224,124.029993 C40.0949918,123.331722 39.3162934,104.164795 41.6759261,95.2359202 C41.9413767,94.23187 42.2754782,93.223256 42.8933371,92.3874168 C43.7302254,91.2562304 72.0229345,90.7359498 74.3701447,92.7629576 C77.7562732,95.6864388 77.8275395,113.066939 77.9354196,117.098135 C77.9759564,118.598342 78.0348001,121.552467 78.7422323,122.876639 C79.4496644,124.20016 83.1698945,123.943932 83.9557849,123.318682 C84.7416753,122.692781 83.4529981,105.084088 84.6991771,96.0626316 C84.9410901,94.3114116 85.7734017,92.0855497 87.5439435,92.1931265 C89.3837901,92.3052672 89.8748082,94.77171 89.7571208,96.6057315 C89.1458,106.183327 90.6005473,111.736898 90.475014,122.11969 C90.4612838,123.236533 91.6041594,124.21646 92.6940757,124.474644 C93.8925259,124.758907 95.1190903,123.869606 95.6369149,122.755371 C96.1553934,121.640484 96.1383941,120.362602 96.1109337,119.134922 C95.9383255,111.438943 95.7670249,106.658621 95.5944167,98.9632935 C95.5558414,97.2466285 95.5179199,95.5299634 95.4793446,93.8132984 C95.452538,92.6377773 95.4263852,91.4622562 95.4002325,90.2867352 C95.2459312,83.3920399 95.0909761,76.4960407 94.7522979,69.6078653 C94.6601094,67.7503724 97.8141322,71.6674721 98.6425208,84.4117376 C99.4709095,97.1573071 101.575553,104.226081 108.438691,107.95541 C115.301175,111.68474 122.953472,104.932828 122.128353,105.016282" id="Fill-1" fill="#FF5958" mask="url(#mask-4)"></path>
                                </g>
                                <path d="M44.8990408,23.9714094 C44.6622086,23.776366 44.4210816,23.4550087 44.5787652,23.1906166 L48.9031003,21.1324443 C48.972432,21.0996274 49.0779634,23.2673956 49.0528077,23.4772994 C48.9828624,24.056857 48.8540159,25.2679836 48.2956809,25.5868641 C47.5434626,26.017198 45.4647385,24.437656 44.8990408,23.9714094" id="Fill-4" stroke="none" fill="#BDBDEF" fill-rule="evenodd"></path>
                                <path d="M27.2719064,17.4211816 C27.221609,17.3843361 27.1671202,17.3347364 27.1699145,17.2709653 C27.1713116,17.2156971 27.216719,17.173183 27.2579349,17.1377547 C28.4259527,16.1415091 29.6449665,15.2069089 30.9093877,14.3396226 C31.0337341,14.9766246 30.7983142,15.6285065 30.5077069,16.2066973 C30.29045,16.6389233 29.9355738,17.8824588 29.5262087,18.0560578 C28.97154,18.2913021 27.7162003,17.7449968 27.2719064,17.4211816" id="Fill-6" stroke="none" fill="#BDBDEF" fill-rule="evenodd"></path>
                                <path d="M2.39646674,20.5749403 C1.69131205,19.6136405 0.630278713,16.2343126 2.81639033,17.7388947 C4.42081534,18.8444598 3.82064154,22.5172445 2.39646674,20.5749403" id="Fill-8" stroke="none" fill="#180A86" fill-rule="evenodd"></path>
                                <line x1="100.754717" y1="76.9811321" x2="100.754717" y2="80.754717" id="Stroke-10" stroke="#FFFFFF" stroke-width="2" fill="none" stroke-linecap="round" stroke-linejoin="round"></line>
                                <path d="M101.239623,85.2830189 C101.290943,86.3014853 101.47283,87.3155427 101.779245,88.3018868" id="Stroke-12" stroke="#FFFFFF" stroke-width="2" fill="none" stroke-linecap="round" stroke-linejoin="round"></path>
                                <path d="M103.412453,80.754717 C103.812453,81.9809241 104.056226,83.2501074 104.134717,84.5283019" id="Stroke-14" stroke="#FFFFFF" stroke-width="2" fill="none" stroke-linecap="round" stroke-linejoin="round"></path>
                                <path d="M103.396226,93.5849057 C103.85006,94.8687026 104.354086,96.1277992 104.90566,97.3584906" id="Stroke-16" stroke="#FFFFFF" stroke-width="2" fill="none" stroke-linecap="round" stroke-linejoin="round"></path>
                                <path d="M105.660377,89.8113208 C105.981463,90.8886299 106.494538,91.9140966 107.169811,92.8301887" id="Stroke-18" stroke="#FFFFFF" stroke-width="2" fill="none" stroke-linecap="round" stroke-linejoin="round"></path>
                                <path d="M102.641509,70.9433962 C102.775882,71.6218419 102.910952,72.2996725 103.044629,72.9781181 C103.112859,73.3194938 103.184571,73.6707109 103.396226,73.9622642" id="Stroke-20" stroke="#FFFFFF" stroke-width="2" fill="none" stroke-linecap="round" stroke-linejoin="round"></path>
                                <path d="M97.3584906,66.4150943 C97.7050622,67.3946113 97.9578074,68.4073027 98.1132075,69.4339623" id="Stroke-22" stroke="#FFFFFF" stroke-width="2" fill="none" stroke-linecap="round" stroke-linejoin="round"></path>
                                <path d="M107.924528,101.132075 C108.350277,102.108566 109.171829,102.930683 110.188679,103.396226" id="Stroke-24" stroke="#FFFFFF" stroke-width="2" fill="none" stroke-linecap="round" stroke-linejoin="round"></path>
                                <path d="M110.943396,99.6226415 C111.517573,100.618029 112.310174,101.410444 113.207547,101.886792" id="Stroke-26" stroke="#FFFFFF" stroke-width="2" fill="none" stroke-linecap="round" stroke-linejoin="round"></path>
                                <path d="M110.943396,105.660377 C111.517687,106.243624 112.395286,106.521715 113.207547,106.377595" id="Stroke-28" stroke="#FFFFFF" stroke-width="2" fill="none" stroke-linecap="round" stroke-linejoin="round"></path>
                                <path d="M99.05824,72.4528302 C99.0514475,72.9736617 99.1812588,73.4958896 99.4325796,73.9622642" id="Stroke-30" stroke="#FFFFFF" stroke-width="2" fill="none" stroke-linecap="round" stroke-linejoin="round"></path>
                                <path d="M45.2259749,36.2264151 C45.4945073,39.8788525 44.8108523,43.5977926 43.2619262,46.9125001 C42.6372965,46.1868374 41.8842382,45.5733166 41.0481554,45.111057 C41.7155946,49.4506898 40.9787521,53.9976549 38.9744884,57.9004557 C38.0690023,56.7216612 37.0058993,55.6654405 35.8228,54.7696088 C33.9975579,59.5030424 32.1729645,64.2364761 30.3477224,68.9705617 C29.2197565,66.9546145 27.9445519,65.0227737 26.5363783,63.1945991 C25.1995538,66.2804588 23.8627294,69.3669705 22.5265536,72.4528302 L19.6226415,66.8900677" id="Stroke-32" stroke="#FFFFFF" stroke-width="2" fill="none" stroke-linecap="round" stroke-linejoin="round"></path>
                                <line x1="21.509434" y1="55.8490566" x2="21.509434" y2="58.8679245" id="Stroke-34" stroke="#FFFFFF" stroke-width="2" fill="none" stroke-linecap="round" stroke-linejoin="round"></line>
                                <line x1="24.5283019" y1="57.3584906" x2="24.5283019" y2="58.8679245" id="Stroke-36" stroke="#FFFFFF" stroke-width="2" fill="none" stroke-linecap="round" stroke-linejoin="round"></line>
                                <path d="M30.0575064,53.5849057 C30.1556196,54.1119302 29.9661856,54.6645008 29.5397705,55.0943396" id="Stroke-38" stroke="#FFFFFF" stroke-width="2" fill="none" stroke-linecap="round" stroke-linejoin="round"></path>
                                <path d="M27.6360889,48.3018868 C27.7175983,49.3106046 27.6466549,50.328595 27.4255229,51.3207547" id="Stroke-40" stroke="#FFFFFF" stroke-width="2" fill="none" stroke-linecap="round" stroke-linejoin="round"></path>
                                <line x1="23.0188679" y1="47.5471698" x2="23.0188679" y2="49.0566038" id="Stroke-42" stroke="#FFFFFF" stroke-width="2" fill="none" stroke-linecap="round" stroke-linejoin="round"></line>
                                <path d="M33.9042023,44.5283019 C34.0038249,45.564282 33.7713721,46.6249283 33.2430702,47.5471698" id="Stroke-44" stroke="#FFFFFF" stroke-width="2" fill="none" stroke-linecap="round" stroke-linejoin="round"></path>
                                <path d="M31.4828584,42.2641509 C31.4964433,42.5290484 31.3809716,42.7953908 31.1575754,43.0188679" id="Stroke-46" stroke="#FFFFFF" stroke-width="2" fill="none" stroke-linecap="round" stroke-linejoin="round"></path>
                                <line x1="19.245283" y1="43.7735849" x2="19.245283" y2="46.7924528" id="Stroke-48" stroke="#FFFFFF" stroke-width="2" fill="none" stroke-linecap="round" stroke-linejoin="round"></line>
                                <path d="M38.3012938,40 C38.5178976,41.0150359 38.3511051,42.0863917 37.8326145,43.0188679" id="Stroke-50" stroke="#FFFFFF" stroke-width="2" fill="none" stroke-linecap="round" stroke-linejoin="round"></path>
                                <path d="M26.2275472,41.509434 C26.1007547,42.0122049 25.9739623,42.5155364 25.8479245,43.0188679" id="Stroke-52" stroke="#FFFFFF" stroke-width="2" fill="none" stroke-linecap="round" stroke-linejoin="round"></path>
                                <path d="M26.4241411,24.1509434 C26.3975825,25.3395955 26.391406,26.6096808 26.9744616,27.6080938 C27.556282,28.6071911 28.9675977,29.0923692 29.7174171,28.2410835 C30.5234421,27.3261567 29.9959744,25.8008226 30.1886792,24.5403176" id="Stroke-54" stroke="#180A86" stroke-width="1.8" fill="none" stroke-linecap="round" stroke-linejoin="round"></path>
                                <path d="M0.978892134,1.12187451 C1.06004809,0.662642413 1.25318669,0.132952789 1.70489195,0.0203465626 C2.0660045,-0.0696126016 2.4246006,0.154341681 2.71525217,0.385844985 C3.27076156,0.828091785 3.77027962,1.33953794 4.19870759,1.9057145 C4.35095365,2.10639264 4.49942502,2.32657241 4.52458965,2.57694826 C4.55919103,2.91979962 4.34780807,3.25384379 4.06156031,3.44571474 C3.77468344,3.6369566 3.42489497,3.70804321 3.08202677,3.73949746 C2.57244285,3.78667884 1.20851946,3.85839454 0.879491814,3.38028989 C0.585065547,2.95377022 0.892703249,1.60627001 0.978892134,1.12187451" id="Fill-56" stroke="none" fill="#FFFFFF" fill-rule="evenodd"></path>
                            </g>
                        </g>
                    </g>
                </g>
                <g id="Gorilla" transform="translate(243.502262, 171.000000)">
                    <g id="Group-9" stroke-width="1" fill-rule="evenodd"></g>
                    <mask id="mask-6" fill="white">
                        <use xlink:href="#path-5"></use>
                    </mask>
                    <use id="Oval-Copy-7" fill="#180060" fill-rule="evenodd" xlink:href="#path-5"></use>
                    <g id="Group-65" stroke-width="1" fill-rule="evenodd" mask="url(#mask-6)">
                        <g transform="translate(-79.245283, -28.679245)">
                            <path d="M217.402189,65.5459623 C210.632377,52.7376604 189.645962,19.0848302 185.747849,17.4153962 C181.849736,15.7452075 174.737283,20.0055849 172.089736,23.3187925 C170.235396,25.6387925 161.199925,31.442566 163.016528,33.792 C169.728226,42.4659623 202.405208,74.5791698 192.328981,88.7286038 C184.320679,99.9753962 151.042943,92.7640755 147.004453,86.3399245 C145.06634,82.7670943 146.034642,75.3738868 146.305585,69.8810566 C147.092,53.9308679 140.999925,50.5293585 135.290491,47.2908679 C129.057283,43.7535094 121.725962,42.3882264 114.691245,43.757283 C111.738038,44.3323774 106.62483,45.002566 102.034642,53.0350189 C96.4399245,62.8259623 94.3689811,81.8297358 88.6323774,87.5301132 C80.9818113,93.4584151 64.9138868,96.0357736 55.7304906,85.322566 C37.8912453,64.5104906 32.6678491,28.9512453 32.6678491,28.9512453 C32.6678491,28.9512453 26.8195472,31.0108679 23.8957736,32.0410566 C23.5259623,30.9550189 21.9833208,30.6999245 20.9855849,31.2652075 C19.9878491,31.8297358 19.4165283,32.9104906 18.897283,33.9331321 C17.4142642,31.5889811 13.0889811,32.2991698 12.4331321,34.9950189 C11.9070943,34.3565283 11.3810566,33.717283 10.8550189,33.0780377 C8.87388679,33.1187925 7.56898113,35.3557736 7.6429434,37.3353962 C7.71766038,39.3157736 7.63992453,42.7927547 7.63992453,42.7927547 C7.63992453,42.7927547 15.5365283,85.2289811 31.9342642,109.64483 C45.5946415,129.984453 69.7191698,136.998792 79.0995472,135.932377 C79.4240755,146.985208 91.7576604,180.222943 92.2104906,183.853132 C93.6761509,195.610113 71.5863396,199.068981 69.377283,210.708981 C68.6701132,214.438792 67.2595472,225.818415 65.1991698,229.007849 C63.1403019,232.196528 52.1176604,227.974642 52.2444528,233.280302 C59.3712453,237.778415 66.1953962,239.643321 74.332,237.443321 C81.7478491,237.872 72.7070943,219.792 89.3078491,212.889358 C106.749358,208.302943 143.532,207.190491 158.02634,212.572377 C159.789358,219.192 161.553132,225.811623 163.316906,232.431245 C163.721434,233.952 164.144075,235.509736 165.059547,236.789736 C167.050491,239.569358 170.98483,240.364075 174.316151,239.594264 C177.647472,238.824453 183.311623,237.918792 183.310868,234.811623 C183.35917,230.60483 177.258038,231.821434 173.967472,231.118792 C174.352377,221.160302 174.046717,211.176151 173.052755,201.259925 C172.831623,199.053887 172.562189,196.799547 171.577283,194.813132 C167.94634,187.488604 157.720679,187.735396 149.863321,185.477283 C148.217283,185.00483 146.515396,184.302943 145.547849,182.890113 C144.524453,181.394264 154.880679,141.975396 154.880679,141.975396 C154.880679,141.975396 193.645962,127.444075 203.380302,120.850113 C218.075396,110.896151 222.908604,103.588981 224.360679,91.2787925 C225.418038,82.3135094 221.620302,73.5270943 217.402189,65.5459623" id="Fill-1" stroke="none" fill="#FF5958" fill-rule="evenodd"></path>
                            <g id="Group-5" stroke="none" stroke-width="1" fill="none" fill-rule="evenodd" transform="translate(0.000000, 18.080000)">
                                <mask id="mask-8" fill="white">
                                    <use xlink:href="#path-7"></use>
                                </mask>
                                <g id="Clip-4"></g>
                                <path d="M9.43486792,28.6249057 C8.21750943,27.6588679 3.08015094,19.9569811 1.72920755,17.4867925 C0.924679245,16.0150943 0.132226415,14.4701887 0.0235471698,12.7962264 C-0.0843773585,11.1222642 0.100528302,9.34716981 2.2069434,8.61056604 C3.60015094,8.16075472 4.4069434,13.8807547 6.2114717,12.8649057 C8.20090566,11.8279245 5.58430189,8.74792453 5.77977358,7.53962264 C5.97524528,6.33056604 6.86430189,5.01886792 8.08241509,5.13584906 C9.09373585,5.23320755 9.72467925,6.23018868 10.3163774,7.05509434 C10.9088302,7.87924528 12.3767547,9.61962264 13.3027925,9.20075472 C14.6552453,8.4754717 12.0092075,5.63773585 12.3027925,4.32075472 C12.5956226,3.00377358 13.8839245,1.80679245 15.1948679,2.12226415 C16.2009057,2.36528302 16.8220377,3.34264151 17.3541132,4.23018868 C17.5239245,4.51169811 18.5533585,6.49207547 18.8658113,6.59245283 C19.5767547,6.82037736 20.2348679,6.16075472 20.1405283,5.42037736 C20.0469434,4.67924528 18.7080755,1.9290566 18.9616604,1.22641509 C19.3103396,0.258867925 20.7043019,0.0618867925 21.5843019,0.595471698 C22.4650566,1.12830189 22.9458113,2.11396226 23.381283,3.04679245 C24.2476981,4.90264151 25.1133585,6.75849057 25.9805283,8.61509434 C26.7050566,10.1683019 28.2575094,12.4030189 29.2175094,10.7811321 C29.8416604,8.92301887 27.9895849,7.30792453 27.1978868,5.06716981 C26.9518491,4.37132075 26.7020377,3.64075472 26.8114717,2.9109434 C26.9209057,2.18188679 27.5186415,1.46792453 28.2552453,1.49962264 C28.8839245,1.52679245 29.3631698,2.04981132 29.7495849,2.54490566 C32.3941132,5.93735849 34.2741132,18.1456604 34.2741132,18.1456604 L9.43486792,28.6249057 Z" id="Fill-3" fill="#FFFFFF" mask="url(#mask-8)"></path>
                            </g>
                            <g id="Group-8" stroke="none" stroke-width="1" fill="none" fill-rule="evenodd" transform="translate(151.698113, 0.721509)">
                                <mask id="mask-10" fill="white">
                                    <use xlink:href="#path-9"></use>
                                </mask>
                                <g id="Clip-7"></g>
                                <path d="M34.049434,16.6937358 C34.4275472,14.8605283 28.8471698,7.04769811 27.3060377,4.69071698 C26.3883019,3.2869434 25.3996226,1.8605283 23.974717,0.975245283 C22.5498113,0.0899622642 20.8969811,-0.583245283 19.2539623,0.926188679 C18.2003774,1.94203774 22.8637736,5.35184906 21.1173585,6.46354717 C19.2645283,7.72920755 17.7815094,3.96996226 16.6245283,3.57222642 C15.4667925,3.17449057 13.8901887,3.33901887 13.4192453,4.46883019 C13.0275472,5.40618868 13.609434,6.43260377 14.0577358,7.34430189 C14.505283,8.25524528 15.3475472,10.370717 14.5415094,10.9888302 C13.2645283,11.8393962 12.0101887,8.16769811 10.7098113,7.80543396 C9.4109434,7.44316981 7.74679245,8.01373585 7.40716981,9.31939623 C7.14679245,10.3209057 7.71584906,11.3299623 8.24716981,12.2182642 C8.41622642,12.4997736 9.67735849,14.3420377 9.61849057,14.6650566 C9.48339623,15.3993962 8.59283019,15.6680755 7.98301887,15.2356226 C7.37396226,14.8039245 5.58,12.3261887 4.84188679,12.2182642 C3.82301887,12.0703396 2.99283019,13.2061887 3.04792453,14.2333585 C3.10226415,15.261283 3.74528302,16.1510943 4.36188679,16.9744906 C5.58981132,18.6137358 6.81849057,20.2529811 8.04641509,21.8922264 C9.07433962,23.2643019 10.3128302,25.6869434 8.43056604,25.7676981 C6.49698113,25.4424151 5.94679245,23.0476981 4.3445283,21.2929811 C3.84641509,20.7480755 3.31962264,20.1835472 2.6245283,19.9352453 C1.92943396,19.6876981 1.01849057,19.8786415 0.699245283,20.5435472 C0.426792453,21.1095849 0.662264151,21.7790189 0.916603774,22.3533585 C2.66075472,26.2846792 7.51358491,31.0650566 11.3188679,33.0703396 L34.049434,16.6937358 Z" id="Fill-6" fill="#FFFFFF" mask="url(#mask-10)"></path>
                            </g>
                            <path d="M127.816377,86.8954717 C127.366566,89.9581132 126.044302,93.0109434 123.613358,94.9271698 C120.880528,97.0796226 117.186189,97.5098113 113.707698,97.5128616 C112.407321,97.5143396 111.081283,97.4630189 109.860151,97.0177358 C107.50317,96.1596226 105.892604,93.9784906 104.712981,91.7649057 C102.789962,88.1543396 101.725057,84.0298113 102.172604,79.9641509 C102.84883,73.8373585 107.871472,72.9566038 108.204302,70.8449057 C108.383925,69.305283 106.641283,68.2841509 106.721283,64.1769811 C106.765057,61.9203774 107.573358,59.5203774 109.512226,58.3649057 C111.657887,57.0856604 114.40883,57.5769811 116.752226,58.4441509 C119.094113,59.310566 121.386189,60.5286792 123.882792,60.6116981 C126.112226,60.6856604 128.347698,59.8388679 130.540906,60.2464151 C133.057887,60.7135849 135.093358,62.9007547 135.628453,65.4041509 C136.163547,67.9075472 135.294113,70.6079245 133.590717,72.5196226 C131.952981,74.3581132 128.546943,75.5981132 127.665434,77.8992453 C126.818642,80.1083019 128.186943,84.3732075 127.816377,86.8954717" id="Fill-9" stroke="none" fill="#FFFFFF" fill-rule="evenodd"></path>
                            <path d="M77.3313962,235.19917 C73.1442264,234.738792 69.4921509,231.804453 65.6551698,230.065585 C65.313283,229.910868 64.9653585,229.753887 64.5947925,229.696528 C64.1653585,229.629358 63.7283774,229.698038 63.2981887,229.759925 C58.9736604,230.382566 54.5487547,230.310868 50.2468679,229.550113 C49.9472453,230.234642 50.3359245,231.134264 51.0400755,231.38483 C50.6755472,231.273132 50.2317736,231.178038 49.9510189,231.436151 C49.6702642,231.695019 50.0302642,232.322943 50.3170566,232.070868 C49.8181887,232.235396 49.2008302,232.711623 49.5012075,233.141811 C49.5834717,233.260302 49.7193208,233.327472 49.8491321,233.390113 C56.2868679,236.467094 63.3442264,238.242943 70.4710189,238.580302 C71.8408302,238.645208 73.2551698,238.650491 74.5283774,238.143321 C75.8030943,237.636151 77.238566,236.566717 77.3313962,235.19917" id="Fill-11" stroke="none" fill="#FFFFFF" fill-rule="evenodd"></path>
                            <path d="M172.553283,232.253132 C173.010642,231.998038 173.474792,231.739925 173.980453,231.601811 C174.425736,231.479547 174.892906,231.453887 175.354792,231.428981 C178.803849,231.242566 182.25366,231.056906 185.703472,230.870491 C186.137434,230.847094 186.771396,231.21766 186.457434,231.518038 C186.846113,231.484075 187.235547,231.450113 187.624981,231.416151 C187.737434,231.949736 187.532906,232.53766 187.114038,232.88634 C187.56234,232.727094 188.003094,233.277283 187.926113,233.746717 C187.849132,234.216906 187.458189,234.56483 187.077057,234.849358 C184.801585,236.553509 182.043849,237.462189 179.331396,238.314264 C177.234038,238.973132 175.116302,239.618415 172.931396,239.867472 C171.294415,240.053887 169.601585,240.010113 168.049887,239.455396 C166.555547,238.921811 163.541962,237.108981 165.698943,235.712 C167.781962,234.363321 170.363094,233.472755 172.553283,232.253132" id="Fill-13" stroke="none" fill="#FFFFFF" fill-rule="evenodd"></path>
                            <path d="M111.665887,71.5941887 C112.466642,71.4877736 113.294566,71.3828679 114.068906,71.6107925 C114.843245,71.8379623 115.553434,72.4915472 115.579849,73.2983396 C117.242491,72.4628679 119.486264,73.0606038 120.513434,74.6123019" id="Stroke-17" stroke="#BDBDEF" stroke-width="1" fill="none" stroke-linecap="round" stroke-linejoin="round"></path>
                            <path d="M112.351321,77.5058868 C112.336981,77.5828679 112.318868,77.6636226 112.267547,77.7224906 C112.214717,77.7813585 112.136981,77.809283 112.06,77.8281509 C111.200377,78.0409811 110.344528,77.3428679 109.988302,76.5307925 C109.619245,75.6900377 109.681887,72.4606038 111.134717,73.1360755 C112.353585,73.7028679 112.55283,76.4296604 112.351321,77.5058868" id="Fill-19" stroke="none" fill="#180A86" fill-rule="evenodd"></path>
                            <path d="M116.089509,79.1107925 C116.066113,79.1855094 116.042717,79.2647547 116.06083,79.3409811 C116.078189,79.4179623 116.134792,79.4798491 116.192906,79.5326792 C116.849509,80.1281509 117.933283,79.9206038 118.632151,79.3749434 C119.356679,78.8104151 120.83517,75.938717 119.235925,75.8428679 C117.894038,75.7628679 116.423094,78.0677736 116.089509,79.1107925" id="Fill-21" stroke="none" fill="#180A86" fill-rule="evenodd"></path>
                            <path d="M99.6876981,120.948906 C99.6876981,121.948151 98.8778868,122.757962 97.8786415,122.757962 C96.8786415,122.757962 96.0688302,121.948151 96.0688302,120.948906 C96.0688302,119.94966 96.8786415,119.139849 97.8786415,119.139849 C98.8778868,119.139849 99.6876981,119.94966 99.6876981,120.948906" id="Fill-23" stroke="none" fill="#BDBDEF" fill-rule="evenodd"></path>
                            <path d="M139.229283,120.948906 C139.229283,121.948151 138.418717,122.757962 137.419472,122.757962 C136.420226,122.757962 135.60966,121.948151 135.60966,120.948906 C135.60966,119.94966 136.420226,119.139849 137.419472,119.139849 C138.418717,119.139849 139.229283,119.94966 139.229283,120.948906" id="Fill-25" stroke="none" fill="#BDBDEF" fill-rule="evenodd"></path>
                            <path d="M117.628453,162.351094 C117.219396,162.446943 116.786943,162.20166 116.555245,161.849962 C116.324302,161.499019 116.260906,161.064302 116.249585,160.643925 C116.232226,160.00317 116.414113,159.240906 117.014868,159.016755 C117.460151,158.850717 117.983925,159.075623 118.277509,159.449962 C118.571849,159.825057 118.675245,160.315623 118.703925,160.791094 C118.728075,161.188075 118.700906,161.608453 118.49034,161.945811 C118.279019,162.282415 117.838264,162.502792 117.469962,162.352604" id="Fill-27" stroke="none" fill="#BDBDEF" fill-rule="evenodd"></path>
                            <path d="M122.965283,82.9744906 C121.582642,85.2288302 118.74566,86.1209057 116.112453,86.3571321 C111.468679,86.7737358 106.699623,85.6680755 102.713208,83.2484528" id="Stroke-29" stroke="#180A86" stroke-width="1" fill="none" stroke-linecap="round" stroke-linejoin="round"></path>
                            <path d="M119.64566,41.9384151 C119.295472,42.4387925 118.95434,42.9135094 118.627547,43.3489811 C118.429057,43.6153962 118.219245,43.9127547 118.244906,44.2440755 C118.262264,44.4908679 118.408679,44.7074717 118.557358,44.9052075 C120.087925,46.9580377 122.282642,48.4297358 124.695472,49.3233208 C123.19434,48.0448302 120.469057,45.3346415 119.64566,41.9384151" id="Fill-31" stroke="none" fill="#BDBDEF" fill-rule="evenodd"></path>
                            <path d="M136.130038,41.7487547 C136.115698,40.5963019 136.091547,39.3902642 136.051547,38.1698868 C134.117962,37.4113962 132.324755,36.068 130.846264,34.2483774 C129.751925,32.9004528 128.832679,31.2898868 128.038717,29.3887547 C127.524755,30.0996981 126.995698,30.857434 126.460604,31.6468679 C127.664377,33.6287547 128.93683,35.6106415 130.459094,37.3600755 C132.225132,39.3887547 134.130038,40.857434 136.130038,41.7487547" id="Fill-33" stroke="none" fill="#BDBDEF" fill-rule="evenodd"></path>
                            <path d="M136.010642,37.0424906 C135.956302,35.694566 135.88083,34.3511698 135.779698,33.0681509 C134.414415,32.4062642 133.139698,31.3806038 131.994792,29.9677736 C131.216679,29.0077736 130.563094,27.9572075 129.965358,26.9043774 C129.576679,27.3624906 129.172906,27.8696604 128.757811,28.4183396 C129.563849,30.4847547 130.506491,32.1964528 131.646113,33.5994717 C132.904226,35.1481509 134.400075,36.324 136.010642,37.0424906" id="Fill-35" stroke="none" fill="#BDBDEF" fill-rule="evenodd"></path>
                            <path d="M134.867547,26.8366792 C134.530943,25.5981887 134.109811,24.7506415 133.580755,24.5106415 C133.396604,24.4268679 133.189057,24.4147925 132.964906,24.458566 C133.401887,25.3876226 134.054717,26.2087547 134.867547,26.8366792" id="Fill-37" stroke="none" fill="#BDBDEF" fill-rule="evenodd"></path>
                            <path d="M125.524226,45.5784151 C123.990642,43.7610566 122.698566,41.5957736 121.606491,39.037283 C121.221585,39.6206792 120.843472,40.1897358 120.474415,40.7346415 C120.903849,44.5240755 124.394415,47.9369057 126.296302,49.2795472 C126.629132,49.5142642 127.129509,49.8176604 127.676679,50.1203019 C128.923472,50.3512453 130.653283,50.5912453 132.321208,50.6123774 C129.816302,49.6018113 127.468377,47.8818113 125.524226,45.5784151" id="Fill-39" stroke="none" fill="#BDBDEF" fill-rule="evenodd"></path>
                            <path d="M135.674566,31.8704151 C135.548528,30.5617358 135.391547,29.3428679 135.195321,28.2877736 C135.150038,28.2651321 135.098717,28.2462642 135.056453,28.2221132 C133.740226,27.4681509 132.662491,26.2832453 132.014943,24.9081509 C131.606642,25.1926792 131.162113,25.5956981 130.688151,26.0960755 C131.307774,27.209283 131.988528,28.324 132.795321,29.318717 C133.685887,30.4190943 134.65117,31.273434 135.674566,31.8704151" id="Fill-41" stroke="none" fill="#BDBDEF" fill-rule="evenodd"></path>
                            <path d="M123.808453,35.6598491 C123.295245,36.4485283 122.786566,37.233434 122.283925,38.0024906 C123.391094,40.7489057 124.719396,43.0281509 126.311094,44.9149434 C128.74883,47.8024906 131.84317,49.718717 135.055245,50.3624906 C135.428075,50.2696604 135.775245,50.1541887 136.069585,49.998717 C136.069585,49.998717 136.088453,49.3489057 136.10883,48.2704151 C135.074868,48.2175849 134.119396,47.7028679 133.302038,47.1647547 C129.056,44.3707925 125.742038,40.3368302 123.808453,35.6598491" id="Fill-43" stroke="none" fill="#BDBDEF" fill-rule="evenodd"></path>
                            <path d="M129.682566,38.0356226 C128.213132,36.3473208 126.981434,34.4718491 125.827472,32.5880755 C125.390491,33.2424151 124.949736,33.9103396 124.509736,34.5835472 C126.318038,39.3571321 129.592,43.4899623 133.868226,46.3050566 C134.552755,46.7556226 135.336906,47.1948679 136.12483,47.2484528 C136.140679,46.0522264 136.150491,44.5443019 136.139925,42.8703396 C133.843321,41.941283 131.672755,40.3224151 129.682566,38.0356226" id="Fill-45" stroke="none" fill="#BDBDEF" fill-rule="evenodd"></path>
                            <path d="M120.474113,40.7346415 C120.192604,41.1512453 119.916377,41.552 119.645434,41.9384151 C120.46883,45.3346415 123.194113,48.0448302 124.696,49.3233208 C125.511849,49.6252075 126.351849,49.8621887 127.200151,50.032 C127.342038,50.0599245 127.516377,50.0901132 127.676377,50.1203019 C127.129208,49.8176604 126.62883,49.5142642 126.296755,49.2795472 C124.394113,47.9369057 120.903547,44.5240755 120.474113,40.7346415" id="Fill-47" stroke="none" fill="#FFFFFF" fill-rule="evenodd"></path>
                            <path d="M126.311396,44.914717 C124.719698,43.0279245 123.391396,40.7486792 122.284226,38.0022642 C122.056302,38.3509434 121.830642,38.6966038 121.606491,39.0369811 C122.698566,41.5962264 123.990642,43.7607547 125.524226,45.5781132 C127.468377,47.8822642 129.816302,49.6022642 132.321208,50.6128302 C133.306113,50.6249057 134.255547,50.5615094 135.055547,50.3622642 C131.842717,49.7192453 128.748377,47.8030189 126.311396,44.914717" id="Fill-49" stroke="none" fill="#FFFFFF" fill-rule="evenodd"></path>
                            <path d="M124.510038,34.5832453 C124.276075,34.9417358 124.042113,35.3009811 123.808151,35.6602264 C125.741736,40.3364528 129.055698,44.3711698 133.301736,47.1643774 C134.119094,47.7032453 135.074566,48.2179623 136.108528,48.2700377 C136.114566,47.9636226 136.119849,47.6209811 136.125132,47.2481509 C135.337208,47.194566 134.553057,46.7560755 133.867774,46.3047547 C129.591547,43.4904151 126.31834,39.3568302 124.510038,34.5832453" id="Fill-51" stroke="none" fill="#FFFFFF" fill-rule="evenodd"></path>
                            <path d="M130.459396,37.36 C128.936377,35.610566 127.664679,33.6286792 126.460906,31.6467925 C126.25034,31.9569811 126.039774,32.2701887 125.826943,32.5879245 C126.98166,34.4716981 128.212604,36.3471698 129.682792,38.0354717 C131.672226,40.3222642 133.842792,41.9411321 136.139396,42.8701887 C136.137887,42.5033962 136.134868,42.1298113 136.13034,41.7486792 C134.129585,40.8573585 132.225434,39.3886792 130.459396,37.36" id="Fill-53" stroke="none" fill="#FFFFFF" fill-rule="evenodd"></path>
                            <path d="M136.051925,38.1695849 C136.039849,37.7944906 136.026264,37.4186415 136.010415,37.0427925 C134.400604,36.3243019 132.904,35.1476981 131.645887,33.5990189 C130.506264,32.196 129.563623,30.4850566 128.757585,28.4178868 C128.521358,28.7295849 128.281358,29.0541132 128.039094,29.3884528 C128.833057,31.2895849 129.751547,32.9001509 130.846642,34.2488302 C132.325132,36.0676981 134.117585,37.4110943 136.051925,38.1695849" id="Fill-55" stroke="none" fill="#FFFFFF" fill-rule="evenodd"></path>
                            <path d="M135.78,33.0682264 C135.747547,32.661434 135.712075,32.2629434 135.67434,31.8704906 C134.650943,31.2735094 133.686415,30.4191698 132.795094,29.3187925 C131.989057,28.3240755 131.307547,27.2093585 130.687925,26.0953962 C130.453962,26.3421887 130.212453,26.6146415 129.96566,26.9044528 C130.563396,27.957283 131.216981,29.0078491 131.99434,29.9678491 C133.14,31.3806792 134.413962,32.4063396 135.78,33.0682264" id="Fill-57" stroke="none" fill="#FFFFFF" fill-rule="evenodd"></path>
                            <path d="M135.056226,28.2218868 C135.099245,28.2460377 135.149811,28.2649057 135.195849,28.2883019 C135.096981,27.7584906 134.986792,27.2754717 134.867547,26.8369811 C134.054717,26.2090566 133.401887,25.3871698 132.964906,24.4581132 C132.678113,24.5139623 132.359623,24.6686792 132.015472,24.9079245 C132.662264,26.2830189 133.74,27.4679245 135.056226,28.2218868" id="Fill-59" stroke="none" fill="#FFFFFF" fill-rule="evenodd"></path>
                            <path d="M121.813283,67.3577358 C121.735547,67.925283 121.658566,68.5086792 121.786868,69.0671698 C121.91517,69.6256604 122.294792,70.1637736 122.848,70.3124528 C123.529509,70.4950943 124.250264,70.0233962 124.588377,69.4030189 C124.925736,68.7833962 124.971774,68.0513208 125.009509,67.3464151" id="Stroke-61" stroke="#180A86" stroke-width="1" fill="none" stroke-linecap="round" stroke-linejoin="round"></path>
                            <path d="M110.869132,64.989283 C110.791396,65.5568302 110.714415,66.1394717 110.842717,66.698717 C110.971019,67.2572075 111.350642,67.7953208 111.903849,67.944 C112.585358,68.1266415 113.306113,67.6549434 113.644226,67.034566 C113.981585,66.4149434 114.027623,65.6828679 114.064604,64.9779623" id="Stroke-63" stroke="#180A86" stroke-width="1" fill="none" stroke-linecap="round" stroke-linejoin="round"></path>
                        </g>
                    </g>
                </g>
                <g id="fish" transform="translate(243.502262, 0.000000)">
                    <mask id="mask-12" fill="white">
                        <use xlink:href="#path-11"></use>
                    </mask>
                    <use id="Oval-Copy-5" fill="#180060" fill-rule="evenodd" xlink:href="#path-11"></use>
                    <g id="Group-77" stroke-width="1" fill-rule="evenodd" mask="url(#mask-12)">
                        <g transform="translate(14.339623, 13.584906)">
                            <g id="Group-3" stroke="none" stroke-width="1" fill="none" fill-rule="evenodd" transform="translate(0.000000, 5.283019)">
                                <mask id="mask-14" fill="white">
                                    <use xlink:href="#path-13"></use>
                                </mask>
                                <g id="Clip-2"></g>
                                <path d="M0.902952453,22.034566 C1.51282415,20.9641086 2.43777509,20.1192804 3.35702038,19.304579 C10.0548317,13.3657834 17.340326,7.96670354 25.5317525,4.42586095 C33.7231789,0.885018351 42.9086581,-0.71489894 51.6427562,1.06129129 C53.8774732,1.51575498 71.0153751,3.59641665 85.2700166,13.5132117 C87.6689298,15.1817152 90.1065147,16.8040672 92.3507411,18.6815342 C93.2002506,19.3930359 94.0605374,20.1910716 94.3933675,21.2551192 C95.1053072,23.5312835 93.1729902,25.7061711 91.4150128,27.3009605 C83.9336242,34.0845841 76.1669525,41.0406348 66.6384996,44.271237 C60.7927336,46.2538268 54.552643,46.7281613 48.386726,46.7864916 C43.1933072,46.835207 37.9967185,46.5993218 32.8280242,46.0813998 C30.4772921,45.8455146 21.490243,43.2789806 19.4216242,42.2130101 C14.8894279,39.8778744 10.6634355,37.090839 6.66440151,33.923695 C3.10914113,31.1078149 -2.11534189,27.3304461 0.902952453,22.034566" id="Fill-1" fill="#FF5958" mask="url(#mask-14)"></path>
                            </g>
                            <path d="M58.9013684,34.2555045 C58.60289,32.0712378 60.3405979,29.8142244 62.5836695,29.474118 C63.0192174,29.4075889 63.4823072,29.4094542 63.882627,29.5903884 C64.2528427,29.7582654 64.5365893,30.0635529 64.7921534,30.3731927 C65.7567639,31.5396272 66.5151296,32.9727996 66.4043211,34.4644181 C66.0533207,39.1867368 59.4835934,38.5139852 58.9013684,34.2555045" id="Fill-4" stroke="none" fill="#FFFFFF" fill-rule="evenodd"></path>
                            <path d="M49.8280662,26.3425502 C49.6786842,25.3499985 50.5479388,24.3240436 51.6693178,24.1689574 C51.8869695,24.1391332 52.1188157,24.1397296 52.318893,24.2220446 C52.5040997,24.2983948 52.6453705,24.4373759 52.7737984,24.5781464 C53.2557413,25.1078255 53.6349418,25.759784 53.579515,26.4373914 C53.4044474,28.5841424 50.1193949,28.2781454 49.8280662,26.3425502" id="Fill-6" stroke="none" fill="#FFFFFF" fill-rule="evenodd"></path>
                            <path d="M74.4728096,39.2441048 C73.4355007,39.2611133 72.1559531,39.1037848 71.7752068,38.1264043 C71.4064524,37.1787887 72.4275722,36.0580509 73.4151143,36.2475741 C74.4026564,36.4377046 74.9794721,37.6920805 74.5987257,38.6348365" id="Fill-8" stroke="none" fill="#FFFFFF" fill-rule="evenodd"></path>
                            <path d="M67.1728717,23.7815498 C67.1606312,23.1281317 67.1664294,22.4172702 67.561991,21.9009328 C68.0831789,21.2214041 69.0514675,21.1482943 69.8999279,21.132628 C72.9993531,21.0758374 75.5389362,25.4108522 72.7854663,27.7595019 C69.6345021,30.4469369 67.2256992,26.6713421 67.1728717,23.7815498" id="Fill-10" stroke="none" fill="#FFFFFF" fill-rule="evenodd"></path>
                            <path d="M49.8136945,39.8553696 C49.8041544,39.3321247 49.8089244,38.7641367 50.1165906,38.350885 C50.5214459,37.8071329 51.2745124,37.7487183 51.9351599,37.7362897 C54.3458076,37.6909253 56.3205949,41.159132 54.178857,43.0377181 C51.7282603,45.1878696 49.8548359,42.1670932 49.8136945,39.8553696" id="Fill-12" stroke="none" fill="#FFFFFF" fill-rule="evenodd"></path>
                            <path d="M32.3640522,32.8424637 C31.5442401,34.9540874 30.1002529,36.7419668 28.6792453,38.490566 C30.2592468,38.3587875 31.5665986,37.2386703 32.7571894,36.1711378 C33.662088,35.3595597 34.5955559,34.509335 35.0669478,33.3784474 C35.4284105,32.5130175 35.4886542,31.5487537 35.4681589,30.6079313 C35.3923884,27.1588826 34.3819079,23.5070977 32.985122,20.3773585 C32.6776925,22.335663 33.2242338,24.6025065 33.2596348,26.593122 C33.2975201,28.7098141 33.1347998,30.8569166 32.3640522,32.8424637" id="Fill-14" stroke="none" fill="#FFFFFF" fill-rule="evenodd"></path>
                            <path d="M12.8301887,10.5660377 C11.571901,9.55998559 10.3142524,8.55322195 9.05660377,7.54716981" id="Stroke-16" stroke="#FFFFFF" stroke-width="1" fill="none" stroke-linecap="round" stroke-linejoin="round"></path>
                            <path d="M15.0943396,8.30188679 C14.8426031,7.04381548 14.5913592,5.7863732 14.3396226,4.52830189" id="Stroke-18" stroke="#FFFFFF" stroke-width="1" fill="none" stroke-linecap="round" stroke-linejoin="round"></path>
                            <path d="M18.1132075,7.54716981 C18.490566,5.28268742 18.490566,5.28268742 18.8679245,3.01886792" id="Stroke-20" stroke="#FFFFFF" stroke-width="1" fill="none" stroke-linecap="round" stroke-linejoin="round"></path>
                            <path d="M1.57116687,31.4716333 C1.52097751,31.0304529 1.50139142,30.5853392 1.5124086,30.1415365 C1.51608099,30.0110835 1.52281371,29.8760416 1.57789959,29.7593549 C1.67399384,29.5548255 1.89923387,29.4525608 2.11345672,29.4368277 C3.37369917,29.3463628 4.1087896,31.420501 3.62219769,32.4595367 C2.84671095,34.117405 1.70704536,32.6719326 1.57116687,31.4716333" id="Fill-22" stroke="none" fill="#180A86" fill-rule="evenodd"></path>
                            <path d="M25.6603774,25.2830189 C25.6603774,27.575885 23.8018117,29.4339623 21.5091194,29.4339623 C19.2170562,29.4339623 17.3584906,27.575885 17.3584906,25.2830189 C17.3584906,22.9901528 19.2170562,21.1320755 21.5091194,21.1320755 C23.8018117,21.1320755 25.6603774,22.9901528 25.6603774,25.2830189" id="Fill-24" stroke="none" fill="#F9FEFB" fill-rule="evenodd"></path>
                            <path d="M24.1509434,26.4150943 C24.1509434,27.248555 23.4749701,27.9245283 22.6415094,27.9245283 C21.8080488,27.9245283 21.1320755,27.248555 21.1320755,26.4150943 C21.1320755,25.5816337 21.8080488,24.9056604 22.6415094,24.9056604 C23.4749701,24.9056604 24.1509434,25.5816337 24.1509434,26.4150943" id="Fill-26" stroke="none" fill="#180A86" fill-rule="evenodd"></path>
                            <path d="M43.7735849,0 C42.3178373,0.198847992 40.8990108,0.54789615 39.585014,1.15599399 C38.0382821,1.87111704 34.6375819,4.91464671 33.2075472,6.79245283 C34.8268027,6.408135 36.4645187,6.09678891 38.1127837,5.86510363 C38.4028783,5.04234726 38.99032,4.36006149 39.5395219,3.77385517 C40.8271465,2.40077026 42.2519067,1.14626442 43.7735849,0" id="Fill-28" stroke="none" fill="#F9FEFB" fill-rule="evenodd"></path>
                            <path d="M64.6937698,3.01886792 C61.9342795,4.00970557 59.4191021,5.60122648 57.3584906,7.66917354 C59.0627853,8.02069879 61.0369376,8.47394746 63.1977632,9.05660377 C64.9852422,7.30863482 67.1152831,5.92442368 69.4339623,4.97865337 C67.8875211,4.25049393 66.3050553,3.59572987 64.6937698,3.01886792" id="Fill-30" stroke="none" fill="#F9FEFB" fill-rule="evenodd"></path>
                            <path d="M63.3962264,2.74288294 C61.9082843,2.26282783 60.397807,1.85064044 58.8716804,1.50943396 C56.1618354,2.53678924 53.7562141,4.38042499 52.0754717,6.72902142 C52.1199159,6.73773838 52.1643601,6.74458741 52.2088043,6.75330437 C52.7915869,6.86973797 54.4066019,7.09824669 56.718953,7.54716981 C58.5862359,5.49930829 60.871044,3.86363415 63.3962264,2.74288294" id="Fill-32" stroke="none" fill="#F9FEFB" fill-rule="evenodd"></path>
                            <path d="M75.4716981,7.94872728 C74.4732971,7.19473809 73.4064599,6.52098761 72.3402622,5.93257037 C71.9366805,5.70904823 71.5279821,5.49444151 71.1180045,5.28301887 C68.8244324,6.07394334 66.6971538,7.32655883 64.9056604,8.96763159 C66.4873681,9.42550172 68.1535018,9.95469515 69.8740006,10.5660377 C70.067157,10.3800877 70.2699073,10.2476301 70.3959066,10.1667546 C71.9545891,9.16950201 73.6763671,8.42506505 75.4716981,7.94872728" id="Fill-34" stroke="none" fill="#F9FEFB" fill-rule="evenodd"></path>
                            <path d="M80,15.8490566 C79.9118155,15.0578173 79.7326381,14.3047184 79.4871819,13.5849057 C78.8788774,13.7679794 78.2919169,14.0502182 77.7358491,14.4038834 C78.4907533,14.8615678 79.2462192,15.341443 80,15.8490566" id="Fill-36" stroke="none" fill="#F9FEFB" fill-rule="evenodd"></path>
                            <path d="M56.6037736,0.411781898 C55.757551,0.252654824 54.9081543,0.114961192 54.0555835,0 C54.0124154,0.0220829409 53.9724214,0.0487123697 53.9235398,0.0597538402 C50.7322714,0.791738382 47.864764,2.82401845 46.0377358,5.59153054 C47.5067223,5.65193388 48.9725347,5.80066898 50.4275551,6.03773585 C51.9574848,3.66122171 54.1209706,1.70882993 56.6037736,0.411781898" id="Fill-38" stroke="none" fill="#F9FEFB" fill-rule="evenodd"></path>
                            <path d="M76.4878238,9.05660377 C74.5284211,9.4731655 72.637873,10.2274445 70.9433962,11.2872458 C72.7316462,11.9620232 74.563832,12.7235296 76.4111002,13.5849057 C77.2858804,13.0310231 78.2445975,12.6111762 79.245283,12.3385057 C78.5423112,11.1275857 77.5862172,10.0342755 76.4878238,9.05660377" id="Fill-40" stroke="none" fill="#F9FEFB" fill-rule="evenodd"></path>
                            <g id="Group-44" stroke="none" stroke-width="1" fill="none" fill-rule="evenodd" transform="translate(38.490566, 0.000000)">
                                <mask id="mask-16" fill="white">
                                    <use xlink:href="#path-15"></use>
                                </mask>
                                <g id="Clip-43"></g>
                                <path d="M12.4733811,0.308871355 C11.1608528,0.213777015 9.84447547,0.16128988 8.52809811,0.164994854 C7.98153208,0.166229846 7.43175849,0.181049743 6.88198491,0.206367067 C4.88111698,1.59943739 3.04126792,3.19875129 1.42466415,4.99875129 C1.10198491,5.35813379 0.763909434,5.75580103 0.515645283,6.18557804 C2.28813585,5.97871698 4.06896604,5.87312521 5.8478717,5.88177015 C7.38043774,3.41610978 9.73862642,1.45062093 12.4733811,0.308871355" id="Fill-42" fill="#F9FEFB" mask="url(#mask-16)"></path>
                            </g>
                            <path d="M45.2830189,0 C44.5500293,0.0344978893 43.8189129,0.0962309543 43.0965373,0.200329848 C41.6555324,1.34057587 40.3063072,2.58915737 39.0869473,3.95575797 C38.5668619,4.53919596 38.0111884,5.2188649 37.7358491,6.03773585 C38.1853827,5.97116098 38.636165,5.91305927 39.0869473,5.85979937 C39.3279473,5.43916721 39.6576052,5.04879636 39.9716544,4.69655475 C41.545022,2.93292581 43.3350399,1.36478492 45.2830189,0" id="Fill-45" stroke="none" fill="#BDBDEF" fill-rule="evenodd"></path>
                            <path d="M53.4577869,0.368787835 C53.5048453,0.35747124 53.5433476,0.329512596 53.5849057,0.306879408 C52.6730727,0.175740051 51.7575728,0.0752220674 50.8402395,0 C48.2355263,1.23084604 45.9883347,3.35037757 44.5283019,6.00778016 C44.97444,6.01044289 45.4205781,6.01843107 45.8661051,6.03773585 C47.6249893,3.2012648 50.3855453,1.11901146 53.4577869,0.368787835" id="Fill-47" stroke="none" fill="#BDBDEF" fill-rule="evenodd"></path>
                            <path d="M58.8679245,1.18172901 C58.1933358,1.02377471 57.5148813,0.883891465 56.8344938,0.754716981 C54.3146118,2.09063548 52.1188159,4.10321409 50.5660377,6.5521749 C51.0022331,6.62445907 51.4377842,6.70343622 51.8726909,6.79245283 C53.6020091,4.26786136 56.0780782,2.28607045 58.8679245,1.18172901" id="Fill-49" stroke="none" fill="#BDBDEF" fill-rule="evenodd"></path>
                            <path d="M64.9056604,2.86792453 C64.3493868,2.65673334 63.790009,2.45461171 63.2262853,2.26415094 C60.7224332,3.43023727 58.4563633,5.13207547 56.6037736,7.26212649 C57.0296706,7.34893514 57.4804012,7.44416552 57.9528612,7.54716981 C59.9060272,5.46635355 62.2900569,3.86492833 64.9056604,2.86792453" id="Fill-51" stroke="none" fill="#BDBDEF" fill-rule="evenodd"></path>
                            <path d="M69.4873177,4.52830189 C67.222591,5.48930672 65.1421132,6.89581482 63.3962264,8.67194016 C63.8338177,8.79492785 64.2771667,8.92249486 64.7294723,9.05660377 C66.5207816,7.37075663 68.6492409,6.08396526 70.9433962,5.27146151 C70.461662,5.0156733 69.9760892,4.76773536 69.4873177,4.52830189" id="Fill-53" stroke="none" fill="#BDBDEF" fill-rule="evenodd"></path>
                            <path d="M75.0570749,8.30188679 C73.2535926,8.76385758 71.5239972,9.48584134 69.9582379,10.4530155 C69.8316664,10.5314517 69.6279956,10.6599142 69.4339623,10.8402557 C69.8837085,10.9946577 70.3379522,11.1552358 70.7947658,11.3207547 C72.4543293,10.3251706 74.3066413,9.61553902 76.2264151,9.22397554 C75.8511983,8.90343699 75.4605615,8.5958682 75.0570749,8.30188679" id="Fill-55" stroke="none" fill="#BDBDEF" fill-rule="evenodd"></path>
                            <path d="M76.2264151,13.8251144 C76.6255849,13.9924214 77.0253384,14.1633996 77.4256754,14.3396226 C78.0034212,14.0721413 78.6132641,13.8586807 79.245283,13.7202198 C79.1023055,13.4149763 78.9354012,13.118649 78.748655,12.8301887 C77.8581094,13.0483695 77.004913,13.3829835 76.2264151,13.8251144" id="Fill-57" stroke="none" fill="#BDBDEF" fill-rule="evenodd"></path>
                            <path d="M112.45283,17.282101 C112.436881,17.0375916 112.424122,16.7930822 112.406898,16.5485728 C112.339275,15.5963411 112.239755,14.5802401 111.613287,13.8357446 C110.493046,12.5048136 108.308064,12.6899698 106.626426,13.2770503 C103.226787,14.4634692 100.381526,16.7163101 97.4125037,18.689804 C95.0048777,20.2904049 92.5966137,21.4535986 89.8113208,22.1368055 C90.6961584,22.7851747 91.5701509,23.447737 92.4128838,24.1509434 C94.3541679,23.4574142 96.994646,22.610986 99.7563347,21.7258491 C104.320234,20.2633089 109.798317,18.5072284 112.45283,17.282101" id="Fill-59" stroke="none" fill="#F9FEFB" fill-rule="evenodd"></path>
                            <path d="M92.0754717,32.1888745 C98.4003243,36.3052637 105.057502,39.9373719 111.918221,43.0188679 C112.119877,42.1301606 112.216622,41.1970179 112.26311,40.3224784 C112.347919,38.7247372 112.406971,37.126352 112.45283,35.5273228 C106.165042,33.5225794 99.7076365,31.9853734 93.2024866,30.9433962 C92.8544563,31.381954 92.4693615,31.79926 92.0754717,32.1888745" id="Fill-61" stroke="none" fill="#F9FEFB" fill-rule="evenodd"></path>
                            <path d="M112.45283,24.3326936 C112.398398,22.5102863 112.315811,20.6884922 112.20507,18.8679245 C109.442797,20.0366689 104.699069,21.5101698 100.069836,22.9481055 C97.6810791,23.6900681 95.3830426,24.4038239 93.5849057,25.0090446 C93.9746897,25.4247889 94.2994054,25.8852963 94.4852254,26.4150943 C97.1380092,26.0668012 99.9816182,25.7651106 102.754528,25.4713915 C106.024209,25.1255511 109.380231,24.76806 112.45283,24.3326936" id="Fill-63" stroke="none" fill="#F9FEFB" fill-rule="evenodd"></path>
                            <path d="M89.8113208,34.4799298 C91.1874458,35.6905948 92.5641987,36.9012597 93.9403238,38.1119246 C97.0158881,40.8169067 100.125353,43.5462018 103.772838,45.5336373 C105.469138,46.4587798 107.540859,47.2249524 109.35079,46.5130166 C110.514093,46.0548092 111.239823,45.1390179 111.698113,44.0411904 C104.62036,40.9702659 97.7573131,37.335154 91.2452029,33.2075472 C90.7680793,33.6314669 90.2915834,34.0560101 89.8113208,34.4799298" id="Fill-65" stroke="none" fill="#F9FEFB" fill-rule="evenodd"></path>
                            <path d="M113.161545,25.6603774 C110.032891,26.112585 106.641432,26.4833953 103.335225,26.8432234 C100.496937,27.1520167 97.5868593,27.469854 94.8806151,27.8361423 C94.8280542,28.4188441 94.6299894,28.9873338 94.3396226,29.5345051 C100.698207,30.5668306 107.008717,32.0520098 113.164109,33.9622642 C113.223079,31.1953992 113.221797,28.4272423 113.161545,25.6603774" id="Fill-67" stroke="none" fill="#F9FEFB" fill-rule="evenodd"></path>
                            <path d="M91.7709957,32.2545276 C91.6221873,32.3894741 91.4708351,32.5244206 91.3207547,32.6587275 C97.9172946,36.893233 104.869321,40.6224886 112.038837,43.7735849 C112.212447,43.3546752 112.347265,42.9101832 112.45283,42.4535397 C105.508435,39.3932605 98.7694457,35.7855206 92.3668656,31.6981132 C92.1684543,31.8899802 91.9687711,32.0760913 91.7709957,32.2545276" id="Fill-69" stroke="none" fill="#BDBDEF" fill-rule="evenodd"></path>
                            <path d="M94.4393421,29.4339623 C94.2067207,29.8869087 93.9133876,30.3245798 93.5849057,30.7436548 C100.203114,31.8182403 106.771474,33.4042169 113.167925,35.4716981 C113.181345,34.9762465 113.197961,34.481459 113.207547,33.9860073 C107.071198,32.0214685 100.778916,30.4952649 94.4393421,29.4339623" id="Fill-71" stroke="none" fill="#BDBDEF" fill-rule="evenodd"></path>
                            <path d="M113.207547,25.6279193 C113.197476,25.135594 113.183629,24.6432687 113.169781,24.1509434 C110.078633,24.635086 106.702352,25.0319466 103.412933,25.417215 C100.623913,25.7431589 97.7631376,26.0786493 95.0943396,26.4666453 C95.1025223,26.4932391 95.1138521,26.5171052 95.1220347,26.543699 C95.2573629,27.0094306 95.2944995,27.4703889 95.256104,27.9245283 C97.9135722,27.5378961 100.7712,27.2024057 103.558332,26.8764618 C106.80495,26.4966485 110.135282,26.1052431 113.207547,25.6279193" id="Fill-73" stroke="none" fill="#BDBDEF" fill-rule="evenodd"></path>
                            <path d="M113.207547,18.7610457 C113.17849,18.2935273 113.14685,17.8253954 113.113919,17.3584906 C110.427114,18.5229917 104.882391,20.1936643 100.262972,21.5845621 C97.4676875,22.425727 94.7950883,23.230693 92.8301887,23.8908633 C92.8424572,23.9000664 92.8547257,23.908656 92.8669942,23.9178591 C93.2570039,24.2246297 93.6457221,24.5498065 93.9898862,24.9056604 C95.8456606,24.2994817 98.2173584,23.5859333 100.68333,22.8435485 C105.460948,21.4047945 110.356732,19.9298416 113.207547,18.7610457" id="Fill-75" stroke="none" fill="#BDBDEF" fill-rule="evenodd"></path>
                        </g>
                    </g>
                </g>
                <circle id="Oval-Copy-8" fill="#180060" cx="196.108597" cy="126.352086" r="23.8914027"></circle>
            </g>
        </g>
    </g>
</svg>