<svg xmlns="http://www.w3.org/2000/svg" xmlns:xlink="http://www.w3.org/1999/xlink" width="250" height="250" viewBox="0 0 250 250">
    <defs>
        <path id="prefix__a" d="M0 0L250 0 250 250 0 250z"/>
    </defs>
    <g fill="none" fill-rule="evenodd">
        <mask id="prefix__b" fill="#fff">
            <use xlink:href="#prefix__a"/>
        </mask>
        <path fill="#BDBDEF" d="M250 125c0 69.036-55.964 125-125 125C55.965 250 0 194.036 0 125S55.965 0 125 0c69.036 0 125 55.964 125 125" mask="url(#prefix__b)"/>
        <path fill="#FF5958" d="M116.748 136.667c-2.128-1.157-9.228 3.778-13.842 5.667-.64.263-1.305.529-1.997.51-.663-.016-1.286-.293-1.89-.564l-11.309-5.09c.222-4.215.92-11.196-.705-12.615-1.625-1.418-8.589 7.448-12.883 11.172-7.668-1.513-14.76-6.053-20.694-11.14-5.933-5.086-11.048-11.041-16.457-16.682-.705-.735-1.7-1.53-2.63-1.114-.81.362-.999 1.409-1.066 2.295-.579 7.718-.249 15.505.982 23.147-2.077.797-1.719 3.837-.852 5.886 2.611 6.168 6.332 11.79 10.032 17.373l14.22 21.458c.782 1.182 1.738 21.85 2.768 48.562l-.169.096.234 6.354C79.348 243.417 101.474 250 125.138 250c6.453 0 12.792-.49 18.982-1.434-6.81-26.551-25.445-110.851-27.372-111.9"/>
        <path fill="#180A86" d="M106.312 146.097c-.423-.345-.854-.913-.572-1.38l7.718-3.64c.124-.059.31 3.774.266 4.147-.123 1.024-.353 3.165-1.35 3.73-1.343.761-5.053-2.033-6.062-2.857M77.761 135.557c-.08-.057-.165-.134-.161-.232.003-.085.074-.15.14-.206 1.83-1.54 3.741-2.984 5.723-4.324.194.985-.176 1.991-.631 2.886-.34.667-.895 2.59-1.539 2.858-.869.363-2.836-.48-3.532-.982M35.907 140.514c-1.17-1.496-2.928-6.754.697-4.412 2.66 1.72 1.666 7.433-.697 4.412"/>
        <path fill="#FFF" d="M69.534 228.44c-.185 0-.354-.101-.441-.266l-4.902-9.341c-.128-.244-.033-.545.21-.673.244-.127.544-.033.672.21l4.419 8.422 6.354-14.596c.07-.162.22-.274.395-.296.175-.023.347.05.455.189 2.172 2.805 4.172 5.778 5.954 8.85l8.865-22.874c.057-.145.178-.256.328-.3.149-.041.312-.011.436.083 1.826 1.376 3.48 2.966 4.926 4.735 3.073-6.306 4.175-13.548 3.103-20.483-.029-.187.051-.375.206-.483.156-.11.36-.12.525-.03 1.248.688 2.374 1.55 3.357 2.572 2.368-5.33 3.391-11.197 2.961-17.02-.021-.273.185-.511.459-.532.277-.02.513.186.533.46.461 6.24-.701 12.532-3.362 18.195-.072.152-.216.258-.383.28-.165.024-.334-.04-.445-.166-.796-.923-1.709-1.723-2.723-2.388.877 7.078-.422 14.404-3.694 20.743-.078.152-.228.252-.397.268-.172.015-.335-.057-.439-.192-1.369-1.772-2.949-3.371-4.704-4.76l-9.001 23.227c-.07.18-.237.303-.429.317-.196.013-.375-.085-.469-.253-1.749-3.11-3.725-6.122-5.881-8.97l-6.431 14.774c-.077.175-.248.292-.439.299h-.018M67.344 205.176c-.274 0-.497-.223-.497-.498v-5.46c0-.275.223-.498.498-.498s.498.223.498.498v5.46c0 .275-.224.498-.499.498M73.429 205.956c-.275 0-.498-.223-.498-.498v-3.12c0-.275.223-.497.498-.497s.498.222.498.497v3.12c0 .275-.223.498-.498.498"/>
        <path fill="#FFF" d="M81.247 199.418c-.102 0-.204-.031-.292-.095-.223-.162-.27-.474-.109-.696.544-.747.784-1.7.658-2.615-.037-.273.154-.524.426-.561.27-.038.523.153.561.425.16 1.168-.147 2.385-.84 3.337-.098.134-.25.205-.404.205M77.638 192.383c-.032 0-.064-.003-.096-.009-.27-.053-.446-.315-.393-.585.313-1.598.414-3.234.299-4.859-.02-.275.187-.513.461-.532.275-.017.512.187.531.461.122 1.713.016 3.437-.314 5.122-.047.237-.255.402-.488.402M70.309 188.64c-.275 0-.498-.223-.498-.498v-2.808c0-.275.223-.498.498-.498s.498.223.498.498v2.808c0 .275-.223.498-.498.498M87.76 186.6c-.078 0-.157-.017-.23-.055-.244-.127-.339-.428-.212-.672.72-1.383 1.04-3 .904-4.552-.024-.273.18-.515.453-.54.273-.023.515.18.54.454.151 1.738-.209 3.549-1.014 5.098-.088.17-.262.268-.442.268M84.035 179.591c-.092 0-.185-.025-.268-.079-.23-.148-.299-.456-.15-.687.27-.422.41-.93.393-1.432-.009-.274.207-.504.482-.513.272-.004.504.207.513.482.023.7-.173 1.41-.55 2-.095.148-.256.23-.42.23M63.6 184.584c-.274 0-.497-.223-.497-.498v-4.524c0-.275.223-.498.498-.498s.498.223.498.498v4.524c0 .275-.223.498-.498.498M95.166 179.46c-.07 0-.144-.014-.212-.047-.249-.117-.355-.413-.238-.662.71-1.502.936-3.23.641-4.864-.049-.27.131-.53.401-.578.271-.05.53.13.578.4.332 1.837.077 3.778-.72 5.467-.085.18-.263.285-.45.285M74.638 179.272c-.03 0-.06-.003-.092-.009-.27-.05-.449-.31-.398-.58l.552-2.949c.05-.27.31-.45.58-.398.27.051.448.311.398.581l-.55 2.95c-.046.238-.254.405-.49.405"/>
        <path fill="#180A86" d="M80.038 155.343c-.127 0-.257-.007-.388-.02-1.32-.132-2.633-.93-3.347-2.034-1.195-1.849-1.139-4.126-1.094-5.956.01-.412.327-.74.765-.728.412.01.737.352.728.764-.049 1.996-.018 3.757.855 5.11.47.725 1.37 1.271 2.241 1.36.418.04 1.013-.006 1.461-.465.7-.717.644-1.84.58-3.14-.04-.785-.08-1.596.053-2.385.07-.407.453-.68.861-.612.407.07.681.454.612.861-.106.63-.072 1.325-.035 2.061.071 1.442.152 3.075-1.002 4.258-.59.604-1.392.926-2.29.926"/>
        <path fill="#FFF" d="M33.254 108.133c.142-.8.477-1.721 1.265-1.917.627-.156 1.252.233 1.757.636.967.77 1.837 1.66 2.583 2.645.265.35.522.732.566 1.169.061.597-.306 1.178-.805 1.51-.499.335-1.108.458-1.706.514-.886.08-3.259.206-3.833-.626-.513-.743.024-3.087.173-3.931M196.836 122.166c-.564-.917-1.205-1.8-1.905-2.638-.513.257-1.012.521-1.49.79l-.499-.89c.42-.235.854-.464 1.298-.69-.375-.41-.765-.808-1.17-1.189-.376.228-.755.46-1.124.68l-.524-.874c.281-.168.571-.345.856-.518-.327-.28-.66-.552-1-.813-.415.353-.774.647-1.054.86l-.615-.814c.224-.169.503-.396.82-.663-.26-.179-.524-.355-.79-.522-.11.312-.174.551-.178.69l-1.018-.028c.006-.235.124-.645.323-1.178-.413-.232-.833-.448-1.258-.649-.082.553-.138 1.06-.144 1.465l-1.019-.015c.008-.523.084-1.17.195-1.87-2.98-1.203-6.2-1.594-9.35-.802-4.475 1.124-8.089 4.362-11.26 7.71-3.466 3.656-6.63 7.592-9.49 11.738 3.155 2.823 5.264 6.808 5.72 11.022h.002c4.991-.349 10.387 1.162 13.508 5.074 3.328 4.172 3.407 9.99 3.242 15.323-.73 23.613-3.228 47.165-7.43 70.412-.535 2.95-1.46 5.751-2.712 8.38 14.541-5.424 27.796-13.48 39.192-23.59-.646-24.71-2.34-49.393-5.094-73.957-.87-7.765-1.938-15.789-6.032-22.444"/>
        <path fill="#FF5958" d="M156.44 131.946c-3.313 4.806-6.214 9.896-8.62 15.216 4.625-1.911 9.35-3.846 14.34-4.194-.456-4.214-2.564-8.199-5.72-11.022"/>
        <path fill="#FFF" d="M188.37 109.438c.126-.556.24-1.061.325-1.473l2.8-13.48c-.347.108-.71.134-1.056.083l-2.741 13.19c-.085.407-.198.906-.322 1.455-.292 1.292-.628 2.786-.836 4.086.326.13.649.272.968.422.199-1.342.567-2.98.862-4.283"/>
        <path fill="#FFF" d="M187.364 115.185c.006-.405.063-.912.144-1.465-.32-.15-.643-.29-.968-.42-.111.7-.188 1.347-.195 1.87l1.02.015zM198.85 97.433c-.274-.047-.51-.128-.664-.241-.09-.067-.168-.15-.238-.237-1.983 3.103-7.759 13.592-9.182 17.414.293.165.585.336.873.516 1.094-3.127 7.04-14.137 9.21-17.452"/>
        <path fill="#FFF" d="M189.462 115.575c.004-.139.068-.378.177-.69-.287-.18-.58-.35-.873-.516-.2.533-.316.943-.323 1.178l1.019.028zM206.089 102.083c-.204-.1-.39-.24-.542-.429-.072-.089-.132-.185-.187-.285-2.375 2.314-11.355 11.026-14.931 14.038.287.2.57.404.848.617 3.778-3.22 12.484-11.672 14.812-13.94"/>
        <path fill="#FFF" d="M190.224 116.883c.28-.212.64-.506 1.053-.859-.279-.213-.562-.418-.849-.616-.316.266-.595.493-.819.662l.615.813zM199.456 113.602c3.93-2.454 7.985-4.98 11.814-7.175-.114-.316-.151-.7-.125-1.103-3.957 2.254-8.16 4.874-12.23 7.413-2.327 1.454-4.536 2.829-6.637 4.1.269.231.534.468.793.712 2.028-1.23 4.15-2.553 6.385-3.948"/>
        <path fill="#FFF" d="M191.947 118.23c.369-.222.748-.453 1.124-.682-.258-.244-.523-.48-.792-.71-.286.172-.575.35-.856.517l.524.874zM207.212 114.646c2.068-.732 4.027-1.429 5.839-2.132-.114-.307-.183-.657-.213-1.01-1.841.718-3.846 1.431-5.966 2.181-4.39 1.554-8.91 3.155-12.631 5.053.237.258.466.522.69.79 3.62-1.817 8.014-3.372 12.28-4.882"/>
        <path fill="#FFF" d="M193.44 120.317c.48-.269.978-.532 1.491-.789-.224-.268-.454-.533-.69-.79-.445.225-.88.455-1.299.69l.498.89z"/>
        <path fill="#FF5958" d="M191.549 94.236l-.052.25c.904-.276 1.688-1.057 1.695-2.233.003-.495-.034-1.01-.285-1.438-.407-.692-1.27-.967-2.067-1.058-.163-.019-.332-.032-.487.021-.15.051-.274.16-.388.27-.698.672-1.227 1.593-1.178 2.561.062 1.22.8 1.833 1.652 1.958l.112-.539.998.208z"/>
        <path fill="#FF5958" d="M191.496 94.486l.052-.25-.998-.208-.112.54c.347.051.71.024 1.058-.082M199.13 97.014c-.083.12-.18.264-.28.418.75.131 1.776.01 2.104-.403.173-.217.219-.507.253-.783.08-.654.126-1.33-.067-1.96-.193-.63-.67-1.21-1.313-1.354-.631-.14-1.307.176-1.707.684-.598.758-.861 2.481-.172 3.34.134-.21.253-.39.349-.527l.834.585z"/>
        <path fill="#FF5958" d="M198.187 97.192c.152.113.39.193.663.24.1-.154.197-.298.28-.418l-.833-.585c-.096.137-.215.318-.35.526.072.088.149.169.24.237M206.659 101.527l-.57.556c1.07.531 2.69-.091 3.133-1.183.264-.648.13-1.425-.288-1.985-.42-.56-1.094-.905-1.788-.979-1.708-.184-2.517 2.08-1.785 3.433.359-.349.569-.555.585-.571l.713.729z"/>
        <path fill="#FF5958" d="M206.089 102.083c.309-.3.512-.5.57-.556l-.713-.729-.586.571c.055.1.115.196.187.285.152.19.338.328.542.43M211.963 106.03c-.23.13-.462.265-.693.397.264.733.937 1.084 2.192.347.702-.413 1.013-1.362.739-2.128-.275-.767-1.076-1.295-1.891-1.299-.176 0-.361.023-.507.123-.15.102-.238.27-.313.436-.192.43-.313.934-.344 1.418.104-.059.21-.122.315-.18l.502.886z"/>
        <path fill="#FF5958" d="M211.27 106.428c.23-.132.464-.268.693-.397l-.502-.887-.316.18c-.026.403.01.788.125 1.104M213.895 112.187c-.274.11-.562.219-.844.328.312.836.963 1.337 2.107.585.249-.163.408-.433.523-.707.367-.883.34-1.92-.071-2.782-.065-.135-.14-.27-.257-.362-.162-.127-.377-.16-.581-.186-.465-.062-.985-.11-1.36.174-.265.202-.397.534-.482.857-.1.376-.136.894-.092 1.41.225-.087.458-.175.678-.263l.379.946z"/>
        <path fill="#FF5958" d="M213.895 112.187l-.38-.946c-.22.088-.452.176-.677.264.03.353.099.703.213 1.01.282-.11.57-.218.844-.328"/>
        <path fill="#180A86" d="M178.294 132.017c-.413 0-.81-.085-1.168-.256-.505-.241-.953-.668-1.295-1.234-.93-1.537-.906-3.552.073-6.158.149-.395.59-.595.984-.447.395.148.595.589.447.984-.803 2.14-.868 3.72-.196 4.83.13.216.349.504.645.645.365.175.877.132 1.37-.113.506-.251.942-.658 1.458-1.165.847-.83 1.752-1.804 1.765-2.865.004-.422.358-.765.773-.755.422.005.76.35.755.773-.02 1.645-1.158 2.896-2.223 3.939-.483.474-1.085 1.063-1.848 1.442-.508.253-1.036.38-1.54.38"/>
        <path fill="#FFF" d="M117.18 101.438c-4.65-2.993-9.432-7.717-11.63-11.487l.655-.381c2.143 3.678 6.825 8.296 11.386 11.232l-.41.636zM117.636 100.076c-3.59-3.546-6.366-7.038-8.485-10.674l.654-.382c2.085 3.578 4.821 7.019 8.363 10.517l-.532.539zM119.018 98.922c-2.294-2.904-3.763-5.504-5.318-8.256-.437-.775-.884-1.565-1.36-2.38l.656-.381c.476.818.924 1.61 1.363 2.388 1.54 2.727 2.995 5.3 5.253 8.16l-.594.469zM121.84 99.452c-1.803-2.794-2.773-5.887-3.71-8.877-.367-1.165-.712-2.265-1.1-3.328l.711-.26c.393 1.08.742 2.188 1.11 3.36.923 2.944 1.878 5.986 3.625 8.695l-.636.41z"/>
        <path fill="#180A86" d="M107.213 100.558c.025-.181.045-.363.068-.545-.22.203-.33.454-.068.545"/>
        <path fill="#FFF" d="M154.67 68.945c.377.143.85.702.584 1.12-.066.103-.162.15-.253.194l-8.733 4.148c-.073.034-.149.068-.223.042-.135-.048-.198-.27-.24-.464-.607-2.816-1.712-7.107.903-7.303 2.427-.183 5.625 1.376 7.962 2.263M101.155 37.923c-2.13-4.365-2.802-9.725-.56-14.034 1.151-2.212 3.521-4.183 5.935-3.561 1.256.324 2.24 1.279 3.108 2.241 6.781 7.512 10.286 17.883 9.452 27.968 1.157-3.975 2.592-7.868 4.294-11.641 1.421-3.155 3.048-6.256 5.294-8.888 2.246-2.633 5.165-4.787 8.517-5.645 1.071-.274 2.234-.408 3.26.003 1.258.505 2.068 1.72 2.747 2.893.964 1.663 1.85 3.455 1.91 5.376.05 1.674-.539 3.305-1.276 4.809-1.536 3.132-3.74 5.891-6.11 8.45-4.974 5.367-10.768 9.973-17.12 13.607-2.132-1.85-4.433-3.477-6.857-4.921-2.06-1.228-4.03-2.172-4.993-4.472-.855-2.042-1.285-3.389-2.785-5.164-1.839-2.177-3.56-4.448-4.816-7.021"/>
        <path fill="#FFF" d="M133.86 62.638c-.07-2.638-.775-5.927-.353-8.53-.053-.022-.106-.046-.16-.07-.52-.217-1.04-.43-1.562-.637-2.014-.8-4.053-1.543-6.11-2.231-.038-.012-.075-.023-.112-.036.06.567.1 1.116.144 1.6l.77 8.352c.244 2.655.488 5.309.692 7.967.522 6.83 1.877 13.385-.128 20.158.765-.171 1.53-.348 2.29-.537.771-.192 1.54-.39 2.304-.596.723-.196 1.445-.402 2.163-.623.064-2.063.117-4.126.151-6.19.103-6.208.073-12.42-.09-18.627M121.564 67.641c-.243-3.003-.545-6-.906-8.993-.187-1.549-1.403-6.216-.965-9.299-.523-.144-1.046-.287-1.571-.425-.844-.22-1.69-.436-2.538-.638-.838-.2-1.681-.385-2.526-.562.512 1.821.596 3.73.765 5.613.56 6.27.798 12.648 1.718 18.877.92 6.228 0 11.65.45 18.444.004.055 0 .108-.008.16 1.95-.116 3.897-.327 5.836-.623.589-7.497.352-15.052-.255-22.554M108.58 49.116c-.204-.595-.25-1.496.07-2.169-1.217-.169-2.44-.3-3.664-.373-1.733-.102-3.468-.097-5.201.055-5.3.463-10.61 2.395-14.302 6.125-6.168 6.231-6.503 16.635-1.987 24.09 4.515 7.452 13.028 12.051 21.793 13.498 1.342.221 2.69.37 4.042.464.047.004.095.005.143.01-.002-.082-.004-.164-.004-.243 1.576-6.008.25-38.142-.89-41.457M144.828 61.803c-1.252-1.576-2.762-2.9-4.424-4.046-.57-.393-1.16-.764-1.763-1.118.845 9.46 1.622 18.967 1.027 28.428.573-.317 1.132-.66 1.668-1.037.26-.183.51-.379.757-.58 6.062-4.985 7.616-15.5 2.735-21.647"/>
        <path fill="#FF5958" d="M115.54 72.214c-.92-6.23-1.156-12.607-1.718-18.876-.168-1.884-.253-3.792-.764-5.614-.518-.108-1.035-.216-1.554-.313-.947-.178-1.899-.332-2.853-.464-.32.674-.275 1.575-.07 2.169 1.14 3.315 2.464 35.45.888 41.457 0 .08.003.16.004.242 1.738.118 3.481.14 5.225.076.428-.016.857-.047 1.285-.072.008-.053.012-.106.008-.16-.45-6.796.47-12.216-.45-18.445M127.169 69.052c-.204-2.657-.448-5.312-.692-7.967l-.77-8.35c-.044-.485-.084-1.035-.143-1.6-1.94-.647-3.9-1.24-5.871-1.786-.438 3.083.778 7.75.965 9.3.36 2.991.663 5.99.906 8.992.607 7.502.844 15.057.255 22.554.544-.084 1.088-.167 1.63-.262 1.203-.212 2.4-.457 3.592-.723 2.005-6.773.65-13.328.128-20.158M138.641 56.64c-1.635-.96-3.373-1.786-5.134-2.532-.422 2.602.282 5.892.352 8.53.162 6.207.193 12.418.09 18.627-.034 2.064-.087 4.126-.15 6.19.722-.223 1.44-.46 2.148-.719 1.285-.469 2.536-1.012 3.721-1.669.594-9.46-.183-18.968-1.027-28.428"/>
        <path fill="#180A86" d="M92.465 61.22c-.383 0-.766-.087-1.11-.268-.965-.509-1.492-1.69-1.225-2.748.068-.27.342-.435.612-.366.271.068.434.343.367.613-.154.61.161 1.315.716 1.608.557.293 1.316.153 1.732-.317.465-.526.522-1.356.543-2.233.007-.279.241-.499.516-.493.28.007.5.238.493.517-.019.81-.048 2.031-.795 2.877-.465.526-1.158.81-1.849.81"/>
        <path fill="#FF5958" d="M118.298 104.542c-.228 0-.45-.12-.57-.332-.378-.662-1.213-2.75-.562-4.43.364-.938 1.105-1.594 2.2-1.95.828-.267 1.68-.131 2.465.393 1.457.973 2.345 3.052 2.413 3.895.03.36-.24.677-.601.706-.354.03-.677-.24-.706-.601-.044-.544-.783-2.206-1.834-2.908-.452-.302-.887-.38-1.332-.236-.712.23-1.164.616-1.381 1.176-.473 1.218.257 2.918.478 3.306.18.315.069.716-.246.895-.102.058-.214.086-.324.086"/>
        <path fill="#FF5958" d="M115.1 104.628l12.073-3.905c.647-.209 1.395-.408 1.972-.048.307.19.507.51.692.818 1.553 2.588 4.225 8.017 1.935 9.471-1.267.805-10.53 4.39-14.178 4.5-.347.011-.711.006-1.017-.159-.343-.184-.558-.537-.746-.878-1.067-1.926-1.862-4.003-2.355-6.149-.175-.768-.311-1.58-.082-2.334.229-.753.956-1.074 1.706-1.316"/>
        <path fill="#180A86" d="M81.818 62.578l2.178.005c.014.423-.063.85-.223 1.24-.188.46-.623.922-1.103.796-.386-.103-.578-.532-.677-.919-.094-.368-.154-.746-.178-1.125"/>
        <path fill="#FFF" d="M90.898 37.318c-.175-.516-.377-1.048-.774-1.42-.671-.63-1.775-.627-2.571-.166-.796.462-1.318 1.292-1.63 2.158-.242.672-.371 1.438-.074 2.087.297.65 1.153 1.07 1.762.699.649-.395.922-1.52 1.672-1.396.342.057.568.38.73.686 1.368 2.584.998 5.69 1.078 8.612.032 1.146 1.209 2.64 1.493.826.205-1.317.046-2.814-.056-4.137-.21-2.704-.756-5.381-1.63-7.95M84.973 43.966c-.393-.76-.82-1.521-1.449-2.102-.628-.581-1.494-.963-2.338-.822-1.392.233-2.207 1.766-2.307 3.174-.046.654.031 1.357.442 1.867.411.51 1.238.718 1.736.293.702-.6.418-2.017 1.276-2.357.614-.243 1.231.324 1.62.857 1.45 1.989 2.414 4.289 3.224 6.613.131.377.795 2.26 1.31 1.733.466-.48-.593-2.411-.783-2.918-.806-2.155-1.675-4.291-2.73-6.338"/>
    </g>
</svg>
