<svg xmlns="http://www.w3.org/2000/svg" xmlns:xlink="http://www.w3.org/1999/xlink" width="167" height="64" viewBox="0 0 167 64">
    <defs>
        <path id="prefix__a" d="M0 0.124L22.968 0.124 22.968 42.668 0 42.668z"/>
        <path id="prefix__c" d="M0 0.123L22.968 0.123 22.968 39.672 0 39.672z"/>
    </defs>
    <g fill="none" fill-rule="evenodd">
        <g transform="translate(0 20)">
            <mask id="prefix__b" fill="#fff">
                <use xlink:href="#prefix__a"/>
            </mask>
            <path fill="#746BC1" d="M11.484 42.668C5.168 42.668 0 37.323 0 30.79V12C0 5.47 5.168.125 11.484.125S22.968 5.47 22.968 12.002V30.79c0 6.532-5.168 11.877-11.484 11.877" mask="url(#prefix__b)"/>
        </g>
        <mask id="prefix__d" fill="#fff">
            <use xlink:href="#prefix__c"/>
        </mask>
        <path fill="#100F86" d="M11.484 39.672C5.168 39.672 0 34.42 0 28.002v-16.21C0 5.374 5.168.122 11.484.122s11.484 5.252 11.484 11.67v16.21c0 6.418-5.168 11.67-11.484 11.67" mask="url(#prefix__d)"/>
        <path fill="#7D65CD" d="M105.5 64C99.175 64 94 58.661 94 52.137V12.863C94 6.34 99.175 1 105.5 1S117 6.339 117 12.863v39.274C117 58.66 111.825 64 105.5 64"/>
        <path fill="#7868C7" d="M43.5 64C37.175 64 32 58.661 32 52.137V12.863C32 6.34 37.175 1 43.5 1S55 6.339 55 12.863v39.274C55 58.66 49.825 64 43.5 64M74.5 63C68.175 63 63 57.66 63 51.136V11.864C63 5.339 68.175 0 74.5 0S86 5.339 86 11.864v39.272C86 57.661 80.825 63 74.5 63"/>
        <path fill="#100F86" fill-rule="nonzero" d="M31.004 11.37C31.181 4.918 36.557-.171 43.011.005l.24.009c.381.016.854.048 1.41.102 1.011.098 2.107.25 3.272.472 3.331.63 6.679 1.7 9.91 3.359C67.707 9.014 74 18.366 74 31.309 74 37.766 68.766 43 62.309 43c-6.392 0-11.586-5.13-11.69-11.498v-.193c0-3.752-1.065-5.334-3.461-6.565-1.061-.545-2.311-.944-3.578-1.184-.381-.072-.728-.124-1.028-.157l-.24-.024-.083-.006-.244-.012c-6.27-.376-11.154-5.665-10.98-11.99zM105.453 1C122.876 1 137 15.103 137 32.5S122.876 64 105.453 64C99.128 64 94 58.88 94 52.563c0-6.253 5.026-11.334 11.264-11.435l.19-.001c4.77 0 8.64-3.863 8.64-8.627 0-4.714-3.788-8.545-8.49-8.626h-.15C99.127 23.873 94 18.752 94 12.436 94 6.12 99.128 1 105.453 1z"/>
        <path fill="#7D65CD" d="M144 51.995v-18.99C144 26.402 149.175 21 155.5 21S167 26.402 167 33.005v18.99C167 58.598 161.825 64 155.5 64S144 58.598 144 51.995z"/>
        <path fill="#100F86" d="M155.5 40c-6.325 0-11.5-5.178-11.5-11.507V12.508C144 6.178 149.175 1 155.5 1S167 6.178 167 12.508v15.985C167 34.822 161.825 40 155.5 40"/>
    </g>
</svg>
