<?xml version="1.0" encoding="UTF-8"?>
<svg width="29px" height="29px" viewBox="0 0 29 29" version="1.1" xmlns="http://www.w3.org/2000/svg" xmlns:xlink="http://www.w3.org/1999/xlink">
    <!-- Generator: Sketch 63.1 (92452) - https://sketch.com -->
    <title>Combined Shape</title>
    <desc>Created with Sketch.</desc>
    <g id="Landing_1" stroke="none" stroke-width="1" fill="none" fill-rule="evenodd">
        <g id="Desktop-Copy-11" transform="translate(-735.000000, -3797.000000)" fill="#FFFFFF">
            <path d="M749.5,3797 C757.508129,3797 764,3803.49187 764,3811.5 C764,3819.50813 757.508129,3826 749.5,3826 C741.491871,3826 735,3819.50813 735,3811.5 C735,3803.49187 741.491871,3797 749.5,3797 Z M750.242664,3804.67191 L748.448217,3804.67191 C747.314645,3804.67486 747.040005,3804.68545 746.421351,3804.71267 C745.666072,3804.74553 745.14791,3804.86515 744.697131,3805.03828 C744.233557,3805.21561 743.836513,3805.45487 743.440322,3805.84661 C743.047543,3806.23413 742.805307,3806.62629 742.621499,3807.08795 C742.446219,3807.53361 742.329366,3808.04076 742.291837,3808.78717 C742.264271,3809.40131 742.253835,3809.6706 742.250951,3810.79171 L742.250951,3810.79171 L742.250951,3812.56377 C742.253835,3813.68362 742.264271,3813.95481 742.291837,3814.56551 C742.329366,3815.31192 742.446219,3815.82371 742.621499,3816.26894 C742.805307,3816.73102 743.047543,3817.11855 743.440322,3817.51028 C743.836513,3817.89823 744.233557,3818.13749 744.697131,3818.31861 C745.14791,3818.49174 745.666072,3818.61178 746.421351,3818.64464 C747.074375,3818.67301 747.344099,3818.68317 748.645304,3818.68541 L748.645304,3818.68541 L750.045126,3818.68541 C751.349346,3818.68317 751.61902,3818.67301 752.271675,3818.64464 C753.027807,3818.61178 753.541278,3818.49174 753.992057,3818.31861 C754.459896,3818.13749 754.856513,3817.89823 755.249293,3817.51028 C755.64591,3817.11855 755.888146,3816.73102 756.06769,3816.26894 C756.242969,3815.82371 756.364087,3815.31192 756.397351,3814.56551 C756.428057,3813.95481 756.436495,3813.68362 756.438548,3812.56377 L756.438005,3810.56407 C756.435176,3809.63037 756.425864,3809.35744 756.397351,3808.78717 C756.364087,3808.04076 756.242969,3807.53361 756.06769,3807.08795 C755.888146,3806.62629 755.64591,3806.23413 755.249293,3805.84661 C754.856513,3805.45487 754.459896,3805.21561 753.992057,3805.03828 C753.541278,3804.86515 753.027807,3804.74553 752.271675,3804.71267 C751.65337,3804.68545 751.378794,3804.67486 750.242664,3804.67191 L750.242664,3804.67191 Z M750.032423,3805.93387 C751.311696,3805.93603 751.56796,3805.94592 752.213249,3805.97466 C752.90669,3806.0033 753.28241,3806.11872 753.52891,3806.21391 C753.862837,3806.34154 754.096543,3806.49445 754.346881,3806.73749 C754.593381,3806.98517 754.747763,3807.216 754.87741,3807.54582 C754.973366,3807.7935 755.090646,3808.1646 755.119646,3808.8453 C755.153763,3809.51619 755.160389,3809.76134 755.161312,3811.20708 L755.161086,3812.39273 C755.159515,3813.62516 755.151756,3813.87637 755.119646,3814.5078 C755.090646,3815.19229 754.973366,3815.56381 754.87741,3815.81107 C754.747763,3816.1371 754.593381,3816.37214 754.346881,3816.61518 C754.096543,3816.86286 753.862837,3817.01535 753.52891,3817.13919 C753.28241,3817.23817 752.90669,3817.34938 752.213249,3817.38265 C751.56796,3817.41103 751.311696,3817.42118 750.032423,3817.42342 L750.032423,3817.42342 L748.658008,3817.42342 C747.381757,3817.42118 747.125493,3817.41103 746.480204,3817.38265 C745.786763,3817.34938 745.411043,3817.23817 745.160278,3817.13919 C744.830616,3817.01535 744.592646,3816.86286 744.346146,3816.61518 C744.095807,3816.37214 743.945263,3816.1371 743.816043,3815.81107 C743.720087,3815.56381 743.602807,3815.19229 743.569543,3814.5078 C743.540446,3813.87045 743.530434,3813.62048 743.528245,3812.35781 L743.52879,3810.75942 C743.531854,3809.7003 743.542386,3809.44016 743.569543,3808.8453 C743.602807,3808.1646 743.720087,3807.7935 743.816043,3807.54582 C743.945263,3807.216 744.095807,3806.98517 744.346146,3806.73749 C744.592646,3806.49445 744.830616,3806.34154 745.160278,3806.21391 C745.411043,3806.11872 745.786763,3806.0033 746.480204,3805.97466 C747.125493,3805.94592 747.381757,3805.93603 748.658008,3805.93387 L748.658008,3805.93387 Z M749.344594,3808.07791 C747.331653,3808.07791 745.703388,3809.69035 745.703388,3811.67853 C745.703388,3813.66628 747.331653,3815.27494 749.344594,3815.27494 C751.357535,3815.27494 752.990065,3813.66628 752.990065,3811.67853 C752.990065,3809.69035 751.357535,3808.07791 749.344594,3808.07791 Z M749.344594,3809.3399 C750.6513,3809.3399 751.712359,3810.38748 751.712359,3811.67853 C751.712359,3812.96916 750.6513,3814.01295 749.344594,3814.01295 C748.041726,3814.01295 746.981094,3812.96916 746.981094,3811.67853 C746.981094,3810.38748 748.041726,3809.3399 749.344594,3809.3399 Z M753.131994,3807.09629 C752.664156,3807.09629 752.279906,3807.4716 752.279906,3807.9379 C752.279906,3808.39956 752.664156,3808.77908 753.131994,3808.77908 C753.603671,3808.77908 753.984082,3808.39956 753.984082,3807.9379 C753.984082,3807.4716 753.603671,3807.09629 753.131994,3807.09629 Z" id="Combined-Shape"></path>
        </g>
    </g>
</svg>