<?xml version="1.0" encoding="utf-8"?>
<!-- Generator: Adobe Illustrator 24.1.2, SVG Export Plug-In . SVG Version: 6.00 Build 0)  -->
<svg version="1.1" id="Livello_1" xmlns="http://www.w3.org/2000/svg" xmlns:xlink="http://www.w3.org/1999/xlink" x="0px" y="0px"
	 viewBox="0 0 29 29" style="enable-background:new 0 0 29 29;" xml:space="preserve">
<style type="text/css">
	.st0{fill-rule:evenodd;clip-rule:evenodd;fill:#FFFFFF;}
</style>
<path class="st0" d="M14.5,0C6.5,0,0,6.5,0,14.5S6.5,29,14.5,29S29,22.5,29,14.5S22.5,0,14.5,0z M21.3,9.3l-1.1,1
	c-0.1,0.1-0.1,0.2-0.1,0.3v7.7c0,0.1,0,0.2,0.1,0.3l1.1,1v0.2h-5.4v-0.2l1.1-1.1c0.1-0.1,0.1-0.1,0.1-0.3v-6.2l-3.1,7.8h-0.4
	l-3.6-7.8v5.2c0,0.2,0,0.4,0.2,0.6l1.4,1.7v0.2H7.7v-0.2l1.4-1.7c0.2-0.2,0.2-0.4,0.2-0.6v-6c0-0.2,0-0.3-0.2-0.4L7.8,9.3V9.1h4
	l3.1,6.7l2.7-6.7h3.8V9.3z"/>
</svg>
