<?xml version="1.0" encoding="UTF-8"?>
<svg width="143px" height="215px" viewBox="0 0 143 215" version="1.1" xmlns="http://www.w3.org/2000/svg" xmlns:xlink="http://www.w3.org/1999/xlink">
    <!-- Generator: Sketch 63.1 (92452) - https://sketch.com -->
    <title>Group 22</title>
    <desc>Created with Sketch.</desc>
    <defs>
        <polygon id="path-1" points="0 215 149 215 149 0 0 0"></polygon>
    </defs>
    <g id="Landing_1" stroke="none" stroke-width="1" fill="none" fill-rule="evenodd">
        <g id="Desktop-Copy-12" transform="translate(-881.000000, -2059.000000)">
            <g id="Group-22" transform="translate(881.000000, 2059.000000)">
                <path d="M9.04933045,215 C6.70138146,190.651235 8.99930542,67.1547474 9.1929507,54.0162405 C9.28654592,47.6870113 9.38659598,41.3062333 10.7437266,35.1235961 C14.6989314,17.0992272 30.6101184,1.96803604 49.0064198,0.17027076 C67.3994937,-1.62749452 86.5300334,11.0035786 90.8967345,28.9312934 C92.9058042,37.1791055 91.9827617,45.8103119 91.9585561,54.2981482 C91.8940076,76.4754193 98.2181397,98.6365815 109.980477,117.450292 C114.518231,124.710622 119.830566,131.458685 124.531305,138.615917 C139.398422,161.244241 147.955929,187.959419 149,215 L9.04933045,215 Z" id="Fill-1" fill="#FFFFFF"></path>
                <path d="M35.0812819,3.5204901 C29.323154,6.04879076 24.1318218,9.82974949 18.2561482,12.0543257 C12.3788644,14.2805437 5.25366422,14.6778481 0.307084566,10.7491315 C-0.459377647,15.6826014 0.154114166,20.9690482 2.76910289,25.1932804 C5.38409162,29.4158709 10.1873622,32.3628187 15.0695332,31.9638726 C21.6279378,31.4270191 26.36841,25.549541 32.1845056,22.4187167 C36.0248678,20.3517488 40.4304153,19.4569931 44.0759414,17.0501822 C47.6023117,14.7238172 53.4779853,7.44920665 51.6584426,2.63394311 C49.5522817,-2.93816888 39.0053752,1.79664873 35.0812819,3.5204901" id="Fill-3" fill="#FFFFFF"></path>
                <path d="M33.9756098,57.0072943 C30.6515679,57.0175064 27.325784,57.0291773 24,57.0393893 C24.6567944,59.176624 25.9512195,61.640644 28.5592334,61.9674293 C30.1202091,62.162917 31.6898955,61.4553683 32.7334495,60.4633413 C33.7787456,59.4713143 34.3989547,58.2225274 35,57" id="Fill-5" fill="#180A86"></path>
                <path d="M37.264436,50 C36.1441239,50 35.1399141,49.1734623 34.6468561,48.2105058 C34.1100713,47.1592783 34.0497584,45.970027 34.0015081,45.0150951 C33.9728595,44.4838641 34.3558464,44.0296696 34.8549356,44.0007809 C35.284665,43.9799168 35.7807386,44.3795438 35.8063716,44.9107748 C35.8485907,45.7132386 35.8953332,46.6216276 36.236101,47.2908823 C36.4728292,47.7514965 36.983981,48.1784073 37.4227573,48.051618 C37.7333688,47.961742 38.0213629,47.5621151 38.1254026,47.0790319 C38.2535675,46.4852087 38.164606,45.7854603 38.0771523,45.1081809 C38.0093003,44.5817647 38.3576073,44.0954716 38.8521731,44.0232499 C39.3271372,43.9526331 39.8036091,44.3185565 39.8714611,44.8481826 C39.973993,45.6554612 40.0916032,46.5734797 39.889555,47.5091525 C39.6287017,48.7128481 38.8657435,49.6324716 37.893198,49.911729 C37.680595,49.9711113 37.4710077,50 37.264436,50" id="Fill-7" fill="#180A86"></path>
                <path d="M23.2637769,50 C22.1436394,50 21.1395862,49.1734623 20.6466051,48.2105058 C20.1114116,47.1624881 20.0511081,45.9716319 20.0013577,45.0150951 C19.9742211,44.4838641 20.3571483,44.0296696 20.8561598,44.0007809 C21.3220043,43.9799168 21.7818185,44.3795438 21.808955,44.9107748 C21.8511675,45.7533618 21.8963951,46.6248374 22.2356023,47.2908823 C22.4722935,47.7514965 22.9833656,48.1784073 23.4220736,48.051618 C23.7341442,47.961742 24.0220934,47.56372 24.1246093,47.0806368 C24.2542619,46.4803939 24.1653142,45.7838554 24.0778741,45.1081809 C24.0100327,44.5817647 24.3582854,44.0954716 24.8527741,44.0232499 C25.3397248,43.9526331 25.8025542,44.3185565 25.8703956,44.8481826 C25.9744191,45.6538563 26.0920109,46.5686649 25.8884866,47.5091525 C25.6306892,48.7112432 24.8648348,49.6324716 23.8909333,49.911729 C23.679871,49.9711113 23.4703164,50 23.2637769,50" id="Fill-9" fill="#180A86"></path>
                <path d="M30.7982915,112 C31.4538848,111.947651 32.0823611,111.471751 32.4556186,110.861013 C32.8256858,110.245516 33.0011487,109.526907 32.9995536,108.809884 C33.0218853,107.301281 32.2019949,106.036974 31.5097139,105.032825 C30.7631989,104.017572 30.0262546,103.178401 29.5732413,102.231361 C29.1425595,101.263697 28.8059898,100.194509 29.3164273,99 C28.1009478,99.6599146 27.8026609,101.395363 28.1153039,102.69457 C28.3976397,104.10482 29.2558129,105.202563 29.9161915,106.167053 C30.6276139,107.13313 31.2497097,107.992923 31.484192,108.958999 C31.6899622,109.942526 31.7394108,111.094204 30.7982915,112" id="Fill-11" fill="#180A86"></path>
                <path d="M25.2593408,114 C25.9099832,113.477691 26.4613524,112.794263 26.7953935,111.765581 C27.168339,110.74221 26.9858909,109.313385 26.6129453,108.426346 C26.2332921,107.495042 25.7691225,106.806303 25.3492234,106.175992 C24.9373735,105.519122 24.5577203,105.033994 24.4544224,104 C23.8400014,104.717068 23.93525,106.149433 24.2330699,107.020538 C24.4986929,107.973088 24.8984691,108.723796 25.1466523,109.417847 C25.4350814,110.120751 25.5544776,110.604108 25.5517945,111.353045 C25.5356962,112.100212 25.3451988,112.990793 25.2593408,114" id="Fill-13" fill="#180A86"></path>
                <polygon id="Fill-15" fill="#180A86" points="41 117 12 117 18.0257355 145 33.9925154 145"></polygon>
                <mask id="mask-2" fill="white">
                    <use xlink:href="#path-1"></use>
                </mask>
                <g id="Clip-18"></g>
                <polygon id="Fill-17" fill="#FFFFFF" mask="url(#mask-2)" points="8 131.75 41 131.75 41 130.25 8 130.25"></polygon>
                <polygon id="Fill-19" fill="#FFFFFF" mask="url(#mask-2)" points="8 137.75 41 137.75 41 136.25 8 136.25"></polygon>
                <polygon id="Fill-20" fill="#FFFFFF" mask="url(#mask-2)" points="8 142.75 41 142.75 41 141.25 8 141.25"></polygon>
                <path d="M33,136 C33,140.97173 37.0298507,145 41.9984197,145 C46.9701493,145 51,140.97173 51,136 C51,131.029851 46.9701493,127 41.9984197,127 C37.0298507,127 33,131.029851 33,136" id="Fill-21" fill="#FFFFFF" mask="url(#mask-2)"></path>
            </g>
        </g>
    </g>
</svg>