<?xml version="1.0" encoding="UTF-8"?>
<svg width="29px" height="29px" viewBox="0 0 29 29" version="1.1" xmlns="http://www.w3.org/2000/svg" xmlns:xlink="http://www.w3.org/1999/xlink">
    <!-- Generator: Sketch 63.1 (92452) - https://sketch.com -->
    <title>Combined Shape</title>
    <desc>Created with Sketch.</desc>
    <g id="Landing_1" stroke="none" stroke-width="1" fill="none" fill-rule="evenodd">
        <g id="Desktop-Copy-11" transform="translate(-694.000000, -3797.000000)" fill="#FFFFFF">
            <path d="M708.5,3797 C716.508129,3797 723,3803.49187 723,3811.5 C723,3819.50813 716.508129,3826 708.5,3826 C700.491871,3826 694,3819.50813 694,3811.5 C694,3803.49187 700.491871,3797 708.5,3797 Z M711.699499,3806.06227 C709.702289,3806.06227 708.234493,3807.94002 708.682675,3809.8906 C706.109365,3809.76185 703.828306,3808.51941 702.30122,3806.6332 C701.48749,3808.03635 701.880582,3809.86758 703.261076,3810.79705 C702.749402,3810.77873 702.274142,3810.63587 701.857707,3810.40609 C701.821292,3811.85058 702.849776,3813.19875 704.340447,3813.50231 C703.905804,3813.62214 703.425876,3813.64516 702.941746,3813.55306 C703.334372,3814.7908 704.477236,3815.69255 705.834853,3815.72027 C704.532325,3816.74608 702.890859,3817.20612 701.250327,3817.00829 C702.621483,3817.89171 704.248476,3818.4119 705.994985,3818.4119 C711.745251,3818.4119 714.995503,3813.52111 714.798957,3809.13593 C715.402135,3808.69892 715.928281,3808.15147 716.34425,3807.52556 C715.791026,3807.76944 715.192049,3807.94002 714.565995,3808.01332 C715.205588,3807.63129 715.694853,3807.01947 715.928281,3806.28782 C715.329305,3806.64683 714.666369,3806.90904 713.96235,3807.04719 C713.395587,3806.44007 712.591194,3806.06227 711.699499,3806.06227 Z" id="Combined-Shape"></path>
        </g>
    </g>
</svg>