<?xml version="1.0" encoding="UTF-8"?>
<svg width="106px" height="106px" viewBox="0 0 106 106" version="1.1" xmlns="http://www.w3.org/2000/svg" xmlns:xlink="http://www.w3.org/1999/xlink">
    <!-- Generator: Sketch 63.1 (92452) - https://sketch.com -->
    <title>wolf</title>
    <desc>Created with Sketch.</desc>
    <defs>
        <circle id="path-1" cx="53" cy="53" r="53"></circle>
        <polygon id="path-3" points="0.722241269 0.734084743 161.901241 0.734084743 161.901241 164.999743 0.722241269 164.999743"></polygon>
    </defs>
    <g id="Landing_1" stroke="none" stroke-width="1" fill="none" fill-rule="evenodd">
        <g id="Desktop-Copy-10" transform="translate(-658.000000, -235.000000)">
            <g id="wolf" transform="translate(658.000000, 235.000000)">
                <g id="Group-9">
                    <mask id="mask-2" fill="white">
                        <use xlink:href="#path-1"></use>
                    </mask>
                    <use id="Oval-Copy-7" fill="#180060" xlink:href="#path-1"></use>
                    <g id="Group-58" mask="url(#mask-2)">
                        <g transform="translate(23.000000, 15.000000)">
                            <g id="Group-3" stroke="none" stroke-width="1" fill="none" fill-rule="evenodd">
                                <mask id="mask-4" fill="white">
                                    <use xlink:href="#path-3"></use>
                                </mask>
                                <g id="Clip-2"></g>
                                <path d="M161.820067,139.146573 C160.725918,139.256285 154.775233,135.032804 149.09657,129.861652 C143.417907,124.691364 145.836645,111.010186 139.295137,94.9015209 C134.199501,82.3511545 126.499736,73.2752906 118.387607,73.0144005 C118.240335,72.8468089 92.7430941,71.2607356 77.5254898,70.3294791 C74.0004738,59.0239555 68.8883775,25.2931178 67.2042706,24.3791387 C65.5210299,23.4668874 59.9030086,27.3603691 56.2532439,28.8505524 C55.7464524,29.0578822 55.2206021,29.2678037 54.6730941,29.2539817 C54.1489765,29.2401597 53.656046,29.0215995 53.1769765,28.8073586 C50.1942706,27.4692173 47.212431,26.130212 44.2305914,24.7920707 C44.4055861,21.4670183 44.958292,15.9589555 43.6726877,14.8393743 C42.3870834,13.7206571 36.8773508,20.7154476 33.4796824,23.6534843 C27.4129123,22.4596099 21.8018214,18.8779869 17.1064203,14.8652906 C12.4118856,10.8525942 8.3653508,6.15398168 4.08664492,1.70330105 C3.52874118,1.12364136 2.74213155,0.497332461 2.0049016,0.823876963 C1.36383209,1.10981937 1.21482674,1.93568325 1.16198182,2.63542147 C0.704570053,8.72487173 0.965329412,14.8678822 1.93906203,20.8968613 C0.295671658,21.5257618 0.57895508,23.9247408 1.26507273,25.5410497 C3.33122246,30.4072539 6.27407807,34.8432487 9.20220642,39.2472801 C12.9515968,44.8909712 16.7018535,50.5337984 20.4521102,56.1774895 C21.0715219,57.1096099 21.8278107,73.4161021 22.6430086,94.4903168 L22.5087305,94.5663377 C23.5898856,123.695317 24.7628695,158.777254 25.755661,162.459086 C26.8290193,162.996416 29.4574043,163.947542 30.2457465,163.042202 C31.0349551,162.138589 31.3710834,160.935212 31.6431048,159.768118 C33.1981316,153.080866 35.5415005,119.031259 39.4130406,119.210081 C43.2837144,119.388903 44.3934578,129.89016 44.4783561,133.257542 C44.6273615,139.189767 44.2869016,147.065709 43.4630406,152.942647 C43.1520353,155.167123 42.7717251,158.410107 43.251661,160.604348 C43.7315968,162.798589 47.7408802,165.264086 50.4333722,164.339741 C53.1258642,163.414531 52.0940888,138.018353 55.2206021,126.187594 C55.5723241,124.857228 56.0150086,123.520814 56.8336717,122.413327 C57.9425487,120.914505 95.4303882,120.225134 98.5404417,122.910919 C103.027062,126.784531 103.12149,149.813694 103.264431,155.155029 C103.318142,157.142804 103.39611,161.057018 104.333458,162.811547 C105.270805,164.565212 110.20011,164.225709 111.241415,163.397254 C112.28272,162.567935 110.575222,139.236416 112.22641,127.282987 C112.546944,124.96262 113.649757,122.013353 115.995725,122.155893 C118.433522,122.304479 119.084121,125.572516 118.928185,128.002594 C118.118185,140.692908 120.045725,148.05139 119.879394,161.808589 C119.861201,163.288406 121.375511,164.586809 122.81965,164.928903 C124.407597,165.305552 126.032795,164.127228 126.718912,162.650866 C127.405896,161.173641 127.383372,159.480448 127.346987,157.853772 C127.118281,147.656599 126.891308,141.322673 126.662602,131.126364 C126.61149,128.851783 126.561244,126.577202 126.510132,124.30262 C126.474613,122.745055 126.43996,121.18749 126.405308,119.629924 C126.200859,110.494453 125.995543,101.357254 125.546795,92.2304215 C125.424645,89.7692435 129.603725,94.9594005 130.70134,111.845552 C131.798955,128.733432 134.587607,138.099558 143.681265,143.040919 C152.774057,147.98228 162.913351,139.035997 161.820067,139.146573" id="Fill-1" fill="#FF5958" mask="url(#mask-4)"></path>
                            </g>
                            <path d="M59.4912291,31.7621174 C59.1774264,31.5036849 58.8579331,31.0778866 59.0668638,30.727567 L64.7966079,28.0004886 C64.8884724,27.9570063 65.0283015,30.8292991 64.9949702,31.1074217 C64.9022927,31.8753355 64.731571,33.4800783 63.9917772,33.902595 C62.9950879,34.4727873 60.2407785,32.3798942 59.4912291,31.7621174" id="Fill-4" stroke="none" fill="#BDBDEF" fill-rule="evenodd"></path>
                            <path d="M36.135276,23.0830656 C36.068632,23.0342453 35.9964342,22.9685257 36.0001367,22.884029 C36.0019879,22.8107986 36.0621527,22.7544675 36.1167638,22.7075249 C37.6643874,21.3874996 39.2795806,20.1491543 40.9549387,19 C41.1196977,19.8440276 40.8077664,20.707771 40.4227117,21.4738739 C40.1348463,22.0465734 39.6646353,23.694258 39.1222266,23.9242766 C38.3872905,24.2359753 36.7239654,23.5121208 36.135276,23.0830656" id="Fill-6" stroke="none" fill="#BDBDEF" fill-rule="evenodd"></path>
                            <path d="M3.17531844,27.2617959 C2.24098846,25.9880736 0.835119295,21.5104642 3.73171719,23.5040354 C5.85758033,24.9689093 5.06235004,29.835349 3.17531844,27.2617959" id="Fill-8" stroke="none" fill="#180A86" fill-rule="evenodd"></path>
                            <line x1="133.5" y1="102" x2="133.5" y2="107" id="Stroke-10" stroke="#FFFFFF" stroke-width="2" fill="none" stroke-linecap="round" stroke-linejoin="round"></line>
                            <path d="M134.1425,113 C134.2105,114.349468 134.4515,115.693094 134.8575,117" id="Stroke-12" stroke="#FFFFFF" stroke-width="2" fill="none" stroke-linecap="round" stroke-linejoin="round"></path>
                            <path d="M137.0215,107 C137.5515,108.624724 137.8745,110.306392 137.9785,112" id="Stroke-14" stroke="#FFFFFF" stroke-width="2" fill="none" stroke-linecap="round" stroke-linejoin="round"></path>
                            <path d="M137,124 C137.60133,125.701031 138.269163,127.369334 139,129" id="Stroke-16" stroke="#FFFFFF" stroke-width="2" fill="none" stroke-linecap="round" stroke-linejoin="round"></path>
                            <path d="M140,119 C140.425439,120.427435 141.105263,121.786178 142,123" id="Stroke-18" stroke="#FFFFFF" stroke-width="2" fill="none" stroke-linecap="round" stroke-linejoin="round"></path>
                            <path d="M136,94 C136.178044,94.8989405 136.357011,95.797066 136.534133,96.6960065 C136.624539,97.1483293 136.719557,97.6136919 137,98" id="Stroke-20" stroke="#FFFFFF" stroke-width="2" fill="none" stroke-linecap="round" stroke-linejoin="round"></path>
                            <path d="M129,88 C129.459207,89.29786 129.794095,90.6396761 130,92" id="Stroke-22" stroke="#FFFFFF" stroke-width="2" fill="none" stroke-linecap="round" stroke-linejoin="round"></path>
                            <path d="M143,134 C143.564117,135.29385 144.652674,136.383155 146,137" id="Stroke-24" stroke="#FFFFFF" stroke-width="2" fill="none" stroke-linecap="round" stroke-linejoin="round"></path>
                            <path d="M147,132 C147.760784,133.318889 148.81098,134.368839 150,135" id="Stroke-26" stroke="#FFFFFF" stroke-width="2" fill="none" stroke-linecap="round" stroke-linejoin="round"></path>
                            <path d="M147,140 C147.760936,140.772802 148.923755,141.141272 150,140.950313" id="Stroke-28" stroke="#FFFFFF" stroke-width="2" fill="none" stroke-linecap="round" stroke-linejoin="round"></path>
                            <path d="M131.252168,96 C131.243168,96.6901018 131.415168,97.3820537 131.748168,98" id="Stroke-30" stroke="#FFFFFF" stroke-width="2" fill="none" stroke-linecap="round" stroke-linejoin="round"></path>
                            <path d="M59.9244167,48 C60.2802222,52.8394795 59.3743793,57.7670752 57.3220522,62.1590627 C56.4944178,61.1975595 55.4966156,60.3846445 54.3888059,59.7721505 C55.2731629,65.522164 54.2968465,71.5468927 51.6411971,76.7181038 C50.441428,75.1562011 49.0328166,73.7567086 47.46521,72.5697317 C45.0467642,78.8415312 42.6291779,85.1133308 40.2107322,91.3859943 C38.7161774,88.7148642 37.0265312,86.1551752 35.1607012,83.7328438 C33.3894088,87.8216079 31.6181165,91.9112359 29.8476836,96 L26,88.6293397" id="Stroke-32" stroke="#FFFFFF" stroke-width="2" fill="none" stroke-linecap="round" stroke-linejoin="round"></path>
                            <line x1="28.5" y1="74" x2="28.5" y2="78" id="Stroke-34" stroke="#FFFFFF" stroke-width="2" fill="none" stroke-linecap="round" stroke-linejoin="round"></line>
                            <line x1="32.5" y1="76" x2="32.5" y2="78" id="Stroke-36" stroke="#FFFFFF" stroke-width="2" fill="none" stroke-linecap="round" stroke-linejoin="round"></line>
                            <path d="M39.8261959,71 C39.9561959,71.6983076 39.7051959,72.4304636 39.1401959,73" id="Stroke-38" stroke="#FFFFFF" stroke-width="2" fill="none" stroke-linecap="round" stroke-linejoin="round"></path>
                            <path d="M36.6178178,64 C36.7258178,65.3365511 36.6318178,66.6853883 36.3388178,68" id="Stroke-40" stroke="#FFFFFF" stroke-width="2" fill="none" stroke-linecap="round" stroke-linejoin="round"></path>
                            <line x1="30.5" y1="63" x2="30.5" y2="65" id="Stroke-42" stroke="#FFFFFF" stroke-width="2" fill="none" stroke-linecap="round" stroke-linejoin="round"></line>
                            <path d="M44.923068,59 C45.055068,60.3726736 44.747068,61.77803 44.047068,63" id="Stroke-44" stroke="#FFFFFF" stroke-width="2" fill="none" stroke-linecap="round" stroke-linejoin="round"></path>
                            <path d="M41.7147874,56 C41.7327874,56.3509892 41.5797874,56.7038928 41.2837874,57" id="Stroke-46" stroke="#FFFFFF" stroke-width="2" fill="none" stroke-linecap="round" stroke-linejoin="round"></path>
                            <line x1="25.5" y1="58" x2="25.5" y2="62" id="Stroke-48" stroke="#FFFFFF" stroke-width="2" fill="none" stroke-linecap="round" stroke-linejoin="round"></line>
                            <path d="M50.7492143,53 C51.0362143,54.3449226 50.8152143,55.7644689 50.1282143,57" id="Stroke-50" stroke="#FFFFFF" stroke-width="2" fill="none" stroke-linecap="round" stroke-linejoin="round"></path>
                            <path d="M34.7515,55 C34.5835,55.6661716 34.4155,56.3330858 34.2485,57" id="Stroke-52" stroke="#FFFFFF" stroke-width="2" fill="none" stroke-linecap="round" stroke-linejoin="round"></path>
                            <path d="M35.011987,32 C34.9767968,33.574964 34.968613,35.2578271 35.7411617,36.5807243 C36.5120736,37.9045282 38.382067,38.5473891 39.3755777,37.4194356 C40.4435608,36.2071577 39.7446661,34.1860899 40,32.5159208" id="Stroke-54" stroke="#180A86" stroke-width="1.8" fill="none" stroke-linecap="round" stroke-linejoin="round"></path>
                            <path d="M1.29703208,1.48648373 C1.40456372,0.878001198 1.66047236,0.176162446 2.25898183,0.0269591954 C2.73745597,-0.0922366971 3.21259579,0.204502728 3.59770912,0.511244605 C4.33375906,1.09722162 4.9956205,1.77488777 5.56328756,2.52507171 C5.76501359,2.79097024 5.96173815,3.08270844 5.99508129,3.41445645 C6.04092812,3.8687345 5.76084569,4.31134303 5.38156741,4.56557203 C5.00145555,4.81896749 4.53798583,4.91315725 4.08368547,4.95483414 C3.40848677,5.01734947 1.60128828,5.11237277 1.16532665,4.47888411 C0.77521185,3.91374554 1.1828318,2.12830776 1.29703208,1.48648373" id="Fill-56" stroke="none" fill="#FFFFFF" fill-rule="evenodd"></path>
                        </g>
                    </g>
                </g>
            </g>
        </g>
    </g>
</svg>